<?xml version="1.0" encoding="UTF-8"?>
<svg version="1.1" xmlns="http://www.w3.org/2000/svg" width="362" height="131">
<path d="M0 0 C119.46 0 238.92 0 362 0 C362 43.23 362 86.46 362 131 C242.54 131 123.08 131 0 131 C0 87.77 0 44.54 0 0 Z " fill="#FEFEFE" transform="translate(0,0)"/>
<path d="M0 0 C2.5 0.25 2.5 0.25 4.5 2.25 C4.625 5.875 4.625 5.875 4.5 9.25 C5.16 8.92 5.82 8.59 6.5 8.25 C9.5 8.0625 9.5 8.0625 12.5 8.25 C13.16 8.91 13.82 9.57 14.5 10.25 C14.11121812 13.26305957 13.23543126 14.64685311 11.5 17.25 C13.418125 17.188125 13.418125 17.188125 15.375 17.125 C17.5546875 17.0546875 17.5546875 17.0546875 19.5 17.25 C21.5 19.25 21.5 19.25 21.875 21.625 C21.39262388 25.00163282 20.05541504 26.09386856 17.5 28.25 C18.16 29.24 18.82 30.23 19.5 31.25 C19.75 33.8125 19.75 33.8125 19.5 36.25 C18.84 36.91 18.18 37.57 17.5 38.25 C13.69090105 37.92582137 11.71627837 37.39418558 8.5 35.25 C8.70625 36.36375 8.9125 37.4775 9.125 38.625 C9.24875 39.82125 9.3725 41.0175 9.5 42.25 C8.84 42.91 8.18 43.57 7.5 44.25 C4.88419521 43.9230244 2.85921863 43.42960932 0.5 42.25 C0.190625 43.054375 -0.11875 43.85875 -0.4375 44.6875 C-1.5 47.25 -1.5 47.25 -2.5 48.25 C-5.5 48.375 -5.5 48.375 -8.5 48.25 C-10.38059033 46.36940967 -9.62361218 43.75109962 -9.6328125 41.2578125 C-9.5 39.25 -9.5 39.25 -8.5 36.25 C-9.056875 36.91 -9.61375 37.57 -10.1875 38.25 C-12.5 40.25 -12.5 40.25 -15.1875 40.5625 C-17.5 40.25 -17.5 40.25 -18.5 39.25 C-18.54063832 37.58382885 -18.542721 35.91611905 -18.5 34.25 C-19.44875 33.96125 -20.3975 33.6725 -21.375 33.375 C-24.5 32.25 -24.5 32.25 -26.5 30.25 C-26.75 27.75 -26.75 27.75 -26.5 25.25 C-23.9345406 22.6845406 -22.02313332 22.70953913 -18.5 22.25 C-20.48 20.6 -22.46 18.95 -24.5 17.25 C-24.17 15.6 -23.84 13.95 -23.5 12.25 C-21.52 12.25 -19.54 12.25 -17.5 12.25 C-17.850625 11.71375 -18.20125 11.1775 -18.5625 10.625 C-19.78924249 7.51725237 -19.22856431 5.45568297 -18.5 2.25 C-15.035 1.755 -15.035 1.755 -11.5 1.25 C-9.52 3.89 -7.54 6.53 -5.5 9.25 C-5.37625 8.13625 -5.2525 7.0225 -5.125 5.875 C-4.43387531 1.86647677 -4.17870911 0.41787091 0 0 Z " fill="#F6A9BB" transform="translate(182.5,3.75)"/>
<path d="M0 0 C0.556875 0.680625 0.556875 0.680625 1.125 1.375 C5.98523752 5.58720585 11.53969735 5.1403411 17.609375 4.875 C20 5 20 5 22 7 C22.375 9.375 22.375 9.375 22 12 C20 14.3125 20 14.3125 18 16 C18.66 16.99 19.32 17.98 20 19 C20.25 21.5625 20.25 21.5625 20 24 C19.34 24.66 18.68 25.32 18 26 C14.19090105 25.67582137 12.21627837 25.14418558 9 23 C9.20625 24.11375 9.4125 25.2275 9.625 26.375 C9.74875 27.57125 9.8725 28.7675 10 30 C9.34 30.66 8.68 31.32 8 32 C5.5 31.875 5.5 31.875 3 31 C1.29602036 28.75384503 0.92957321 27.61623442 1.25 24.8125 C2 23 2 23 4 22 C3.34 20.35 2.68 18.7 2 17 C0.906875 17.061875 -0.18625 17.12375 -1.3125 17.1875 C-5 17 -5 17 -6.9375 15.875 C-8.52225401 13.07837528 -8.45947423 11.1506804 -8 8 C-6.125 6.125 -6.125 6.125 -4 5 C-3.34 5 -2.68 5 -2 5 C-1.855625 4.360625 -1.71125 3.72125 -1.5625 3.0625 C-1 1 -1 1 0 0 Z " fill="#F6AABB" transform="translate(182,16)"/>
<path d="M0 0 C0.45375 0.474375 0.9075 0.94875 1.375 1.4375 C3.04930807 3.36660056 3.04930807 3.36660056 6.5 3.375 C10 4 10 4 12 6.4375 C12.33 7.283125 12.66 8.12875 13 9 C12 11 12 11 10 12 C10.33 13.65 10.66 15.3 11 17 C10.34 17 9.68 17 9 17 C8.690625 17.804375 8.38125 18.60875 8.0625 19.4375 C7 22 7 22 6 23 C3 23.125 3 23.125 0 23 C-1.88059033 21.11940967 -1.12361218 18.50109962 -1.1328125 16.0078125 C-1 14 -1 14 0 11 C-0.556875 11.66 -1.11375 12.32 -1.6875 13 C-4 15 -4 15 -6.6875 15.3125 C-9 15 -9 15 -10 14 C-10.04063832 12.33382885 -10.042721 10.66611905 -10 9 C-11.65 8.67 -13.3 8.34 -15 8 C-15 7.67 -15 7.34 -15 7 C-14.06027344 7.01740234 -14.06027344 7.01740234 -13.1015625 7.03515625 C-11.87566406 7.04869141 -11.87566406 7.04869141 -10.625 7.0625 C-9.40683594 7.07990234 -9.40683594 7.07990234 -8.1640625 7.09765625 C-5.95062858 7.14466334 -5.95062858 7.14466334 -4 6 C-4.95865509 3.66924071 -4.95865509 3.66924071 -8 2 C-4.76746204 -0.15502531 -3.74849077 -0.46856135 0 0 Z " fill="#F7B1BE" transform="translate(174,29)"/>
<path d="M0 0 C7.00640673 -0.42463071 13.27293764 3.17964032 18.5 7.6875 C21.51900948 10.94462854 22.06986422 14.52806868 22.67578125 18.828125 C22.89134806 21.04124201 22.89134806 21.04124201 24 23 C9.80297398 20.01115242 9.80297398 20.01115242 5.4140625 13.73046875 C2.55790651 9.2585062 0.28548743 5.42426109 0 0 Z " fill="#3DC4C4" transform="translate(131,25)"/>
<path d="M0 0 C0.79921875 0.00902344 1.5984375 0.01804687 2.421875 0.02734375 C3.02515625 0.03894531 3.6284375 0.05054687 4.25 0.0625 C2.46549353 6.71384229 -0.45576284 11.2364745 -5.8125 15.5 C-10.73991093 18.07320349 -16.35754629 17.38126574 -21.75 17.0625 C-19.72527743 9.89809708 -17.38797679 6.00120857 -10.96875 2.12109375 C-7.23512714 0.33973495 -4.11708026 -0.0605453 0 0 Z " fill="#41C5C5" transform="translate(224.75,28.9375)"/>
<path d="M0 0 C2.00484471 1.52863178 2.89129515 2.39320093 3.34057617 4.90112305 C3.32486572 5.59761963 3.30915527 6.29411621 3.29296875 7.01171875 C3.28330078 7.76904297 3.27363281 8.52636719 3.26367188 9.30664062 C3.23853516 10.09232422 3.21339844 10.87800781 3.1875 11.6875 C3.17396484 12.48478516 3.16042969 13.28207031 3.14648438 14.10351562 C3.11117089 16.06929967 3.05736447 18.03473582 3 20 C2.38125 19.835 1.7625 19.67 1.125 19.5 C-0.96063386 18.92365356 -0.96063386 18.92365356 -3 19 C-3.99 19.66 -4.98 20.32 -6 21 C-8.1875 20.625 -8.1875 20.625 -10 20 C-10.75 17.8125 -10.75 17.8125 -11 15 C-8.96012491 11.49141485 -7.53062623 10.21429136 -3.75 8.6875 C-2.38875 8.3471875 -2.38875 8.3471875 -1 8 C-1.33 6.35 -1.66 4.7 -2 3 C-3.32 2.67 -4.64 2.34 -6 2 C-6.33 4.31 -6.66 6.62 -7 9 C-7.99 8.67 -8.98 8.34 -10 8 C-9.64505955 5.37344067 -9.27538036 3.42031739 -7.8125 1.1875 C-5.11075568 -0.58260835 -3.15326426 -0.39415803 0 0 Z " fill="#217676" transform="translate(196,80)"/>
<path d="M0 0 C0.99 0 1.98 0 3 0 C3 8.91 3 17.82 3 27 C8.28 27 13.56 27 19 27 C18.67 28.32 18.34 29.64 18 31 C11.07 31 4.14 31 -3 31 C-3 30.34 -3 29.68 -3 29 C-2.34 29 -1.68 29 -1 29 C-1.00523682 28.3702124 -1.01047363 27.7404248 -1.01586914 27.09155273 C-1.03680138 24.20687885 -1.0497115 21.32222102 -1.0625 18.4375 C-1.07506836 16.9515332 -1.07506836 16.9515332 -1.08789062 15.43554688 C-1.10536914 10.17451301 -0.92308398 5.18235335 0 0 Z " fill="#237777" transform="translate(140,68)"/>
<path d="M0 0 C0.66 0.66 1.32 1.32 2 2 C1.75 5.0625 1.75 5.0625 1 8 C-1.73247348 9.36623674 -3.98198902 9.128426 -7 9 C-7.33 8.67 -7.66 8.34 -8 8 C-8.042721 9.66611905 -8.04063832 11.33382885 -8 13 C-6.90201339 14.31189416 -6.90201339 14.31189416 -4.1875 14.25 C-0.72285889 13.97826344 0.49415104 13.31309135 3 11 C2.6815535 13.94563014 2.33733608 15.61076606 0.375 17.875 C-3.07294931 19.50823915 -5.37102699 18.94084486 -9 18 C-11.82859089 13.75711366 -11.76925531 9.98033337 -11 5 C-7.9053404 0.44903001 -5.46895236 -0.85072592 0 0 Z " fill="#237777" transform="translate(172,81)"/>
<path d="M0 0 C0 0.99 0 1.98 0 3 C-1.6396875 3.2165625 -1.6396875 3.2165625 -3.3125 3.4375 C-6.93122987 3.88288104 -6.93122987 3.88288104 -10 5 C-10 5.66 -10 6.32 -10 7 C-8.63875 6.9071875 -8.63875 6.9071875 -7.25 6.8125 C-3.71017358 7.01672076 -2.55068845 7.64551835 0 10 C-0.3178303 12.9664161 -1.0104603 14.01076795 -3.125 16.1875 C-6.52379858 18.33022084 -9.00373851 18.84919768 -13 19 C-13.66 18.34 -14.32 17.68 -15 17 C-14.625 14.875 -14.625 14.875 -14 13 C-13.01 13 -12.02 13 -11 13 C-11.33 13.66 -11.66 14.32 -12 15 C-11.236875 14.690625 -10.47375 14.38125 -9.6875 14.0625 C-7.81210323 13.32106407 -5.91315348 12.63771783 -4 12 C-4 11.01 -4 10.02 -4 9 C-6.97 9 -9.94 9 -13 9 C-13.33 7.68 -13.66 6.36 -14 5 C-5.92255125 -0.74031891 -5.92255125 -0.74031891 0 0 Z " fill="#348282" transform="translate(223,81)"/>
<path d="M0 0 C1.32 0 2.64 0 4 0 C2.2804646 6.40917739 -0.65361819 11.78119052 -6.3125 15.4375 C-10.24471056 17.47289534 -13.64394429 17.30568812 -18 17 C-16.35168513 11.62771451 -10.91814592 9.84225163 -6.32226562 7.35546875 C-2.44965424 5.39269538 -2.44965424 5.39269538 -0.29321289 1.86132812 C-0.14807251 0.9399707 -0.14807251 0.9399707 0 0 Z " fill="#1AB9B9" transform="translate(225,29)"/>
<path d="M0 0 C2.875 1.375 2.875 1.375 4.875 4.375 C4.5508631 7.69740324 4.26723697 8.98276303 1.875 11.375 C-1.22847254 11.70515665 -3.28281176 11.88031294 -6 10.25 C-7.67163625 7.46393958 -7.58876624 5.55511138 -7.125 2.375 C-4.7128789 -0.59376443 -3.76709184 -0.75341837 0 0 Z " fill="#E8C36A" transform="translate(181.125,21.625)"/>
<path d="M0 0 C6.37873792 1.34762069 11.26212129 3.05510128 15.7265625 7.94921875 C17.88897042 11.43162414 18.0639014 14.97421168 18 19 C13.47865782 15.28245198 9.22584239 11.35952636 5.0625 7.25 C4.31746216 6.5242981 4.31746216 6.5242981 3.55737305 5.78393555 C2.33152671 4.56151636 1.16065173 3.28448257 0 2 C0 1.34 0 0.68 0 0 Z " fill="#17B8B8" transform="translate(135,26)"/>
<path d="M0 0 C0.66 0.99 1.32 1.98 2 3 C2.99 3 3.98 3 5 3 C6.41755436 10.99295713 6.41755436 10.99295713 4.9375 14.5625 C2.22374731 16.57592941 0.29229232 16.35785786 -3 16 C-4 15 -4 15 -4.3125 11.375 C-4.28682901 6.63442326 -2.59526153 3.89289229 0 0 Z " fill="#F6A8BA" transform="translate(177,36)"/>
<path d="M0 0 C0.556875 0.680625 0.556875 0.680625 1.125 1.375 C3.00796733 3.22855386 3.00796733 3.22855386 6.0625 3.9375 C9 5 9 5 10.25 7 C10.4975 7.66 10.745 8.32 11 9 C11.66 9.66 12.32 10.32 13 11 C11.68 11 10.36 11 9 11 C9 11.66 9 12.32 9 13 C9.99 13.33 10.98 13.66 12 14 C11.34 14 10.68 14 10 14 C10.66 15.32 11.32 16.64 12 18 C11.21625 17.649375 10.4325 17.29875 9.625 16.9375 C8.75875 16.628125 7.8925 16.31875 7 16 C6.34 16.33 5.68 16.66 5 17 C4.34 16.67 3.68 16.34 3 16 C3.04125 15.071875 3.0825 14.14375 3.125 13.1875 C3.27136339 9.84190281 3.27136339 9.84190281 1 7 C0.01 6.67 -0.98 6.34 -2 6 C-2 4.35 -2 2.7 -2 1 C-1.34 0.67 -0.68 0.34 0 0 Z " fill="#FAD0D0" transform="translate(182,16)"/>
<path d="M0 0 C0.625 2.375 0.625 2.375 1 5 C-1 7 -1 7 -3.5 7.25 C-6 7 -6 7 -8 5 C-7.75 2.4375 -7.75 2.4375 -7 0 C-4.3333581 -1.33332095 -2.83319697 -0.67102033 0 0 Z " fill="#F8C0CD" transform="translate(185,120)"/>
<path d="M0 0 C0.99 0 1.98 0 3 0 C3 6.27 3 12.54 3 19 C2.01 18.67 1.02 18.34 0 18 C0 12.06 0 6.12 0 0 Z " fill="#1D7373" transform="translate(179,80)"/>
<path d="M0 0 C2.3125 -0.25 2.3125 -0.25 5 0 C6.8125 2 6.8125 2 8 4 C7 6 7 6 5 7 C5.33 8.65 5.66 10.3 6 12 C5.34 12 4.68 12 4 12 C3.34 10.02 2.68 8.04 2 6 C1.34 6.66 0.68 7.32 0 8 C-0.66 7.67 -1.32 7.34 -2 7 C-1.125 2.25 -1.125 2.25 0 0 Z " fill="#FAD4DD" transform="translate(179,34)"/>
<path d="M0 0 C0 0.99 0 1.98 0 3 C-1.6396875 3.2165625 -1.6396875 3.2165625 -3.3125 3.4375 C-6.93122987 3.88288104 -6.93122987 3.88288104 -10 5 C-10 5.66 -10 6.32 -10 7 C-8.35 7 -6.7 7 -5 7 C-5 7.33 -5 7.66 -5 8 C-7.97 8 -10.94 8 -14 8 C-13 4 -13 4 -9.8125 1.75 C-6.45613894 -0.02526535 -3.82041031 -0.37272296 0 0 Z " fill="#277A7A" transform="translate(223,81)"/>
<path d="M0 0 C3 1 3 1 5 3 C5.66 2.01 6.32 1.02 7 0 C7.66 0 8.32 0 9 0 C9 2.64 9 5.28 9 8 C7.02 7.34 5.04 6.68 3 6 C2.67 6.66 2.34 7.32 2 8 C1.34 8 0.68 8 0 8 C0 5.36 0 2.72 0 0 Z " fill="#F8C2CF" transform="translate(134,119)"/>
<path d="M0 0 C2.97 0.33 5.94 0.66 9 1 C7.68 1.33 6.36 1.66 5 2 C5 2.66 5 3.32 5 4 C5.99 4.33 6.98 4.66 8 5 C7.34 5 6.68 5 6 5 C6.66 6.32 7.32 7.64 8 9 C7.21625 8.649375 6.4325 8.29875 5.625 7.9375 C4.75875 7.628125 3.8925 7.31875 3 7 C2.01 7.495 2.01 7.495 1 8 C0.34 7.67 -0.32 7.34 -1 7 C-0.67 4.69 -0.34 2.38 0 0 Z " fill="#FAD5DD" transform="translate(186,25)"/>
<path d="M0 0 C2.875 -0.125 2.875 -0.125 6 0 C6.66 0.66 7.32 1.32 8 2 C7.75 5.0625 7.75 5.0625 7 8 C4.29120665 9.35439668 1.99066732 9.06501451 -1 9 C-1 8.34 -1 7.68 -1 7 C0.98 6.67 2.96 6.34 5 6 C4.67 5.01 4.34 4.02 4 3 C1.98491642 2.26676204 1.98491642 2.26676204 0 2 C0 1.34 0 0.68 0 0 Z " fill="#227676" transform="translate(166,81)"/>
<path d="M0 0 C1.32 0 2.64 0 4 0 C4 3.3 4 6.6 4 10 C2.68 10.33 1.36 10.66 0 11 C0 7.37 0 3.74 0 0 Z " fill="#468D8D" transform="translate(203,68)"/>
<path d="M0 0 C0.66 0.66 1.32 1.32 2 2 C1.875 4.5 1.875 4.5 1 7 C-1.0625 8.3125 -1.0625 8.3125 -3 9 C-3.268125 8.21625 -3.53625 7.4325 -3.8125 6.625 C-4.84814432 3.71885077 -4.84814432 3.71885077 -8 2 C-4.77626323 -0.14915785 -3.73296326 -0.38286803 0 0 Z " fill="#FBDADD" transform="translate(174,29)"/>
<path d="M0 0 C1.65 0.33 3.3 0.66 5 1 C5 2.65 5 4.3 5 6 C1.535 7.485 1.535 7.485 -2 9 C-1.34 6.03 -0.68 3.06 0 0 Z " fill="#F2F7F7" transform="translate(190,82)"/>
<path d="M0 0 C1.65 0 3.3 0 5 0 C5.59732819 2.76264289 6 5.16032769 6 8 C5.34 8 4.68 8 4 8 C4 7.34 4 6.68 4 6 C3.01 6 2.02 6 1 6 C0.67 6.66 0.34 7.32 0 8 C0 5.36 0 2.72 0 0 Z " fill="#F9CAD5" transform="translate(210,119)"/>
<path d="M0 0 C2 2 2 2 2 5 C0.25 6.75 0.25 6.75 -2 8 C-4.25 7.6875 -4.25 7.6875 -6 7 C-6.33 5.68 -6.66 4.36 -7 3 C-5.5459375 2.5359375 -5.5459375 2.5359375 -4.0625 2.0625 C-1.15934208 1.30476658 -1.15934208 1.30476658 0 0 Z " fill="#FACFD6" transform="translate(176,17)"/>
<path d="M0 0 C1.98 0 3.96 0 6 0 C4.68 0.33 3.36 0.66 2 1 C2 1.66 2 2.32 2 3 C3.32 3 4.64 3 6 3 C6 3.66 6 4.32 6 5 C4.68 5 3.36 5 2 5 C2 5.66 2 6.32 2 7 C3.32 7.33 4.64 7.66 6 8 C4.02 8 2.04 8 0 8 C0 5.36 0 2.72 0 0 Z " fill="#F8BDCB" transform="translate(168,119)"/>
<path d="M0 0 C0.8125 1.6875 0.8125 1.6875 1 4 C-1.3125 6.75 -1.3125 6.75 -4 9 C-4.66 9 -5.32 9 -6 9 C-5.69381595 5.32579134 -5.24228216 4.21864487 -2.4375 1.6875 C-1.633125 1.130625 -0.82875 0.57375 0 0 Z " fill="#ECF3F3" transform="translate(194,90)"/>
<path d="M0 0 C0.99 0.33 1.98 0.66 3 1 C4.1875 4.5625 4.1875 4.5625 5 8 C3.02 7.34 1.04 6.68 -1 6 C-1 6.66 -1 7.32 -1 8 C-1.66 7.67 -2.32 7.34 -3 7 C-2.01 4.69 -1.02 2.38 0 0 Z " fill="#F9C2CF" transform="translate(149,119)"/>
<path d="M0 0 C0.99 0.33 1.98 0.66 3 1 C3 1.99 3 2.98 3 4 C3.5775 3.505 4.155 3.01 4.75 2.5 C7 1 7 1 11 1 C10.67 1.99 10.34 2.98 10 4 C9.34 4 8.68 4 8 4 C7.01 4.66 6.02 5.32 5 6 C2.8125 5.625 2.8125 5.625 1 5 C0.67 3.35 0.34 1.7 0 0 Z " fill="#428A8A" transform="translate(185,95)"/>
<path d="M0 0 C1.65 0.33 3.3 0.66 5 1 C4.01 1.66 3.02 2.32 2 3 C2.99 3.66 3.98 4.32 5 5 C4.67 5.99 4.34 6.98 4 8 C2.35 8 0.7 8 -1 8 C-0.67 7.34 -0.34 6.68 0 6 C0.99 6.33 1.98 6.66 3 7 C3 6.34 3 5.68 3 5 C1.68 4.67 0.36 4.34 -1 4 C-0.67 2.68 -0.34 1.36 0 0 Z " fill="#F8BFCC" transform="translate(221,119)"/>
<path d="M0 0 C2.97 0.495 2.97 0.495 6 1 C6.33 2.32 6.66 3.64 7 5 C4.36 5.33 1.72 5.66 -1 6 C-0.67 4.02 -0.34 2.04 0 0 Z " fill="#F8C1CB" transform="translate(186,20)"/>
<path d="M0 0 C2.625 0.375 2.625 0.375 5 1 C5 1.99 5 2.98 5 4 C3.35 4.33 1.7 4.66 0 5 C-0.66 4.01 -1.32 3.02 -2 2 C-1.34 1.34 -0.68 0.68 0 0 Z " fill="#E2EDED" transform="translate(166,83)"/>
<path d="M0 0 C1.32 0.66 2.64 1.32 4 2 C2.68 2 1.36 2 0 2 C-0.33 4.31 -0.66 6.62 -1 9 C-1.99 8.67 -2.98 8.34 -4 8 C-3.50168276 4.31245243 -2.89932357 2.39509338 0 0 Z " fill="#458D8D" transform="translate(190,80)"/>
<path d="M0 0 C0.99 0.33 1.98 0.66 3 1 C2.67 2.65 2.34 4.3 2 6 C0.68 5.67 -0.64 5.34 -2 5 C-1.125 1.125 -1.125 1.125 0 0 Z " fill="#FEFAFB" transform="translate(181,120)"/>
<path d="M0 0 C0.99 0.33 1.98 0.66 3 1 C3 2.65 3 4.3 3 6 C1.68 6 0.36 6 -1 6 C-1.042721 4.33388095 -1.04063832 2.66617115 -1 1 C-0.67 0.67 -0.34 0.34 0 0 Z " fill="#247878" transform="translate(181,67)"/>
<path d="M0 0 C0.66 0 1.32 0 2 0 C1.835 0.598125 1.67 1.19625 1.5 1.8125 C0.8885876 4.11344336 0.8885876 4.11344336 1 7 C-0.32 6.67 -1.64 6.34 -3 6 C-1.125 1.125 -1.125 1.125 0 0 Z " fill="#307F7F" transform="translate(164,82)"/>
</svg>
