<?xml version="1.0" standalone="no"?>
<!DOCTYPE svg PUBLIC "-//W3C//DTD SVG 20010904//EN"
 "http://www.w3.org/TR/2001/REC-SVG-20010904/DTD/svg10.dtd">
<svg version="1.0" xmlns="http://www.w3.org/2000/svg"
 width="800.000000pt" height="800.000000pt" viewBox="0 0 800.000000 800.000000"
 preserveAspectRatio="xMidYMid meet">

<g transform="translate(0.000000,800.000000) scale(0.100000,-0.100000)"
fill="#000000" stroke="none">
<path d="M2295 5143 c-61 -18 -113 -56 -121 -87 -4 -18 -11 -22 -29 -19 -12 3
-43 -4 -68 -15 -48 -21 -48 -22 -63 -139 -6 -39 -4 -43 20 -49 15 -3 30 -4 33
-1 9 10 43 -12 43 -27 0 -9 -16 -17 -39 -21 -86 -14 -155 66 -122 143 11 25
10 26 -4 8 -21 -27 -19 -73 5 -111 24 -39 38 -46 105 -54 42 -5 51 -10 53 -28
3 -19 -1 -23 -25 -23 -15 0 -38 -3 -51 -6 -23 -7 -23 -7 -2 -21 11 -8 20 -23
20 -34 0 -18 -4 -19 -37 -13 -21 4 -48 10 -60 15 -33 12 -71 70 -76 114 l-4
40 -1 -40 c-1 -23 5 -50 13 -62 8 -12 18 -41 21 -66 5 -34 2 -47 -12 -62 -18
-17 -19 -16 -32 46 l-15 64 -13 -45 c-8 -25 -14 -55 -14 -68 0 -13 -14 -40
-31 -61 -33 -41 -69 -143 -69 -194 l0 -32 -70 66 c-69 64 -70 66 -60 99 18 61
7 133 -26 175 -15 20 -16 20 -37 -6 -18 -22 -26 -25 -44 -18 -20 7 -23 5 -23
-16 0 -22 -3 -24 -31 -18 -28 5 -30 4 -23 -21 5 -22 3 -26 -15 -26 -18 0 -19
-3 -11 -26 15 -38 13 -44 -15 -44 -32 0 -32 -10 1 -41 23 -22 34 -24 117 -24
80 0 97 -3 130 -24 90 -56 157 -182 157 -296 l0 -64 34 20 35 20 40 -20 c22
-12 55 -21 73 -21 29 0 36 -6 58 -47 25 -47 78 -93 108 -93 17 0 106 90 97 98
-2 3 -25 -14 -50 -37 -44 -40 -46 -41 -74 -27 -31 16 -66 79 -57 102 3 8 13
14 22 14 13 0 14 3 4 15 -10 12 -9 15 4 15 14 0 72 25 85 36 2 2 -7 12 -20 22
-21 18 -22 22 -12 63 7 24 19 71 27 104 9 33 16 80 17 105 0 25 4 53 8 64 6
15 9 11 19 -22 9 -29 30 -57 74 -96 94 -85 104 -105 111 -216 3 -52 12 -114
21 -137 16 -45 98 -156 173 -234 l43 -45 -34 -16 -34 -17 5 -59 c5 -54 3 -61
-24 -93 -16 -19 -44 -58 -62 -87 -18 -29 -46 -61 -61 -72 l-28 -20 8 36 c5 19
17 42 27 49 10 8 13 15 6 15 -16 0 -53 -40 -53 -58 0 -29 -43 -112 -67 -127
-37 -25 -134 -56 -154 -50 -40 13 -31 38 34 100 35 33 76 79 91 102 47 71 55
233 12 241 -17 4 -76 -43 -76 -60 0 -4 9 -8 21 -8 18 0 20 -4 14 -47 -16 -113
-52 -197 -107 -250 l-29 -28 -19 25 c-16 20 -18 35 -13 76 9 85 -21 113 -86
80 -24 -13 -31 -13 -49 -1 l-20 15 21 49 c18 43 19 55 9 88 -16 53 -64 108
-86 100 -29 -11 -66 -108 -67 -173 -1 -78 13 -127 55 -194 l35 -55 -40 -3
c-26 -2 -45 2 -55 12 -18 18 -36 20 -50 6 -6 -6 -56 3 -143 26 -73 19 -140 34
-148 32 -25 -5 143 -158 215 -196 34 -18 84 -36 113 -39 33 -4 58 -13 71 -27
15 -17 18 -17 13 -3 -5 11 -2 17 6 18 32 1 86 10 116 18 25 7 33 6 33 -4 0 -7
7 -18 15 -25 9 -8 15 -8 15 -2 0 6 -5 12 -12 14 -6 2 -9 11 -5 20 4 12 25 18
70 23 56 6 70 4 108 -16 l44 -24 -60 -5 c-40 -4 -81 -17 -122 -38 -43 -22 -63
-28 -66 -19 -3 7 -6 5 -6 -5 -1 -25 -28 -22 -42 4 -12 22 -12 21 -26 -6 -9
-17 -20 -25 -29 -22 -8 3 -14 1 -14 -4 0 -18 29 -10 44 12 14 19 16 20 22 4 4
-11 0 -22 -12 -30 -15 -12 -10 -15 51 -25 93 -16 134 -7 218 49 40 26 83 51
96 55 22 7 19 9 -33 43 -30 20 -54 37 -52 39 2 2 32 -10 67 -25 100 -45 294
-106 313 -99 9 4 30 35 47 70 25 54 37 68 77 90 68 37 135 99 186 171 50 69
100 165 92 174 -9 8 -125 -55 -173 -95 -54 -43 -55 -30 -3 38 45 60 113 118
180 154 75 41 120 90 120 132 0 21 -3 23 -22 18 -77 -23 -164 -104 -248 -228
-25 -37 -48 -67 -51 -67 -13 0 13 138 33 175 35 65 95 127 157 162 74 41 139
99 182 162 43 62 67 76 154 90 58 8 75 15 98 41 15 17 27 35 27 40 0 6 -20 10
-45 10 -50 0 -103 -23 -155 -67 -28 -23 -31 -24 -22 -6 6 11 14 47 16 79 l5
59 -10 -55 c-16 -93 -62 -175 -136 -248 -38 -37 -83 -76 -102 -86 l-34 -19 26
34 c33 44 75 135 93 202 15 56 19 207 6 207 -13 0 -66 -60 -106 -119 -34 -50
-36 -58 -29 -100 12 -72 9 -173 -7 -202 -20 -35 -103 -139 -108 -134 -8 8 20
75 36 85 14 8 15 11 3 19 -36 24 -61 -19 -61 -104 0 -35 -5 -57 -14 -62 -8 -5
-18 -45 -25 -103 -7 -52 -13 -95 -14 -96 -1 -1 -28 47 -59 106 l-57 108 20 26
c27 34 39 25 39 -27 1 -38 2 -40 14 -24 14 18 31 105 23 114 -9 8 -64 -26 -85
-51 l-19 -25 -22 40 -22 39 21 35 c12 19 37 54 56 76 33 40 34 43 32 122 l-1
82 -7 -75 c-3 -41 -10 -83 -14 -92 -4 -9 -36 -35 -72 -57 l-63 -40 -50 57
c-69 78 -101 145 -113 237 -12 93 0 121 59 130 21 3 59 9 86 14 55 9 61 -1 15
-25 -86 -43 -130 -98 -120 -150 7 -37 24 -29 62 28 19 28 50 70 68 92 l34 40
-7 -37 c-8 -41 -8 -42 46 -25 35 10 42 9 62 -8 24 -22 50 -34 112 -54 22 -7
48 -24 58 -37 21 -26 37 -22 37 9 0 25 -54 143 -70 153 -6 3 -16 21 -24 39 -7
18 -27 48 -43 67 -51 58 -51 73 1 129 55 59 63 86 45 159 -7 31 -13 64 -11 74
1 11 -2 15 -9 11 -7 -4 -9 20 -4 82 8 107 -7 156 -64 205 -20 18 -53 53 -74
78 -21 25 -60 58 -85 73 -42 25 -57 28 -132 27 -47 0 -107 -7 -135 -16z m264
-187 c41 -4 97 -75 111 -140 12 -60 11 -65 -17 -106 -17 -24 -17 -24 0 -11 21
17 21 13 1 -28 -8 -17 -20 -29 -25 -26 -21 14 -6 -21 26 -61 42 -51 43 -59 10
-80 -14 -9 -25 -25 -25 -35 0 -11 -3 -18 -8 -17 -4 2 -27 -6 -50 -16 l-42 -19
22 -24 c12 -12 27 -23 34 -23 8 0 11 -13 7 -42 -7 -60 -40 -88 -101 -88 -26 0
-60 -7 -76 -15 -15 -8 -30 -15 -32 -15 -1 0 -4 19 -6 43 -3 39 -7 44 -53 72
-46 28 -80 59 -146 131 -15 16 -40 39 -57 52 -42 31 -63 118 -38 156 18 29 52
34 81 12 13 -9 28 -11 48 -5 44 12 118 49 155 77 28 20 40 23 76 18 23 -4 59
-16 79 -26 44 -24 47 -24 47 -6 0 27 -42 46 -103 46 -53 0 -58 2 -52 18 5 9
14 43 21 75 15 69 39 101 69 92 11 -4 31 -8 44 -9z m-134 -65 c-16 -47 -44
-100 -45 -86 -1 31 40 125 55 125 2 0 -2 -18 -10 -39z m-855 -293 c20 -45 24
-99 10 -133 l-8 -20 -7 20 c-4 11 -16 40 -26 64 -22 50 -23 65 -9 92 15 27 18
25 40 -23z m-57 -76 c20 -18 40 -53 51 -89 l7 -22 -50 20 c-62 26 -90 56 -98
103 l-6 37 39 -16 c21 -9 47 -23 57 -33z m-23 -91 c47 -21 36 -31 -35 -31 -32
0 -51 6 -72 25 l-28 24 46 1 c26 0 66 -8 89 -19z m356 -50 c-9 -16 -16 -52
-16 -79 0 -40 6 -57 30 -87 39 -49 42 -102 6 -111 -13 -3 -34 -17 -47 -30 -12
-13 -25 -24 -28 -24 -3 0 -7 25 -8 56 -1 31 -10 77 -22 103 -27 63 -15 107 47
173 48 52 65 51 38 -1z m984 -214 c0 -24 -3 -28 -10 -17 -13 20 -13 63 0 55 6
-3 10 -21 10 -38z m-950 -607 c14 -14 20 -33 20 -66 0 -42 -1 -45 -22 -38 -73
22 -75 26 -62 93 8 37 34 41 64 11z m77 -301 c24 -17 43 -32 41 -34 -6 -6 -98
19 -98 26 0 5 -16 33 -35 63 -46 73 -44 82 6 23 22 -26 61 -61 86 -78z"/>
<path d="M2435 4690 c13 -21 90 -63 119 -66 30 -2 30 -2 8 15 -16 11 -20 23
-16 41 5 21 4 22 -6 8 -13 -22 -36 -23 -74 -3 -34 18 -39 19 -31 5z"/>
<path d="M2116 4651 c-3 -5 4 -11 15 -14 18 -5 20 -11 14 -44 -5 -33 -2 -42
17 -58 l23 -20 -17 21 c-24 28 -23 54 2 54 23 0 24 4 9 33 -18 34 -51 49 -63
28z"/>
<path d="M2643 4530 c-13 -5 -23 -14 -23 -20 0 -6 11 -3 25 6 14 9 25 18 25
20 0 5 0 5 -27 -6z"/>
<path d="M5245 5042 c-78 -27 -141 -68 -222 -145 -126 -120 -184 -204 -442
-637 -67 -113 -137 -226 -156 -252 l-35 -47 -113 6 c-125 6 -168 -2 -217 -43
-41 -35 -55 -83 -37 -126 20 -47 59 -62 150 -56 84 6 121 22 197 88 l56 48
264 -88 c364 -121 508 -151 727 -151 167 0 262 28 359 107 47 38 104 118 104
146 0 30 -14 20 -43 -32 -50 -92 -150 -137 -328 -147 -188 -10 -443 38 -799
151 -96 31 -178 56 -182 56 -4 0 -18 4 -32 10 l-26 10 48 67 c62 89 141 216
237 383 203 353 346 530 487 601 107 54 201 49 254 -13 26 -32 27 -35 8 -125
-5 -27 -3 -33 10 -33 37 0 48 103 17 160 -39 74 -169 102 -286 62z m-926
-1139 c23 -9 23 -10 -29 -61 -82 -80 -178 -104 -231 -56 -37 33 -19 96 34 120
35 16 182 14 226 -3z"/>
<path d="M2891 4903 c-30 -36 -97 -180 -88 -189 2 -3 15 21 27 53 13 32 40 84
62 116 44 65 43 74 -1 20z"/>
<path d="M1901 4806 c-1 -20 9 -38 36 -62 20 -19 43 -34 50 -34 22 0 14 9 -27
30 -27 14 -42 29 -46 48 -10 45 -12 48 -13 18z"/>
<path d="M5513 4698 c-44 -48 -37 -98 12 -98 26 0 75 52 75 79 0 43 -54 55
-87 19z"/>
<path d="M5052 4519 c-91 -46 -221 -233 -238 -345 -9 -63 9 -117 49 -146 26
-19 45 -23 102 -23 59 0 79 5 124 30 29 16 74 53 100 81 l46 52 -3 -49 c-5
-63 15 -94 68 -110 70 -21 142 16 208 106 l21 30 1 -41 c0 -73 56 -115 130
-99 17 4 54 29 84 56 l54 49 6 -35 c17 -88 139 -97 227 -18 39 35 129 169 129
191 0 26 -19 9 -55 -50 -87 -141 -173 -200 -218 -150 -35 39 -16 94 113 322
49 88 90 162 90 165 0 4 -19 5 -42 3 -41 -3 -45 -6 -73 -58 l-30 -55 -6 44
c-3 26 -13 49 -24 57 -27 20 -100 17 -144 -6 -63 -32 -147 -134 -202 -246 -57
-114 -106 -180 -164 -218 -44 -29 -63 -32 -90 -12 -40 29 -11 110 128 360 37
65 67 122 67 127 0 5 -17 9 -38 9 l-38 0 -75 -135 c-41 -74 -79 -135 -85 -135
-6 0 -21 -18 -33 -41 -13 -22 -50 -70 -83 -105 -50 -53 -70 -67 -114 -80 -100
-29 -164 18 -149 109 13 79 25 90 105 103 124 21 217 98 227 187 5 39 2 49
-20 71 -33 33 -94 35 -155 5z m128 -34 c18 -49 -39 -138 -112 -176 -36 -18
-119 -41 -126 -34 -8 7 82 131 132 183 55 57 92 66 106 27z m730 -1 c26 -66
-66 -277 -164 -380 -64 -67 -100 -81 -126 -49 -21 25 -6 126 29 201 88 188
230 311 261 228z"/>
<path d="M3135 4489 c-4 -5 -4 -21 -1 -35 5 -20 3 -24 -18 -24 -48 0 -60 -61
-14 -73 21 -6 21 -7 4 -26 -27 -30 -14 -54 24 -46 27 6 30 4 30 -19 0 -33 16
-41 45 -22 22 15 24 14 28 -7 l4 -22 2 23 c1 18 5 21 24 17 35 -9 54 18 40 56
-9 23 -9 29 2 29 20 0 45 29 45 51 0 14 -9 21 -30 26 -26 5 -30 10 -30 39 0
31 -3 34 -30 34 -16 0 -33 -7 -38 -15 -7 -14 -11 -13 -27 5 -20 22 -50 26 -60
9z"/>
<path d="M1652 4078 c-52 -80 -62 -107 -63 -171 l0 -52 -18 55 c-25 79 -45
113 -87 150 -30 26 -111 70 -130 70 -8 0 -4 -97 7 -155 6 -32 19 -78 30 -100
20 -43 85 -117 118 -135 11 -5 -4 14 -34 43 -29 30 -62 72 -73 94 -30 57 -55
222 -33 209 5 -4 11 -1 13 5 5 15 46 -3 87 -36 38 -33 76 -103 96 -182 16 -61
20 -133 8 -133 -10 0 -64 66 -90 110 -11 19 -37 76 -59 127 -21 51 -40 91 -41
89 -5 -4 60 -163 90 -221 11 -22 32 -55 48 -74 15 -19 25 -39 22 -44 -3 -6 -1
-7 5 -3 5 3 12 1 14 -6 8 -22 28 3 28 35 l0 32 20 -30 c25 -38 25 -70 0 -102
-11 -15 -18 -29 -14 -32 7 -8 43 39 50 67 4 14 -4 51 -19 93 l-26 69 31 35
c16 19 34 32 39 30 17 -11 86 15 110 41 l24 26 -42 -21 c-58 -29 -72 -26 -39
7 25 27 26 32 17 75 -12 53 -31 97 -41 97 -4 0 -26 -28 -48 -62z"/>
<path d="M1551 3565 c-1 -51 18 -100 54 -141 l36 -39 -30 51 c-17 28 -37 75
-45 105 -11 42 -15 47 -15 24z"/>
<path d="M3235 3155 l0 -165 25 0 25 0 -3 102 c-2 57 -2 101 1 98 3 -3 19 -41
37 -85 35 -84 55 -115 76 -115 6 0 29 44 49 98 21 53 42 101 46 106 12 13 12
-130 0 -172 l-10 -32 45 0 c42 0 44 1 33 21 -7 14 -10 71 -7 166 l3 144 -30
-3 c-28 -3 -32 -8 -70 -115 -22 -61 -42 -114 -45 -117 -4 -3 -33 49 -65 114
-52 106 -62 120 -85 120 l-25 0 0 -165z"/>
<path d="M3790 3207 c-19 -61 -46 -136 -61 -164 l-26 -53 34 0 c28 0 33 3 33
24 0 14 4 36 10 50 8 23 15 26 60 26 46 0 51 -3 61 -27 6 -16 8 -38 6 -50 -4
-21 -1 -23 44 -23 l48 0 -23 48 c-13 26 -43 100 -67 165 -36 99 -46 117 -63
117 -18 0 -26 -17 -56 -113z m71 -42 l17 -45 -39 0 c-21 0 -39 1 -39 3 0 16
34 97 38 92 4 -3 14 -26 23 -50z"/>
<path d="M4145 3155 l0 -165 36 0 35 0 -4 58 c-7 98 -2 102 46 34 50 -71 76
-92 114 -92 28 0 28 0 -31 80 -33 44 -62 89 -66 100 -6 20 27 71 74 114 30 27
26 36 -17 36 -36 0 -38 -2 -35 -27 4 -23 -5 -37 -42 -73 l-47 -45 4 73 4 72
-36 0 -35 0 0 -165z"/>
<path d="M4545 3155 l0 -165 103 0 c107 0 117 5 89 44 -12 16 -14 16 -26 2 -9
-10 -29 -16 -57 -16 l-44 0 0 61 0 62 55 -6 c53 -5 55 -5 55 18 0 23 -2 23
-56 18 l-55 -6 3 59 3 59 38 3 c26 2 45 -2 58 -14 22 -20 25 -18 34 19 l7 27
-103 0 -104 0 0 -165z"/>
<path d="M4956 3299 c-41 -32 -56 -71 -56 -143 0 -113 43 -166 135 -166 97 0
140 50 139 165 0 113 -45 165 -142 165 -35 0 -57 -6 -76 -21z m112 -45 c41
-27 71 -137 54 -199 -8 -27 -12 -30 -50 -29 -26 0 -50 8 -63 20 -47 41 -82
171 -59 214 10 19 17 21 53 16 23 -4 53 -14 65 -22z"/>
<path d="M5328 3293 c10 -16 41 -88 67 -160 35 -96 54 -134 67 -139 11 -3 21
-4 22 -2 2 1 22 59 46 128 23 69 51 140 61 158 11 18 19 35 19 38 0 2 -16 4
-35 4 -33 0 -35 -2 -29 -25 4 -15 0 -44 -9 -68 -9 -23 -26 -69 -38 -102 l-22
-59 -34 94 c-19 52 -35 110 -35 128 0 32 0 32 -50 32 l-49 0 19 -27z"/>
<path d="M5761 3288 c5 -18 9 -78 9 -133 0 -55 -4 -115 -9 -133 l-10 -32 109
0 108 0 -11 30 c-11 28 -12 29 -34 15 -12 -8 -38 -15 -58 -15 l-35 0 0 61 0
62 50 -6 c48 -6 50 -5 50 18 0 23 -2 24 -50 18 l-50 -6 0 62 0 61 35 0 c20 0
46 -7 59 -15 23 -15 24 -15 34 15 l11 30 -109 0 -109 0 10 -32z"/>
<path d="M6115 3156 l0 -166 43 0 c40 0 42 1 32 20 -6 11 -10 48 -8 82 l3 62
37 -60 c53 -86 73 -104 114 -104 l35 0 -39 48 c-59 71 -87 122 -69 122 24 0
57 49 57 85 0 52 -29 69 -124 73 l-81 4 0 -166z m143 107 c17 -23 15 -36 -9
-67 -12 -15 -30 -26 -45 -26 -23 0 -24 3 -24 61 l0 62 33 -7 c17 -3 38 -14 45
-23z"/>
<path d="M6548 3304 c-30 -16 -44 -51 -34 -88 3 -14 41 -53 86 -90 85 -71 103
-106 55 -106 -30 0 -76 22 -95 45 -12 14 -15 14 -37 -6 -30 -29 -29 -35 9 -55
46 -24 140 -15 173 16 24 23 31 52 19 83 -3 9 -39 41 -80 73 -66 50 -94 79
-94 98 0 16 70 3 102 -19 l36 -24 13 31 c11 27 10 32 -6 44 -25 18 -113 17
-147 -2z"/>
<path d="M1885 3050 c-3 -5 -2 -10 4 -10 5 0 13 5 16 10 3 6 2 10 -4 10 -5 0
-13 -4 -16 -10z"/>
<path d="M1980 3048 c0 -4 14 -8 30 -8 17 0 30 2 30 4 0 2 -13 6 -30 8 -16 3
-30 1 -30 -4z"/>
</g>
</svg>
