<svg xmlns="http://www.w3.org/2000/svg" version="1.1" xmlns:xlink="http://www.w3.org/1999/xlink" xmlns:svgjs="http://svgjs.dev/svgjs" width="2000" height="545" viewBox="0 0 2000 545"><g transform="matrix(1,0,0,1,-1.2121212121212466,-2.3090312325233526)"><svg viewBox="0 0 396 108" data-background-color="#f3e8e8" preserveAspectRatio="xMidYMid meet" height="545" width="2000" xmlns="http://www.w3.org/2000/svg" xmlns:xlink="http://www.w3.org/1999/xlink"><g id="tight-bounds" transform="matrix(1,0,0,1,0.2400000000000091,0.4575694919495845)"><svg viewBox="0 0 395.52 107.08486101610086" height="107.08486101610086" width="395.52"><g><svg viewBox="0 0 492.69655917880584 133.39487905231982" height="107.08486101610086" width="395.52"><g transform="matrix(1,0,0,1,97.17655917880583,41.22095384007896)"><svg viewBox="0 0 395.52 50.95297137216189" height="50.95297137216189" width="395.52"><g id="textblocktransform"><svg viewBox="0 0 395.52 50.95297137216189" height="50.95297137216189" width="395.52" id="textblock"><g><svg viewBox="0 0 395.52 50.95297137216189" height="50.95297137216189" width="395.52"><g transform="matrix(1,0,0,1,0,0)"><svg width="395.52" viewBox="2.85 -38.5 303.87 39.15" height="50.95297137216189" data-palette-color="#074183"><path d="M3-38L9.85-38.5Q9.7-36.75 9.63-34.9 9.55-33.05 9.53-30.83 9.5-28.6 9.47-25.85 9.45-23.1 9.45-19.55L9.45-19.55Q9.45-16.25 9.45-13.58 9.45-10.9 9.47-8.6 9.5-6.3 9.53-4.23 9.55-2.15 9.6 0L9.6 0 2.85 0Q2.9-2.6 2.98-4.6 3.05-6.6 3.1-8.78 3.15-10.95 3.2-13.73 3.25-16.5 3.25-20.7L3.25-20.7Q3.25-24.95 3.2-29.23 3.15-33.5 3-38L3-38ZM33.55-11.3L20.85-11.3Q21.1-7.5 22.4-5.98 23.7-4.45 26.35-4.45L26.35-4.45Q28.35-4.45 30.12-5.05 31.9-5.65 33.05-6.15L33.05-6.15 33.05-2Q31.45-0.55 29.05 0.03 26.65 0.6 24.4 0.6L24.4 0.6Q22.55 0.6 20.75 0.15 18.95-0.3 17.52-1.58 16.1-2.85 15.22-5.13 14.35-7.4 14.35-11.1L14.35-11.1Q14.35-14.75 15.25-17.48 16.15-20.2 17.72-22 19.3-23.8 21.42-24.7 23.55-25.6 26.05-25.6L26.05-25.6Q28.6-25.6 30.22-24.73 31.85-23.85 32.77-22.5 33.7-21.15 34.02-19.5 34.35-17.85 34.35-16.3L34.35-16.3Q34.35-14.7 34.12-13.4 33.9-12.1 33.55-11.3L33.55-11.3ZM25.15-21.95L25.15-21.95Q23.2-21.95 22.12-20.28 21.05-18.6 20.85-15L20.85-15 29.1-15Q29.1-15.2 29.12-15.5 29.15-15.8 29.15-16.05L29.15-16.05Q29.15-16.85 29-17.88 28.85-18.9 28.4-19.8 27.95-20.7 27.17-21.33 26.4-21.95 25.15-21.95ZM38.95-25L45.8-25Q45.65-23.85 45.57-22.8 45.5-21.75 45.47-20.48 45.45-19.2 45.42-17.53 45.4-15.85 45.4-13.55L45.4-13.55Q45.4-11.25 45.4-9.4 45.4-7.55 45.42-5.95 45.45-4.35 45.47-2.93 45.5-1.5 45.55 0L45.55 0 38.8 0Q38.85-1.85 38.92-3.25 39-4.65 39.05-6.23 39.1-7.8 39.15-9.78 39.2-11.75 39.2-14.7L39.2-14.7Q39.2-17.4 39.15-19.78 39.1-22.15 38.95-25L38.95-25ZM38.8-33.15L38.8-33.15Q38.8-34.55 39.77-35.58 40.75-36.6 42.45-36.6L42.45-36.6Q43.9-36.6 44.97-35.75 46.05-34.9 46.05-33.45L46.05-33.45Q46.05-32.05 45.02-31.1 44-30.15 42.3-30.15L42.3-30.15Q40.85-30.15 39.82-30.93 38.8-31.7 38.8-33.15ZM56.84 0.6L56.84 0.6Q53.69 0.6 51.77-1.55 49.84-3.7 49.84-7.15L49.84-7.15Q49.84-10.75 51.94-12.9 54.04-15.05 57.54-15.05L57.54-15.05Q58.99-15.05 60.44-14.65 61.89-14.25 63.04-13.5L63.04-13.5 63.04-16.3Q63.04-18.65 62.14-19.6 61.24-20.55 59.04-20.55L59.04-20.55Q57.54-20.55 55.87-20.18 54.19-19.8 53.19-19.25L53.19-19.25 51.64-24.05Q52.39-24.35 53.44-24.65 54.49-24.95 55.69-25.15 56.89-25.35 58.14-25.48 59.39-25.6 60.44-25.6L60.44-25.6Q69.24-25.6 69.24-17L69.24-17Q69.24-16.25 69.17-14.8 69.09-13.35 69.02-11.78 68.94-10.2 68.87-8.85 68.79-7.5 68.79-6.95L68.79-6.95Q68.79-5.8 69.14-5.3 69.49-4.8 70.44-4.8L70.44-4.8Q71.09-4.8 71.94-5L71.94-5 71.14-0.2Q70.34 0.05 69.67 0.2 68.99 0.35 68.29 0.35L68.29 0.35Q66.44 0.35 65.19-0.68 63.94-1.7 63.69-3.6L63.69-3.6Q62.69-1.65 60.89-0.53 59.09 0.6 56.84 0.6ZM59.24-4L59.24-4Q60.84-4 61.97-5.15 63.09-6.3 63.09-8.05L63.09-8.05Q63.09-9.55 62.19-10.45 61.29-11.35 59.69-11.35L59.69-11.35Q58.04-11.35 57.09-10.35 56.14-9.35 56.14-7.6L56.14-7.6Q56.14-5.95 56.97-4.98 57.79-4 59.24-4ZM122.24-0.6L115.24 0.6Q114.89-0.55 114.81-1.9 114.74-3.25 114.74-4.25L114.74-4.25Q114.74-5.65 114.81-7.13 114.89-8.6 114.96-9.98 115.04-11.35 115.11-12.58 115.19-13.8 115.19-14.7L115.19-14.7Q115.19-17.65 114.21-18.75 113.24-19.85 111.49-19.85L111.49-19.85Q110.19-19.85 109.14-19.45 108.09-19.05 107.24-18.45L107.24-18.45Q107.39-17.45 107.39-16.3L107.39-16.3Q107.39-15.6 107.36-14.25 107.34-12.9 107.29-11.38 107.24-9.85 107.21-8.45 107.19-7.05 107.19-6.3L107.19-6.3Q107.19-4.65 107.39-3.13 107.59-1.6 108.19-0.6L108.19-0.6 101.14 0.6Q100.79-0.55 100.71-1.9 100.64-3.25 100.64-4.25L100.64-4.25Q100.64-5.65 100.71-7.13 100.79-8.6 100.86-9.98 100.94-11.35 101.01-12.58 101.09-13.8 101.09-14.7L101.09-14.7Q101.09-17.65 100.11-18.75 99.14-19.85 97.39-19.85L97.39-19.85Q96.09-19.85 95.01-19.43 93.94-19 93.09-18.4L93.09-18.4Q93.19-17.4 93.19-16.25 93.19-15.1 93.19-13.55L93.19-13.55Q93.19-11.25 93.19-9.4 93.19-7.55 93.21-5.95 93.24-4.35 93.26-2.93 93.29-1.5 93.34 0L93.34 0 86.54 0Q86.59-1.2 86.64-2.7 86.69-4.2 86.76-5.88 86.84-7.55 86.89-9.33 86.94-11.1 86.94-12.75L86.94-12.75Q86.94-14.7 86.84-15.93 86.74-17.15 86.44-18.07 86.14-19 85.64-19.78 85.14-20.55 84.34-21.55L84.34-21.55 90.19-25.6Q91.19-24.15 91.79-23.08 92.39-22 92.69-20.85L92.69-20.85Q93.44-21.65 94.34-22.5 95.24-23.35 96.24-24.05 97.24-24.75 98.39-25.18 99.54-25.6 100.84-25.6L100.84-25.6Q102.69-25.6 104.34-24.55 105.99-23.5 106.79-20.85L106.79-20.85Q107.54-21.65 108.44-22.5 109.34-23.35 110.34-24.05 111.34-24.75 112.49-25.18 113.64-25.6 114.94-25.6L114.94-25.6Q116.19-25.6 117.36-25.15 118.54-24.7 119.44-23.65 120.34-22.6 120.89-20.8 121.44-19 121.44-16.3L121.44-16.3Q121.44-15.6 121.41-14.25 121.39-12.9 121.34-11.38 121.29-9.85 121.26-8.45 121.24-7.05 121.24-6.3L121.24-6.3Q121.24-4.65 121.44-3.13 121.64-1.6 122.24-0.6L122.24-0.6ZM132.24 0.6L132.24 0.6Q129.09 0.6 127.16-1.55 125.24-3.7 125.24-7.15L125.24-7.15Q125.24-10.75 127.34-12.9 129.44-15.05 132.94-15.05L132.94-15.05Q134.39-15.05 135.84-14.65 137.29-14.25 138.44-13.5L138.44-13.5 138.44-16.3Q138.44-18.65 137.54-19.6 136.64-20.55 134.44-20.55L134.44-20.55Q132.94-20.55 131.26-20.18 129.59-19.8 128.59-19.25L128.59-19.25 127.04-24.05Q127.79-24.35 128.84-24.65 129.89-24.95 131.09-25.15 132.29-25.35 133.54-25.48 134.79-25.6 135.84-25.6L135.84-25.6Q144.64-25.6 144.64-17L144.64-17Q144.64-16.25 144.56-14.8 144.49-13.35 144.41-11.78 144.34-10.2 144.26-8.85 144.19-7.5 144.19-6.95L144.19-6.95Q144.19-5.8 144.54-5.3 144.89-4.8 145.84-4.8L145.84-4.8Q146.49-4.8 147.34-5L147.34-5 146.54-0.2Q145.74 0.05 145.06 0.2 144.39 0.35 143.69 0.35L143.69 0.35Q141.84 0.35 140.59-0.68 139.34-1.7 139.09-3.6L139.09-3.6Q138.09-1.65 136.29-0.53 134.49 0.6 132.24 0.6ZM134.64-4L134.64-4Q136.24-4 137.36-5.15 138.49-6.3 138.49-8.05L138.49-8.05Q138.49-9.55 137.59-10.45 136.69-11.35 135.09-11.35L135.09-11.35Q133.44-11.35 132.49-10.35 131.54-9.35 131.54-7.6L131.54-7.6Q131.54-5.95 132.36-4.98 133.19-4 134.64-4ZM151.08-38L157.93-38.5Q157.78-36.75 157.71-34.9 157.63-33.05 157.61-30.83 157.58-28.6 157.56-25.85 157.53-23.1 157.53-19.55L157.53-19.55 157.53-15.4Q160.23-18.4 162.33-20.8 164.43-23.2 166.53-25.6L166.53-25.6 173.33-25Q172.18-23.95 171.13-23.03 170.08-22.1 168.86-20.98 167.63-19.85 166.16-18.43 164.68-17 162.73-14.95L162.73-14.95Q166.93-14.75 169.41-12.75 171.88-10.75 171.88-6.35L171.88-6.35Q171.88-5.05 171.71-3.38 171.53-1.7 171.43 0L171.43 0 165.03 0.65Q165.23-1.35 165.41-3.05 165.58-4.75 165.58-6.15L165.58-6.15Q165.58-8.85 164.53-10.3 163.48-11.75 160.53-11.75L160.53-11.75Q159.08-11.75 157.53-11.45L157.53-11.45Q157.53-8.25 157.56-5.5 157.58-2.75 157.68 0L157.68 0 150.93 0Q150.98-2.6 151.06-4.58 151.13-6.55 151.18-8.75 151.23-10.95 151.28-13.83 151.33-16.7 151.33-21.05L151.33-21.05Q151.33-24.95 151.28-29.23 151.23-33.5 151.08-38L151.08-38ZM194.68-11.3L181.98-11.3Q182.23-7.5 183.53-5.98 184.83-4.45 187.48-4.45L187.48-4.45Q189.48-4.45 191.26-5.05 193.03-5.65 194.18-6.15L194.18-6.15 194.18-2Q192.58-0.55 190.18 0.03 187.78 0.6 185.53 0.6L185.53 0.6Q183.68 0.6 181.88 0.15 180.08-0.3 178.66-1.58 177.23-2.85 176.36-5.13 175.48-7.4 175.48-11.1L175.48-11.1Q175.48-14.75 176.38-17.48 177.28-20.2 178.86-22 180.43-23.8 182.56-24.7 184.68-25.6 187.18-25.6L187.18-25.6Q189.73-25.6 191.36-24.73 192.98-23.85 193.91-22.5 194.83-21.15 195.16-19.5 195.48-17.85 195.48-16.3L195.48-16.3Q195.48-14.7 195.26-13.4 195.03-12.1 194.68-11.3L194.68-11.3ZM186.28-21.95L186.28-21.95Q184.33-21.95 183.26-20.28 182.18-18.6 181.98-15L181.98-15 190.23-15Q190.23-15.2 190.26-15.5 190.28-15.8 190.28-16.05L190.28-16.05Q190.28-16.85 190.13-17.88 189.98-18.9 189.53-19.8 189.08-20.7 188.31-21.33 187.53-21.95 186.28-21.95ZM210.08-21.5L210.08-21.5Q207.73-21.5 206.48-19.03 205.23-16.55 205.23-12.25L205.23-12.25Q205.23-8.05 206.25-5.73 207.28-3.4 209.83-3.4L209.83-3.4Q212.18-3.4 213.48-5.98 214.78-8.55 214.78-12.85L214.78-12.85Q214.78-14.85 214.58-16.45 214.38-18.05 213.85-19.18 213.33-20.3 212.4-20.9 211.48-21.5 210.08-21.5ZM198.68-12.1L198.68-12.1Q198.68-15.2 199.53-17.7 200.38-20.2 201.9-21.95 203.43-23.7 205.63-24.65 207.83-25.6 210.53-25.6L210.53-25.6Q215.63-25.6 218.45-22.35 221.28-19.1 221.28-13.25L221.28-13.25Q221.28-10.1 220.43-7.55 219.58-5 218.03-3.18 216.48-1.35 214.3-0.38 212.13 0.6 209.48 0.6L209.48 0.6Q206.98 0.6 204.98-0.3 202.98-1.2 201.58-2.85 200.18-4.5 199.43-6.85 198.68-9.2 198.68-12.1ZM240.73-25L247.18-25.6Q245.28-18.5 243.03-12.33 240.78-6.15 238.03 0L238.03 0 231.98 0.6Q229.38-5.55 227.25-11.73 225.13-17.9 223.33-25L223.33-25 229.78-25.6Q230.83-20.45 232.1-15.45 233.38-10.45 234.98-5.65L234.98-5.65Q236.73-10.4 238.15-15.13 239.58-19.85 240.73-25L240.73-25ZM268.12-11.3L255.42-11.3Q255.67-7.5 256.97-5.98 258.27-4.45 260.92-4.45L260.92-4.45Q262.92-4.45 264.7-5.05 266.47-5.65 267.62-6.15L267.62-6.15 267.62-2Q266.02-0.55 263.62 0.03 261.22 0.6 258.97 0.6L258.97 0.6Q257.12 0.6 255.32 0.15 253.52-0.3 252.1-1.58 250.67-2.85 249.8-5.13 248.92-7.4 248.92-11.1L248.92-11.1Q248.92-14.75 249.82-17.48 250.72-20.2 252.3-22 253.87-23.8 256-24.7 258.12-25.6 260.62-25.6L260.62-25.6Q263.17-25.6 264.8-24.73 266.42-23.85 267.35-22.5 268.27-21.15 268.6-19.5 268.92-17.85 268.92-16.3L268.92-16.3Q268.92-14.7 268.7-13.4 268.47-12.1 268.12-11.3L268.12-11.3ZM259.72-21.95L259.72-21.95Q257.77-21.95 256.7-20.28 255.62-18.6 255.42-15L255.42-15 263.67-15Q263.67-15.2 263.7-15.5 263.72-15.8 263.72-16.05L263.72-16.05Q263.72-16.85 263.57-17.88 263.42-18.9 262.97-19.8 262.52-20.7 261.75-21.33 260.97-21.95 259.72-21.95ZM271.52-21.85L277.37-25.9Q278.42-24.25 279.02-23.03 279.62-21.8 279.87-20.45L279.87-20.45Q280.37-21.2 281.12-22.08 281.87-22.95 282.82-23.73 283.77-24.5 284.92-25.1 286.07-25.7 287.37-25.9L287.37-25.9 287.82-18.8Q285.37-18.8 283.27-18.38 281.17-17.95 280.27-16.95L280.27-16.95Q280.32-16 280.32-14.88 280.32-13.75 280.32-12.35L280.32-12.35Q280.32-10.75 280.37-8.93 280.42-7.1 280.5-5.43 280.57-3.75 280.67-2.3 280.77-0.85 280.87 0L280.87 0 273.82 0Q273.87-1.05 273.92-2.45 273.97-3.85 274.02-5.35 274.07-6.85 274.1-8.43 274.12-10 274.12-11.45L274.12-11.45Q274.12-13.75 274.02-15.23 273.92-16.7 273.62-17.78 273.32-18.85 272.82-19.75 272.32-20.65 271.52-21.85L271.52-21.85ZM298.87-4.7L298.87-4.7Q300.27-4.7 300.87-5.25 301.47-5.8 301.47-6.8L301.47-6.8Q301.47-7.45 301.24-7.9 301.02-8.35 300.54-8.7 300.07-9.05 299.32-9.38 298.57-9.7 297.52-10.1L297.52-10.1Q296.32-10.55 295.09-11.1 293.87-11.65 292.89-12.5 291.92-13.35 291.32-14.7 290.72-16.05 290.72-18.1L290.72-18.1Q290.72-20.5 291.64-21.98 292.57-23.45 293.92-24.25 295.27-25.05 296.82-25.33 298.37-25.6 299.67-25.6L299.67-25.6Q301.12-25.6 302.82-25.35 304.52-25.1 305.67-24.65L305.67-24.65 305.67-19.35Q304.82-19.65 303.87-19.88 302.92-20.1 302.02-20.25 301.12-20.4 300.32-20.48 299.52-20.55 299.02-20.55L299.02-20.55Q295.82-20.55 295.82-18.35L295.82-18.35Q295.82-16.8 297.22-16.03 298.62-15.25 300.67-14.5L300.67-14.5Q301.92-14.05 303.02-13.48 304.12-12.9 304.94-12.03 305.77-11.15 306.24-9.85 306.72-8.55 306.72-6.7L306.72-6.7Q306.72-2.9 304.62-1.15 302.52 0.6 299.17 0.6L299.17 0.6Q297.37 0.6 295.22 0.1 293.07-0.4 290.97-1.45L290.97-1.45 290.77-7.1Q291.42-6.65 292.42-6.23 293.42-5.8 294.57-5.48 295.72-5.15 296.84-4.93 297.97-4.7 298.87-4.7Z" opacity="1" transform="matrix(1,0,0,1,0,0)" fill="#074183" class="wordmark-text-0" data-fill-palette-color="primary" id="text-0"></path></svg></g></svg></g></svg></g></svg></g><g><svg viewBox="0 0 85.14778550915133 133.39487905231982" height="133.39487905231982" width="85.14778550915133"><g><svg xmlns="http://www.w3.org/2000/svg" xmlns:xlink="http://www.w3.org/1999/xlink" version="1.1" x="0" y="0" viewBox="10.997711928381696 2.497 30.004576143236605 47.006" enable-background="new 0 0 52 52" xml:space="preserve" height="133.39487905231982" width="85.14778550915133" class="icon-icon-0" data-fill-palette-color="accent" id="icon-0"><g fill="#a3264f" data-fill-palette-color="accent"><path d="M36.015 17.267C39.765 15.307 41.415 13.557 40.915 12.027 40.365 10.347 37.685 10.347 36.805 10.347 35.695 10.347 34.355 10.467 32.875 10.697 34.185 6.097 34.035 3.417 32.435 2.707 32.195 2.607 31.945 2.557 31.685 2.557 29.905 2.557 27.765 5.107 26.045 7.687 24.345 5.077 22.215 2.497 20.435 2.497 20.185 2.497 19.935 2.547 19.705 2.647 18.215 3.287 17.965 5.667 18.955 9.727 14.895 8.737 12.405 8.917 11.725 10.387 11.055 11.847 12.485 13.777 15.985 16.137 12.235 18.097 10.585 19.857 11.085 21.387 11.635 23.067 14.315 23.067 15.195 23.067 16.305 23.067 17.645 22.947 19.125 22.717 17.815 27.307 17.965 29.987 19.575 30.697 19.805 30.797 20.055 30.857 20.315 30.857 21.767 30.857 23.465 29.153 24.97 27.125L24.986 39.075C23.62 37.387 21.54 36.018 18.575 36.205L18.697 38.2C23.307 37.911 24.767 42.596 24.992 43.443L25 49.503 27 49.5 26.97 27.19C28.455 29.217 30.125 30.907 31.565 30.907 31.825 30.907 32.065 30.857 32.295 30.757 33.785 30.117 34.035 27.737 33.045 23.677 34.745 24.097 36.205 24.307 37.335 24.307 38.885 24.307 39.875 23.877 40.275 23.017 40.945 21.557 39.515 19.627 36.015 17.267M30.725 18.807C29.885 20.627 28.035 21.807 25.995 21.807 25.265 21.807 24.545 21.657 23.875 21.357A5.1 5.1 0 0 1 21.135 18.477C20.655 17.217 20.705 15.837 21.275 14.597 22.115 12.777 23.965 11.607 26.005 11.607 26.735 11.607 27.455 11.757 28.125 12.047A5.13 5.13 0 0 1 30.865 14.927C31.345 16.197 31.295 17.577 30.725 18.807" fill="#a3264f" data-fill-palette-color="accent"></path></g></svg></g></svg></g></svg></g><defs></defs></svg><rect width="395.52" height="107.08486101610086" fill="none" stroke="none" visibility="hidden"></rect></g></svg></g></svg>