<svg xmlns="http://www.w3.org/2000/svg" version="1.1" xmlns:xlink="http://www.w3.org/1999/xlink" xmlns:svgjs="http://svgjs.dev/svgjs" width="2000" height="444" viewBox="0 0 2000 444"><g transform="matrix(1,0,0,1,-1.2121212121212466,-0.3472968730395962)"><svg viewBox="0 0 396 88" data-background-color="#f9f6ed" preserveAspectRatio="xMidYMid meet" height="444" width="2000" xmlns="http://www.w3.org/2000/svg" xmlns:xlink="http://www.w3.org/1999/xlink"><g id="tight-bounds" transform="matrix(1,0,0,1,0.2400000000000091,0.06883361447631842)"><svg viewBox="0 0 395.52 87.86233277104738" height="87.86233277104738" width="395.52"><g><svg viewBox="0 0 395.52000000000004 87.86233277104739" height="87.86233277104738" width="395.52"><g><svg viewBox="0 0 395.52000000000004 87.86233277104739" height="87.86233277104739" width="395.52000000000004"><g id="textblocktransform"><svg viewBox="0 0 395.52000000000004 87.86233277104739" height="87.86233277104739" width="395.52000000000004" id="textblock"><g><svg viewBox="0 0 395.52000000000004 87.86233277104739" height="87.86233277104739" width="395.52000000000004"><rect width="395.52000000000004" height="87.86233277104739" x="0" y="0" opacity="1" fill="#ffffff" data-fill-palette-color="tertiary"></rect><g transform="matrix(1,0,0,1,23.607599999999998,23.607599999999998)"><svg width="348.30480000000006" viewBox="4.1 -37.6 326.02 38.050000000000004" height="40.647132771047396" data-palette-color="#f9f6ed"><path d="M10.1 0.3L10.1 0.3Q8.1 0.3 6.78-0.45 5.45-1.2 4.78-2.68 4.1-4.15 4.1-6.3L4.1-6.3 4.1-36.5Q4.1-37.05 4.53-37.33 4.95-37.6 6.05-37.6L6.05-37.6 6.45-37.6Q7.55-37.6 7.98-37.33 8.4-37.05 8.4-36.5L8.4-36.5 8.4-6.3Q8.4-4.6 8.93-4 9.45-3.4 10.75-3.4L10.75-3.4Q11.9-3.4 12.4-3.65 12.9-3.9 13.25-3.9L13.25-3.9Q13.5-3.9 13.68-3.58 13.85-3.25 13.93-2.8 14-2.35 14.03-1.95 14.05-1.55 14.05-1.4L14.05-1.4Q14.05-0.9 13.38-0.5 12.7-0.1 11.78 0.1 10.85 0.3 10.1 0.3ZM29 0.3L29 0.3Q23.25 0.3 20.17-2.7 17.1-5.7 17.1-12.95L17.1-12.95Q17.1-17.3 18.45-20.3 19.8-23.3 22.42-24.88 25.05-26.45 28.8-26.45L28.8-26.45Q32.2-26.45 34.47-24.98 36.75-23.5 37.87-20.6 39-17.7 39-13.5L39-13.5Q39-13.05 38.75-12.55 38.5-12.05 38.1-11.7 37.7-11.35 37.25-11.35L37.25-11.35 21.5-11.35Q21.6-7.2 23.45-5.25 25.3-3.3 29.1-3.3L29.1-3.3Q31.5-3.3 33.17-3.85 34.85-4.4 35.82-4.95 36.8-5.5 37.05-5.5L37.05-5.5Q37.4-5.5 37.67-5.08 37.95-4.65 38.15-4.1 38.35-3.55 38.35-3.15L38.35-3.15Q38.35-2.7 37.62-2.13 36.9-1.55 35.62-0.98 34.35-0.4 32.65-0.05 30.95 0.3 29 0.3ZM21.5-14.95L21.5-14.95 34.7-14.95Q34.7-18.9 33.05-20.88 31.4-22.85 28.35-22.85L28.35-22.85Q26.15-22.85 24.65-21.88 23.15-20.9 22.35-19.15 21.55-17.4 21.5-14.95ZM48.15 0.1L47.75 0.1Q46.65 0.1 46.22-0.2 45.8-0.5 45.8-1L45.8-1 45.8-25.15Q45.8-25.7 46.22-25.98 46.65-26.25 47.75-26.25L47.75-26.25 48.15-26.25Q49.25-26.25 49.67-25.98 50.1-25.7 50.1-25.15L50.1-25.15 50.1-1Q50.1-0.5 49.67-0.2 49.25 0.1 48.15 0.1L48.15 0.1ZM47.95-29.75L47.95-29.75Q46.75-29.75 46.25-30.05 45.75-30.35 45.75-30.85L45.75-30.85 45.75-33.85Q45.75-34.35 46.25-34.65 46.75-34.95 47.95-34.95L47.95-34.95Q49.15-34.95 49.65-34.68 50.15-34.4 50.15-33.85L50.15-33.85 50.15-30.85Q50.15-30.35 49.65-30.05 49.15-29.75 47.95-29.75ZM65.54 0.3L65.54 0.3Q61.89 0.3 59.44-1.53 56.99-3.35 56.99-7.2L56.99-7.2Q56.99-9.75 57.84-11.5 58.69-13.25 60.62-14.3 62.54-15.35 65.72-15.83 68.89-16.3 73.49-16.3L73.49-16.3 73.49-18.65Q73.49-19.8 72.99-20.75 72.49-21.7 71.32-22.28 70.14-22.85 68.09-22.85L68.09-22.85Q65.84-22.85 64.12-22.35 62.39-21.85 61.32-21.35 60.24-20.85 59.89-20.85L59.89-20.85Q59.64-20.85 59.42-21.1 59.19-21.35 58.99-21.78 58.79-22.2 58.67-22.65 58.54-23.1 58.54-23.45L58.54-23.45Q58.54-23.85 59.39-24.35 60.24-24.85 61.67-25.33 63.09-25.8 64.82-26.13 66.54-26.45 68.29-26.45L68.29-26.45Q70.54-26.45 72.32-25.93 74.09-25.4 75.29-24.38 76.49-23.35 77.14-21.9 77.79-20.45 77.79-18.6L77.79-18.6 77.79-7.5Q77.79-5.45 77.92-4.15 78.04-2.85 78.17-2.13 78.29-1.4 78.29-1.05L78.29-1.05Q78.29-0.8 77.99-0.6 77.69-0.4 77.24-0.28 76.79-0.15 76.29-0.08 75.79 0 75.39 0L75.39 0Q74.94 0 74.69-0.33 74.44-0.65 74.24-1.43 74.04-2.2 73.79-3.45L73.79-3.45Q72.89-2.4 71.67-1.55 70.44-0.7 68.92-0.2 67.39 0.3 65.54 0.3ZM65.74-3.35L65.74-3.35Q67.54-3.35 68.92-3.85 70.29-4.35 71.42-5.13 72.54-5.9 73.49-6.8L73.49-6.8 73.49-12.7Q69.79-12.7 67.44-12.43 65.09-12.15 63.79-11.55 62.49-10.95 61.99-9.93 61.49-8.9 61.49-7.45L61.49-7.45Q61.49-5.45 62.57-4.4 63.64-3.35 65.74-3.35ZM100.64 0.1L100.24 0.1Q99.14 0.1 98.71-0.2 98.29-0.5 98.29-1L98.29-1 98.29-18.65Q98.29-20.7 98.16-22 98.04-23.3 97.91-24.05 97.79-24.8 97.79-25.1L97.79-25.1Q97.79-25.35 98.09-25.55 98.39-25.75 98.84-25.88 99.29-26 99.79-26.05 100.29-26.1 100.69-26.1L100.69-26.1Q101.14-26.1 101.39-25.78 101.64-25.45 101.84-24.73 102.04-24 102.29-22.7L102.29-22.7Q103.29-23.9 104.49-24.73 105.69-25.55 107.04-26 108.39-26.45 109.74-26.45L109.74-26.45Q111.44-26.45 112.81-25.98 114.19-25.5 115.24-24.6 116.29-23.7 116.94-22.3L116.94-22.3Q117.94-23.6 119.21-24.53 120.49-25.45 121.91-25.95 123.34-26.45 124.74-26.45L124.74-26.45Q127.19-26.45 128.96-25.48 130.74-24.5 131.69-22.7 132.64-20.9 132.64-18.35L132.64-18.35 132.64-1Q132.64-0.5 132.21-0.2 131.79 0.1 130.69 0.1L130.69 0.1 130.29 0.1Q129.19 0.1 128.76-0.2 128.34-0.5 128.34-1L128.34-1 128.34-17.95Q128.34-20.35 127.14-21.58 125.94-22.8 123.54-22.8L123.54-22.8Q122.69-22.8 121.84-22.55 120.99-22.3 120.19-21.8 119.39-21.3 118.64-20.6 117.89-19.9 117.29-18.95L117.29-18.95 117.24-20.65Q117.54-20.1 117.59-19.5 117.64-18.9 117.64-18.35L117.64-18.35 117.64-1Q117.64-0.5 117.21-0.2 116.79 0.1 115.69 0.1L115.69 0.1 115.29 0.1Q114.19 0.1 113.76-0.2 113.34-0.5 113.34-1L113.34-1 113.34-17.95Q113.34-20.35 112.14-21.58 110.94-22.8 108.54-22.8L108.54-22.8Q107.39-22.8 106.29-22.38 105.19-21.95 104.24-21.18 103.29-20.4 102.59-19.35L102.59-19.35 102.59-1Q102.59-0.5 102.16-0.2 101.74 0.1 100.64 0.1L100.64 0.1ZM147.19 0.3L147.19 0.3Q143.54 0.3 141.09-1.53 138.64-3.35 138.64-7.2L138.64-7.2Q138.64-9.75 139.49-11.5 140.34-13.25 142.26-14.3 144.19-15.35 147.36-15.83 150.54-16.3 155.14-16.3L155.14-16.3 155.14-18.65Q155.14-19.8 154.64-20.75 154.14-21.7 152.96-22.28 151.79-22.85 149.74-22.85L149.74-22.85Q147.49-22.85 145.76-22.35 144.04-21.85 142.96-21.35 141.89-20.85 141.54-20.85L141.54-20.85Q141.29-20.85 141.06-21.1 140.84-21.35 140.64-21.78 140.44-22.2 140.31-22.65 140.19-23.1 140.19-23.45L140.19-23.45Q140.19-23.85 141.04-24.35 141.89-24.85 143.31-25.33 144.74-25.8 146.46-26.13 148.19-26.45 149.94-26.45L149.94-26.45Q152.19-26.45 153.96-25.93 155.74-25.4 156.94-24.38 158.14-23.35 158.79-21.9 159.44-20.45 159.44-18.6L159.44-18.6 159.44-7.5Q159.44-5.45 159.56-4.15 159.69-2.85 159.81-2.13 159.94-1.4 159.94-1.05L159.94-1.05Q159.94-0.8 159.64-0.6 159.34-0.4 158.89-0.28 158.44-0.15 157.94-0.08 157.44 0 157.04 0L157.04 0Q156.59 0 156.34-0.33 156.09-0.65 155.89-1.43 155.69-2.2 155.44-3.45L155.44-3.45Q154.54-2.4 153.31-1.55 152.09-0.7 150.56-0.2 149.04 0.3 147.19 0.3ZM147.39-3.35L147.39-3.35Q149.19-3.35 150.56-3.85 151.94-4.35 153.06-5.13 154.19-5.9 155.14-6.8L155.14-6.8 155.14-12.7Q151.44-12.7 149.09-12.43 146.74-12.15 145.44-11.55 144.14-10.95 143.64-9.93 143.14-8.9 143.14-7.45L143.14-7.45Q143.14-5.45 144.21-4.4 145.29-3.35 147.39-3.35ZM170.28 0.1L169.88 0.1Q168.78 0.1 168.36-0.2 167.93-0.5 167.93-1L167.93-1 167.93-36.5Q167.93-37.05 168.36-37.33 168.78-37.6 169.88-37.6L169.88-37.6 170.28-37.6Q171.38-37.6 171.81-37.33 172.23-37.05 172.23-36.5L172.23-36.5 172.23-14.4 172.43-14.4 181.98-25.55Q182.23-25.85 182.51-26 182.78-26.15 183.16-26.2 183.53-26.25 184.13-26.25L184.13-26.25 184.83-26.25Q185.63-26.25 186.11-26.1 186.58-25.95 186.58-25.55L186.58-25.55Q186.58-25.35 186.43-25.1 186.28-24.85 186.03-24.55L186.03-24.55 175.43-12.3 175.43-14.65 187.08-1.4Q187.33-1.1 187.43-0.93 187.53-0.75 187.53-0.6L187.53-0.6Q187.53-0.2 187.01-0.05 186.48 0.1 185.33 0.1L185.33 0.1 184.88 0.1Q183.78 0.1 183.26-0.13 182.73-0.35 182.13-1L182.13-1 172.43-12.15 172.23-12.15 172.23-1Q172.23-0.5 171.81-0.2 171.38 0.1 170.28 0.1L170.28 0.1ZM202.63 0.3L202.63 0.3Q196.88 0.3 193.81-2.7 190.73-5.7 190.73-12.95L190.73-12.95Q190.73-17.3 192.08-20.3 193.43-23.3 196.06-24.88 198.68-26.45 202.43-26.45L202.43-26.45Q205.83-26.45 208.11-24.98 210.38-23.5 211.51-20.6 212.63-17.7 212.63-13.5L212.63-13.5Q212.63-13.05 212.38-12.55 212.13-12.05 211.73-11.7 211.33-11.35 210.88-11.35L210.88-11.35 195.13-11.35Q195.23-7.2 197.08-5.25 198.93-3.3 202.73-3.3L202.73-3.3Q205.13-3.3 206.81-3.85 208.48-4.4 209.46-4.95 210.43-5.5 210.68-5.5L210.68-5.5Q211.03-5.5 211.31-5.08 211.58-4.65 211.78-4.1 211.98-3.55 211.98-3.15L211.98-3.15Q211.98-2.7 211.26-2.13 210.53-1.55 209.26-0.98 207.98-0.4 206.28-0.05 204.58 0.3 202.63 0.3ZM195.13-14.95L195.13-14.95 208.33-14.95Q208.33-18.9 206.68-20.88 205.03-22.85 201.98-22.85L201.98-22.85Q199.78-22.85 198.28-21.88 196.78-20.9 195.98-19.15 195.18-17.4 195.13-14.95ZM228.78 0.3L228.78 0.3Q223.13 0.3 220.15-3.1 217.18-6.5 217.18-12.95L217.18-12.95Q217.18-19.45 220.18-22.95 223.18-26.45 228.78-26.45L228.78-26.45Q234.28-26.45 237.2-22.98 240.13-19.5 240.13-12.95L240.13-12.95Q240.13-6.45 237.25-3.08 234.38 0.3 228.78 0.3ZM228.63-3.3L228.63-3.3Q232.28-3.3 234-5.68 235.73-8.05 235.73-13.05L235.73-13.05Q235.73-18.05 234-20.45 232.28-22.85 228.63-22.85L228.63-22.85Q224.98-22.85 223.28-20.48 221.58-18.1 221.58-13.05L221.58-13.05Q221.58-8.05 223.28-5.68 224.98-3.3 228.63-3.3ZM255.38 0.1L253.63 0.1Q252.88 0.1 252.28-0.1 251.68-0.3 251.43-0.95L251.43-0.95 243.58-24.75Q243.53-24.85 243.48-25.05 243.43-25.25 243.43-25.4L243.43-25.4Q243.43-25.8 243.95-26.03 244.48-26.25 245.58-26.25L245.58-26.25 246.03-26.25Q246.78-26.25 247.33-26.08 247.88-25.9 248.03-25.45L248.03-25.45 254.58-3.25 254.78-3.25 261.33-25.45Q261.48-25.9 262.03-26.08 262.58-26.25 263.38-26.25L263.38-26.25 263.73-26.25Q264.73-26.25 265.15-26.03 265.58-25.8 265.58-25.4L265.58-25.4Q265.58-25.25 265.55-25.1 265.53-24.95 265.43-24.7L265.43-24.7 257.58-0.95Q257.38-0.3 256.75-0.1 256.13 0.1 255.38 0.1L255.38 0.1ZM280.77 0.3L280.77 0.3Q275.02 0.3 271.95-2.7 268.87-5.7 268.87-12.95L268.87-12.95Q268.87-17.3 270.22-20.3 271.57-23.3 274.2-24.88 276.82-26.45 280.57-26.45L280.57-26.45Q283.97-26.45 286.25-24.98 288.52-23.5 289.65-20.6 290.77-17.7 290.77-13.5L290.77-13.5Q290.77-13.05 290.52-12.55 290.27-12.05 289.87-11.7 289.47-11.35 289.02-11.35L289.02-11.35 273.27-11.35Q273.37-7.2 275.22-5.25 277.07-3.3 280.87-3.3L280.87-3.3Q283.27-3.3 284.95-3.85 286.62-4.4 287.6-4.95 288.57-5.5 288.82-5.5L288.82-5.5Q289.17-5.5 289.45-5.08 289.72-4.65 289.92-4.1 290.12-3.55 290.12-3.15L290.12-3.15Q290.12-2.7 289.4-2.13 288.67-1.55 287.4-0.98 286.12-0.4 284.42-0.05 282.72 0.3 280.77 0.3ZM273.27-14.95L273.27-14.95 286.47-14.95Q286.47-18.9 284.82-20.88 283.17-22.85 280.12-22.85L280.12-22.85Q277.92-22.85 276.42-21.88 274.92-20.9 274.12-19.15 273.32-17.4 273.27-14.95ZM299.77 0.1L299.57 0.1Q298.52 0.1 298.05-0.2 297.57-0.5 297.57-1L297.57-1 297.57-18.65Q297.57-20.7 297.45-22 297.32-23.3 297.2-24.05 297.07-24.8 297.07-25.1L297.07-25.1Q297.07-25.35 297.37-25.55 297.67-25.75 298.12-25.88 298.57-26 299.07-26.05 299.57-26.1 299.97-26.1L299.97-26.1Q300.42-26.1 300.7-25.78 300.97-25.45 301.2-24.7 301.42-23.95 301.62-22.7L301.62-22.7Q302.47-24 303.55-24.83 304.62-25.65 305.87-26.05 307.12-26.45 308.57-26.45L308.57-26.45Q309.42-26.45 309.85-26.05 310.27-25.65 310.27-24.85L310.27-24.85Q310.27-24.3 310.2-23.78 310.12-23.25 309.97-22.85 309.82-22.45 309.65-22.2 309.47-21.95 309.22-21.95L309.22-21.95Q308.87-21.95 308.35-22.15 307.82-22.35 306.67-22.35L306.67-22.35Q304.97-22.35 303.65-21.4 302.32-20.45 301.87-18.8L301.87-18.8 301.87-1Q301.87-0.5 301.37-0.2 300.87 0.1 299.77 0.1L299.77 0.1ZM321.27 0.45L321.27 0.45Q319.57 0.45 318.12 0.13 316.67-0.2 315.59-0.7 314.52-1.2 313.92-1.73 313.32-2.25 313.32-2.7L313.32-2.7Q313.32-3 313.62-3.6 313.92-4.2 314.32-4.7 314.72-5.2 315.07-5.2L315.07-5.2Q315.27-5.2 315.97-4.7 316.67-4.2 317.94-3.7 319.22-3.2 320.97-3.2L320.97-3.2Q323.37-3.2 324.62-4.15 325.87-5.1 325.87-6.9L325.87-6.9Q325.87-8.25 325.22-9.08 324.57-9.9 323.44-10.45 322.32-11 320.87-11.45L320.87-11.45Q319.57-11.9 318.32-12.45 317.07-13 316.07-13.85 315.07-14.7 314.49-16 313.92-17.3 313.92-19.25L313.92-19.25Q313.92-21.35 314.99-23 316.07-24.65 317.94-25.58 319.82-26.5 322.22-26.5L322.22-26.5Q323.52-26.5 324.69-26.33 325.87-26.15 326.79-25.85 327.72-25.55 328.27-25.15 328.82-24.75 328.82-24.35L328.82-24.35Q328.82-23.95 328.54-23.3 328.27-22.65 327.92-22.15 327.57-21.65 327.22-21.65L327.22-21.65Q327.02-21.65 325.87-22.3 324.72-22.95 322.67-22.95L322.67-22.95Q320.82-22.95 319.52-22.08 318.22-21.2 318.22-19.6L318.22-19.6Q318.22-18.65 318.57-18 318.92-17.35 319.77-16.82 320.62-16.3 322.12-15.8L322.12-15.8Q323.82-15.25 325.27-14.55 326.72-13.85 327.82-12.88 328.92-11.9 329.52-10.55 330.12-9.2 330.12-7.35L330.12-7.35Q330.12-5.1 328.94-3.35 327.77-1.6 325.77-0.58 323.77 0.45 321.27 0.45Z" opacity="1" transform="matrix(1,0,0,1,0,0)" fill="#000000" class="wordmark-text-0" data-fill-palette-color="quaternary" id="text-0"></path></svg></g></svg></g></svg></g></svg></g><g></g></svg></g><defs></defs></svg><rect width="395.52" height="87.86233277104738" fill="none" stroke="none" visibility="hidden"></rect></g></svg></g></svg>