<svg xmlns="http://www.w3.org/2000/svg" version="1.1" xmlns:xlink="http://www.w3.org/1999/xlink" xmlns:svgjs="http://svgjs.dev/svgjs" width="2000" height="277" viewBox="0 0 2000 277"><g transform="matrix(1,0,0,1,-1.2121212121212466,-0.1498784127101942)"><svg viewBox="0 0 396 55" data-background-color="#f9f6ed" preserveAspectRatio="xMidYMid meet" height="277" width="2000" xmlns="http://www.w3.org/2000/svg" xmlns:xlink="http://www.w3.org/1999/xlink"><g id="tight-bounds" transform="matrix(1,0,0,1,0.2400000000000091,0.029759251621158)"><svg viewBox="0 0 395.52 54.9404814967577" height="54.9404814967577" width="395.52"><g><svg viewBox="0 0 484.4203173875394 67.28935448038936" height="54.9404814967577" width="395.52"><g><rect width="4.390899732022675" height="48.93328600057257" x="407.0145019162897" y="9.178034239908396" fill="#21272d" opacity="1" stroke-width="0" stroke="transparent" fill-opacity="1" class="rect-yte-0" data-fill-palette-color="primary" rx="1%" id="yte-0" data-palette-color="#21272d"></rect></g><g transform="matrix(1,0,0,1,0,9.299758831949617)"><svg viewBox="0 0 395.52 48.68983681649013" height="48.68983681649013" width="395.52"><g id="textblocktransform"><svg viewBox="0 0 395.52 48.68983681649013" height="48.68983681649013" width="395.52" id="textblock"><g><svg viewBox="0 0 395.52 48.68983681649013" height="48.68983681649013" width="395.52"><g transform="matrix(1,0,0,1,0,0)"><svg width="395.52" viewBox="0.8 -40.8 352.21999999999997 43" height="48.68983681649013" data-palette-color="#21272d"><g class="wordmark-text-0" data-fill-palette-color="primary" id="text-0"><path d="M9.85-31.7L9.85-31.7 9.85-2.55 13.9-1.8Q14.1-1 13.9 0.2L13.9 0.2Q10.75 0.05 7.45 0.05L7.45 0.05Q5.15 0.05 0.95 0.15L0.95 0.15Q0.65-0.8 0.95-1.8L0.95-1.8 4.9-2.35Q5.1-5.1 5.1-8.7L5.1-8.7 5.1-37.35 1-37.85Q0.8-38.6 1-39.75L1-39.75Q4.45-40 9.6-40.8L9.6-40.8Q10.05-40.3 10.1-39.8L10.1-39.8Q9.85-38.5 9.85-31.7ZM38-14.1L38-14.1 22.3-14.1Q21.85-1.35 29.95-1.35L29.95-1.35Q33.4-1.35 37-4.4L37-4.4Q37.75-3.95 38.15-2.85L38.15-2.85Q34.7 1 29.4 1L29.4 1Q17.2 1 17.2-13.35L17.2-13.35Q17.2-20.15 20.8-23.93 24.4-27.7 29.2-27.7L29.2-27.7Q34.45-27.7 36.75-24.05 39.05-20.4 39.05-14.55L39.05-14.55Q38.55-14.15 38-14.1ZM29.1-25.7L29.1-25.7Q26.5-25.7 24.67-23 22.85-20.3 22.45-16.1L22.45-16.1 28.65-16.1Q32.35-16.1 33.95-16.55L33.95-16.55Q33.95-20.65 32.7-23.18 31.45-25.7 29.1-25.7ZM51.6-18.6L51.6-18.6 51.6-2.55 55.65-1.8Q55.7-1.55 55.72-1.35 55.75-1.15 55.75-0.9L55.75-0.9Q55.75-0.65 55.72-0.38 55.7-0.1 55.65 0.2L55.65 0.2Q52.5 0.05 49.2 0.05L49.2 0.05Q48.05 0.05 46.42 0.08 44.8 0.1 42.7 0.15L42.7 0.15Q42.55-0.3 42.55-0.8L42.55-0.8Q42.55-1.25 42.7-1.8L42.7-1.8 46.65-2.35Q46.75-3.75 46.8-5.33 46.85-6.9 46.85-8.7L46.85-8.7 46.85-19.35Q46.85-22.65 46.7-24.25L46.7-24.25 42.75-24.75Q42.65-25 42.65-25.6L42.65-25.6Q42.65-25.85 42.65-26.1 42.65-26.35 42.75-26.65L42.75-26.65Q46.15-26.85 51.35-27.7L51.35-27.7Q51.8-27.2 51.85-26.7L51.85-26.7Q51.6-25.3 51.6-18.6ZM44.3-36.45L44.3-36.45Q44.2-36.7 44.2-36.98 44.2-37.25 44.2-37.5L44.2-37.5Q44.2-38.85 45.32-39.68 46.45-40.5 48.1-40.5L48.1-40.5Q49.65-40.5 50.62-39.58 51.6-38.65 51.6-37.05L51.6-37.05Q51.6-35.75 50.47-34.95 49.35-34.15 47.6-34.15L47.6-34.15Q46.4-34.15 45.47-34.75 44.55-35.35 44.3-36.45ZM63.44-6.65L63.44-6.65Q63.44-4.05 64.39-2.98 65.34-1.9 67.39-1.9L67.39-1.9Q68.89-1.9 70.72-2.83 72.54-3.75 74.09-5.5L74.09-5.5 74.09-13.3Q68.94-13 66.19-11.48 63.44-9.95 63.44-6.65ZM74.09-15.1L74.09-15.1 74.09-17.65Q74.09-21.9 73.12-23.83 72.14-25.75 69.89-25.75L69.89-25.75Q67.59-25.75 66.19-24.28 64.79-22.8 64.29-19.25L64.29-19.25Q62.69-18.9 61.94-18.9L61.94-18.9Q59.99-18.9 59.64-20.3L59.64-20.3Q59.64-23.7 62.59-25.7 65.54-27.7 69.94-27.7L69.94-27.7Q74.79-27.7 76.82-25.73 78.84-23.75 78.84-18.65L78.84-18.65 78.84-4.55Q78.84-3.3 78.99-2.4L78.99-2.4 82.94-1.9Q83.14-1.15 82.94 0L82.94 0Q79.39 0.15 75.39 0.7L75.39 0.7Q74.99 0.3 74.89-0.3L74.89-0.3 74.64-3.75Q70.49 1 65.39 1L65.39 1Q62.24 1 60.47-0.8 58.69-2.6 58.69-5.65L58.69-5.65Q58.69-10.25 62.87-12.6 67.04-14.95 74.09-15.1Z" fill="#21272d" data-fill-palette-color="primary"></path><path d="M133.94-8.7L133.94-17.85Q133.94-24.8 129.49-24.8L129.49-24.8Q125.69-24.8 122.29-19.55L122.29-19.55 122.29-2.55 126.34-1.8Q126.54-1 126.34 0.2L126.34 0.2Q123.19 0.05 119.94 0.05L119.94 0.05Q117.64 0.05 113.44 0.15L113.44 0.15Q113.14-0.8 113.44-1.8L113.44-1.8 117.39-2.35Q117.59-5.1 117.59-8.7L117.59-8.7 117.59-17.85Q117.59-24.8 113.14-24.8L113.14-24.8Q110.89-24.8 109.19-23.43 107.49-22.05 105.69-19.15L105.69-19.15 105.69-2.55 109.74-1.8Q109.94-1 109.74 0.2L109.74 0.2Q106.59 0.05 103.34 0.05L103.34 0.05Q101.04 0.05 96.84 0.15L96.84 0.15Q96.54-0.8 96.84-1.8L96.84-1.8 100.79-2.35Q100.99-5.1 100.99-8.7L100.99-8.7 100.99-22.4Q100.99-23.4 100.84-24.25L100.84-24.25 96.89-24.75Q96.69-25.5 96.89-26.65L96.89-26.65Q100.24-26.9 105.44-27.7L105.44-27.7Q105.89-27.2 105.94-26.7L105.94-26.7Q105.69-25.4 105.69-22.25L105.69-22.25Q109.64-27.7 114.59-27.7L114.59-27.7Q117.19-27.7 119.34-26.38 121.49-25.05 122.09-22.3L122.09-22.3Q126.09-27.7 130.94-27.7L130.94-27.7Q133.99-27.7 136.31-25.9 138.64-24.1 138.64-20.35L138.64-20.35 138.64-2.55 142.69-1.8Q142.89-1 142.69 0.2L142.69 0.2Q139.54 0.05 136.29 0.05L136.29 0.05Q133.99 0.05 129.79 0.15L129.79 0.15Q129.49-0.8 129.79-1.8L129.79-1.8 133.74-2.35Q133.94-5.1 133.94-8.7L133.94-8.7ZM150.13-6.65L150.13-6.65Q150.13-4.05 151.09-2.98 152.04-1.9 154.09-1.9L154.09-1.9Q155.59-1.9 157.41-2.83 159.24-3.75 160.79-5.5L160.79-5.5 160.79-13.3Q155.63-13 152.88-11.48 150.13-9.95 150.13-6.65ZM160.79-15.1L160.79-15.1 160.79-17.65Q160.79-21.9 159.81-23.83 158.84-25.75 156.59-25.75L156.59-25.75Q154.29-25.75 152.88-24.28 151.49-22.8 150.99-19.25L150.99-19.25Q149.38-18.9 148.63-18.9L148.63-18.9Q146.69-18.9 146.34-20.3L146.34-20.3Q146.34-23.7 149.29-25.7 152.24-27.7 156.63-27.7L156.63-27.7Q161.49-27.7 163.51-25.73 165.54-23.75 165.54-18.65L165.54-18.65 165.54-4.55Q165.54-3.3 165.69-2.4L165.69-2.4 169.63-1.9Q169.84-1.15 169.63 0L169.63 0Q166.09 0.15 162.09 0.7L162.09 0.7Q161.69 0.3 161.59-0.3L161.59-0.3 161.34-3.75Q157.19 1 152.09 1L152.09 1Q148.94 1 147.16-0.8 145.39-2.6 145.39-5.65L145.39-5.65Q145.39-10.25 149.56-12.6 153.74-14.95 160.79-15.1ZM190.58-2.3L180.43-14.4 190.88-24.5 187.58-24.9Q187.38-25.7 187.58-26.85L187.58-26.85Q190.33-26.65 192.73-26.65L192.73-26.65Q194.68-26.65 197.93-26.8L197.93-26.8Q198.23-25.9 197.93-24.9L197.93-24.9 193.98-24.2 185.13-15.9 196.03-2.85 199.93-1.85Q200.13-1.05 199.93 0.15L199.93 0.15Q196.78 0 193.63 0L193.63 0Q191.48 0 187.28 0.1L187.28 0.1Q186.98-0.9 187.28-1.85L187.28-1.85 190.58-2.3ZM179.88-31.7L179.88-31.7 179.88-2.55 183.93-1.8Q184.13-1 183.93 0.2L183.93 0.2Q180.78 0.05 177.53 0.05L177.53 0.05Q175.23 0.05 171.03 0.15L171.03 0.15Q170.73-0.8 171.03-1.8L171.03-1.8 174.98-2.35Q175.18-5.1 175.18-8.7L175.18-8.7 175.18-37.35 171.08-37.85Q170.88-38.6 171.08-39.75L171.08-39.75Q174.43-40 179.63-40.8L179.63-40.8Q180.08-40.3 180.13-39.8L180.13-39.8Q179.88-38.5 179.88-31.7ZM223.03-14.1L223.03-14.1 207.33-14.1Q206.88-1.35 214.98-1.35L214.98-1.35Q218.43-1.35 222.03-4.4L222.03-4.4Q222.78-3.95 223.18-2.85L223.18-2.85Q219.73 1 214.43 1L214.43 1Q202.23 1 202.23-13.35L202.23-13.35Q202.23-20.15 205.83-23.93 209.43-27.7 214.23-27.7L214.23-27.7Q219.48-27.7 221.78-24.05 224.08-20.4 224.08-14.55L224.08-14.55Q223.58-14.15 223.03-14.1ZM214.13-25.7L214.13-25.7Q211.53-25.7 209.71-23 207.88-20.3 207.48-16.1L207.48-16.1 213.68-16.1Q217.38-16.1 218.98-16.55L218.98-16.55Q218.98-20.65 217.73-23.18 216.48-25.7 214.13-25.7ZM228.38-13.3L228.38-13.3Q228.38-16.3 229.25-18.93 230.13-21.55 231.78-23.5 233.43-25.45 235.75-26.58 238.08-27.7 240.98-27.7L240.98-27.7Q243.83-27.7 246.18-26.58 248.53-25.45 250.2-23.5 251.88-21.55 252.78-18.93 253.68-16.3 253.68-13.3L253.68-13.3Q253.68-10.2 252.75-7.6 251.83-5 250.15-3.08 248.48-1.15 246.13-0.08 243.78 1 240.98 1L240.98 1Q238.03 1 235.7-0.05 233.38-1.1 231.75-3 230.13-4.9 229.25-7.53 228.38-10.15 228.38-13.3ZM235.68-22.5L235.68-22.5Q233.53-19.45 233.53-13.3L233.53-13.3Q233.53-10.25 234.1-7.95 234.68-5.65 235.68-4.13 236.68-2.6 238.03-1.85 239.38-1.1 240.98-1.1L240.98-1.1Q242.53-1.1 243.93-1.85 245.33-2.6 246.33-4.13 247.33-5.65 247.93-7.95 248.53-10.25 248.53-13.3L248.53-13.3Q248.53-16.35 247.93-18.68 247.33-21 246.3-22.53 245.28-24.05 243.9-24.83 242.53-25.6 240.98-25.6L240.98-25.6Q237.88-25.6 235.68-22.5ZM280.53-24.3L270.18 2.2 269.13 2.2 258.78-24.25 255.63-24.85Q255.43-25.65 255.63-26.85L255.63-26.85Q258.38-26.65 261.58-26.65L261.58-26.65Q264.43-26.65 267.63-26.8L267.63-26.8Q267.93-25.8 267.63-24.85L267.63-24.85 264.48-24.25 268.53-12.75Q270.28-7.75 270.83-5.5L270.83-5.5 270.93-5.5Q272.13-9.8 273.28-12.5L273.28-12.5 277.58-24.45 273.68-24.85Q273.48-25.65 273.68-26.85L273.68-26.85Q276.43-26.65 278.93-26.65L278.93-26.65Q281.03-26.65 284.28-26.8L284.28-26.8Q284.58-25.8 284.28-24.85L284.28-24.85 280.53-24.3ZM307.17-14.1L307.17-14.1 291.47-14.1Q291.02-1.35 299.12-1.35L299.12-1.35Q302.57-1.35 306.17-4.4L306.17-4.4Q306.92-3.95 307.32-2.85L307.32-2.85Q303.87 1 298.57 1L298.57 1Q286.37 1 286.37-13.35L286.37-13.35Q286.37-20.15 289.97-23.93 293.57-27.7 298.37-27.7L298.37-27.7Q303.62-27.7 305.92-24.05 308.22-20.4 308.22-14.55L308.22-14.55Q307.72-14.15 307.17-14.1ZM298.27-25.7L298.27-25.7Q295.67-25.7 293.85-23 292.02-20.3 291.62-16.1L291.62-16.1 297.82-16.1Q301.52-16.1 303.12-16.55L303.12-16.55Q303.12-20.65 301.87-23.18 300.62-25.7 298.27-25.7ZM321.02-26.7L321.02-26.7 320.92-21.55Q322.17-23.85 324.4-25.78 326.62-27.7 328.62-27.7L328.62-27.7Q330.17-27.7 331.37-27.35L331.37-27.35Q331.77-26.7 331.77-25.65L331.77-25.65Q331.77-24 331.07-22.35L331.07-22.35Q329.27-22.85 327.62-22.85L327.62-22.85Q323.52-22.85 320.87-18.85L320.87-18.85 320.77-10.1 320.77-2.55 326.32-1.8Q326.52-1 326.32 0.2L326.32 0.2Q323.17 0.05 319.12 0.05L319.12 0.05Q316.07 0.05 311.87 0.15L311.87 0.15Q311.57-0.8 311.87-1.8L311.87-1.8 315.82-2.35Q316.02-5.1 316.02-8.7L316.02-8.7 316.02-22.4Q316.02-23.4 315.87-24.25L315.87-24.25 311.92-24.75Q311.72-25.5 311.92-26.65L311.92-26.65Q315.37-26.9 320.52-27.7L320.52-27.7Q320.97-27.2 321.02-26.7ZM343.22-1.2L343.22-1.2Q345.92-1.2 347.22-2.45 348.52-3.7 348.52-5.35L348.52-5.35Q348.52-6.3 348.22-7.1 347.92-7.9 347.24-8.65 346.57-9.4 345.47-10.13 344.37-10.85 342.72-11.7L342.72-11.7Q340.67-12.75 339.19-13.7 337.72-14.65 336.77-15.7 335.82-16.75 335.34-17.95 334.87-19.15 334.87-20.65L334.87-20.65Q334.87-22.45 335.52-23.78 336.17-25.1 337.34-25.98 338.52-26.85 340.12-27.28 341.72-27.7 343.67-27.7L343.67-27.7Q347.57-27.7 351.27-25.8L351.27-25.8 351.27-19.4 348.92-19.4 347.82-24.8Q345.62-25.85 343.17-25.85L343.17-25.85Q339.07-25.85 339.07-22.5L339.07-22.5Q339.07-20.7 340.42-19.2 341.77-17.7 344.77-16.2L344.77-16.2Q346.82-15.15 348.37-14.2 349.92-13.25 350.94-12.2 351.97-11.15 352.49-9.93 353.02-8.7 353.02-7.15L353.02-7.15Q353.02-5.4 352.27-3.9 351.52-2.4 350.17-1.33 348.82-0.25 346.92 0.38 345.02 1 342.72 1L342.72 1Q338.27 1 334.37-0.9L334.37-0.9 334.37-7.3 336.72-7.3 337.82-2.35Q340.37-1.2 343.22-1.2Z" fill="#ea5141" data-fill-palette-color="accent"></path></g></svg></g></svg></g></svg></g></svg></g><g transform="matrix(1,0,0,1,422.8999035646021,0)"><svg viewBox="0 0 61.520413822937314 67.28935448038936" height="67.28935448038936" width="61.520413822937314"><g><svg xmlns="http://www.w3.org/2000/svg" xmlns:xlink="http://www.w3.org/1999/xlink" version="1.1" x="0" y="0" viewBox="8.857 5 82.284 90" enable-background="new 0 0 100 100" xml:space="preserve" height="67.28935448038936" width="61.520413822937314" class="icon-icon-0" data-fill-palette-color="accent" id="icon-0"><g fill="#ea5141" data-fill-palette-color="accent"><path fill-rule="evenodd" clip-rule="evenodd" d="M45.601 5L57.525 24.123 79.377 18.603 64.882 35.855 76.881 54.93 55.996 46.476 41.563 63.782 43.147 41.306 22.227 32.927 44.1 27.49zM35.611 46.057L39.608 64.782 58.663 66.695 42.091 76.287 46.164 95 31.916 82.199 15.378 91.853 23.153 74.348 8.857 61.608 27.905 63.59zM70.093 91.702L65.78 76.583 50.071 76.076 63.112 67.306 58.737 52.208 71.113 61.896 84.12 53.072 78.724 67.834 91.141 77.481 75.432 76.912zM71.232 80.793L72.836 73.223 80.536 72.434 73.83 68.574 75.462 61.011 69.716 66.195 63.024 62.3 66.178 69.369 60.412 74.532 68.105 73.716zM34.809 59.49L30.016 67.608 20.821 65.517 27.061 72.586 22.234 80.684 30.88 76.94 37.092 84.03 36.201 74.643 44.868 70.927 35.666 68.877zM47.734 21.319L48.516 32.386 38.217 36.514 48.982 39.188 49.723 50.261 55.592 40.847 66.35 43.562 59.212 35.067 65.122 25.68 54.837 29.842z" fill="#ea5141" data-fill-palette-color="accent"></path></g></svg></g></svg></g></svg></g><defs></defs></svg><rect width="395.52" height="54.9404814967577" fill="none" stroke="none" visibility="hidden"></rect></g></svg></g></svg>