<svg xmlns="http://www.w3.org/2000/svg" version="1.1" xmlns:xlink="http://www.w3.org/1999/xlink" xmlns:svgjs="http://svgjs.dev/svgjs" width="2000" height="661" viewBox="0 0 2000 661"><g transform="matrix(1,0,0,1,-1.2121212121212466,-2.5126798979378577)"><svg viewBox="0 0 396 131" data-background-color="#f9f6ed" preserveAspectRatio="xMidYMid meet" height="661" width="2000" xmlns="http://www.w3.org/2000/svg" xmlns:xlink="http://www.w3.org/1999/xlink"><g id="tight-bounds" transform="matrix(1,0,0,1,0.2400000000000091,0.4979743821934335)"><svg viewBox="0 0 395.52 130.0040512356131" height="130.0040512356131" width="395.52"><g><svg viewBox="0 0 395.52 130.0040512356131" height="130.0040512356131" width="395.52"><g><svg viewBox="0 0 395.52 130.0040512356131" height="130.0040512356131" width="395.52"><g id="textblocktransform"><svg viewBox="0 0 395.52 130.0040512356131" height="130.0040512356131" width="395.52" id="textblock"><g><rect width="395.52" height="98.38259878591663" fill="none" stroke-width="9.018103199999999" stroke="#000000" data-fill-palette-color="none" data-stroke-palette-color="tertiary"></rect><rect width="395.52" height="31.621452449696477" y="98.38259878591663" fill="#000000" data-fill-palette-color="tertiary"></rect></g><g><svg viewBox="0 0 395.52 98.38259878591663" height="98.38259878591663" width="395.52"><g transform="matrix(1,0,0,1,23.607599999999998,23.607599999999998)"><svg width="348.3048" viewBox="0.75 -34.9 247.07 36.3" height="51.16739878591663" data-palette-color="#21272d"><path d="M8.25-28.6L8.25-28.6 7.95-10.25Q7.95-1.65 8.5 0.05L8.5 0.05Q8.65 0.35 8.65 0.65L8.65 0.65Q8.65 1.25 7.2 1.25 5.75 1.25 3.98 0.53 2.2-0.2 2.2-1.35L2.2-1.35Q3.2-8.35 3.2-20.05L3.2-20.05 3-27.7Q2.9-29.1 2.43-30.1 1.95-31.1 1.5-31.4L1.5-31.4 1.1-31.65Q0.75-31.85 0.75-32.1L0.75-32.1Q0.75-32.8 2.93-33.83 5.1-34.85 7.15-34.85L7.15-34.85Q7.95-34.85 8.05-34.3L8.05-34.3Q8.25-33 8.25-28.6ZM16.4-12.7L16.4-12.7 16.45-11.45Q16.45-11.15 16.85-11.15L16.85-11.15Q18.45-11.3 19.65-11.98 20.85-12.65 21.45-13.5L21.45-13.5Q22.65-15.35 22.75-16.7L22.75-16.7 22.8-17.3Q22.8-20 20.65-20L20.65-20Q19.05-20 18.05-18.6L18.05-18.6Q16.4-16.4 16.4-12.7ZM27.3-6.05L27.3-6.05Q27.3-4.15 26.52-2.73 25.75-1.3 24.77-0.63 23.8 0.05 22.5 0.45L22.5 0.45Q20.85 0.95 19.35 0.95L19.35 0.95Q15.15 0.95 13.15-2.2 11.15-5.35 11.15-10.23 11.15-15.1 13.62-18.9 16.1-22.7 21.05-22.7L21.05-22.7Q25.55-22.7 27.15-19.55L27.15-19.55Q27.8-18.35 27.8-17.28 27.8-16.2 27.7-15.58 27.6-14.95 27-13.7 26.4-12.45 25.4-11.45 24.4-10.45 22.25-9.55 20.1-8.65 17.2-8.35L17.2-8.35Q16.8-8.35 16.8-8L16.8-8Q16.8-7.55 17.12-6.68 17.45-5.8 17.85-5.2L17.85-5.2Q18.95-3.8 21.1-3.8L21.1-3.8Q23.25-3.8 24.75-5.2L24.75-5.2Q25.55-5.95 26.05-7.05L26.05-7.05Q26.25-7.45 26.57-7.45 26.9-7.45 27.1-6.9 27.3-6.35 27.3-6.05ZM35.2-26.75L35.2-26.75 34-26.8Q32.65-26.8 32.25-26.15L32.25-26.15Q32.15-26 32-26L32-26Q31.35-26 31.35-28.23 31.35-30.45 32.02-31.05 32.7-31.65 34.37-31.65 36.05-31.65 36.65-31.08 37.25-30.5 37.25-29.15 37.25-27.8 36.8-27.28 36.34-26.75 35.2-26.75ZM31.2-1.5L31.2-1.5 31.75-13.15Q31.75-17.3 30.8-18.8L30.8-18.8Q30.5-19.3 30.1-19.55L30.1-19.55Q29.8-19.65 29.8-19.95L29.8-19.95Q29.8-20.85 32.34-21.7 34.9-22.55 36.07-22.55 37.25-22.55 37.3-21.95L37.3-21.95Q37.3-20.95 37.02-16.28 36.75-11.6 36.75-6.45 36.75-1.3 37.34-0.05L37.34-0.05Q37.5 0.2 37.5 0.45L37.5 0.45Q37.5 1.1 35.59 1.1 33.7 1.1 31.7 0.1L31.7 0.1Q31.2-0.15 31.2-1.5ZM57.24-15L57.24-15 57.14-8.6Q57.14-1.95 58.59-0.6L58.59-0.6Q58.79-0.4 58.79-0.15L58.79-0.15Q58.79 0.6 55.57 0.6 52.34 0.6 52.14-1.3L52.14-1.3Q52.09-1.75 52.09-3.15L52.09-3.15 52.29-11.15Q52.29-11.5 51.89-11.5L51.89-11.5Q49.49-11.5 47.39-10.15 45.29-8.8 45.29-6.7L45.29-6.7Q45.29-5.6 45.89-4.85 46.49-4.1 47.37-4.1 48.24-4.1 48.82-4.45 49.39-4.8 49.49-4.85L49.49-4.85Q50.34-4.75 50.34-3.08 50.34-1.4 48.79-0.38 47.24 0.65 45.54 0.65 43.84 0.65 42.62 0.05 41.39-0.55 40.84-1.3 40.29-2.05 39.94-3L39.94-3Q39.59-4.15 39.59-5L39.59-5Q39.59-8.5 41.79-10.6 43.99-12.7 47.44-13.6L47.44-13.6Q51.99-14.5 52.19-15.25L52.19-15.25Q52.34-15.8 52.34-17.1L52.34-17.1Q52.34-19.75 49.64-19.75L49.64-19.75Q48.49-19.75 47.59-19.03 46.69-18.3 46.69-17.2L46.69-17.2 46.99-16Q46.89-15.15 45.19-15L45.19-15 44.64-14.95Q43.14-14.95 42.27-15.7 41.39-16.45 41.39-17.7L41.39-17.7Q41.39-18.5 41.92-19.48 42.44-20.45 43.24-21.05 44.04-21.65 45.72-22.13 47.39-22.6 48.94-22.6 50.49-22.6 51.34-22.5 52.19-22.4 53.67-22.03 55.14-21.65 56.12-20.6 57.09-19.55 57.17-18.38 57.24-17.2 57.24-15ZM80.59 0.3L80.59 0.3Q81.29-3.2 81.29-9.53 81.29-15.85 81.24-17 81.19-18.15 80.54-18.85 79.89-19.55 79.41-19.65 78.94-19.75 78.09-19.75 77.24-19.75 76.44-18.98 75.64-18.2 75.49-17.4L75.49-17.4 75.29-16.6Q75.14-15.1 75.14-9.95 75.14-4.8 75.36-3.48 75.59-2.15 75.59-1.7 75.59-1.25 75.19-0.8L75.19-0.8Q73.49 1 70.39 1L70.39 1Q69.29 1 69.29 0.35L69.29 0.35Q70.29-5.65 70.29-14.95L70.29-14.95Q70.29-18.4 70.14-19.6L70.14-19.6 69.94-21.2Q69.89-21.75 69.74-22.4L69.74-22.4Q69.74-23 71.29-23L71.29-23Q73.59-23 74.34-21.3L74.34-21.3Q74.39-21.1 74.54-21.1 74.69-21.1 75.24-21.5L75.24-21.5Q76.89-22.8 79.69-22.8L79.69-22.8Q81.29-22.8 82.84-22.2 84.39-21.6 84.99-20.6L84.99-20.6Q85.04-20.5 85.14-20.5 85.24-20.5 85.44-20.7L85.44-20.7Q87.54-22.8 90.89-22.8L90.89-22.8Q95.34-22.8 96.99-19.6L96.99-19.6Q97.59-18.35 97.59-16.45 97.59-14.55 97.29-11.05 96.99-7.55 96.99-5.7 96.99-3.85 97.36-2.35 97.74-0.85 98.11-0.2 98.49 0.45 98.49 0.55L98.49 0.55Q98.49 1.2 97.09 1.2L97.09 1.2Q93.64 1.2 92.29-0.2 90.94-1.6 90.94-3.88 90.94-6.15 91.86-10.03 92.79-13.9 92.79-15.85L92.79-15.85Q92.79-19.8 89.59-19.8L89.59-19.8Q88.24-19.8 87.44-19 86.64-18.2 86.49-17.4L86.49-17.4 86.39-16.6Q86.19-14.3 86.19-11.05 86.19-7.8 86.29-5.98 86.39-4.15 86.49-3.13 86.59-2.1 86.59-1.9L86.59-1.9Q86.59-0.5 84.84 0.25 83.09 1 81.44 1L81.44 1Q80.59 1 80.59 0.3ZM116.84-15L116.84-15 116.74-8.6Q116.74-1.95 118.19-0.6L118.19-0.6Q118.39-0.4 118.39-0.15L118.39-0.15Q118.39 0.6 115.16 0.6 111.94 0.6 111.74-1.3L111.74-1.3Q111.69-1.75 111.69-3.15L111.69-3.15 111.89-11.15Q111.89-11.5 111.49-11.5L111.49-11.5Q109.09-11.5 106.99-10.15 104.89-8.8 104.89-6.7L104.89-6.7Q104.89-5.6 105.49-4.85 106.09-4.1 106.96-4.1 107.84-4.1 108.41-4.45 108.99-4.8 109.09-4.85L109.09-4.85Q109.94-4.75 109.94-3.08 109.94-1.4 108.39-0.38 106.84 0.65 105.14 0.65 103.44 0.65 102.21 0.05 100.99-0.55 100.44-1.3 99.89-2.05 99.54-3L99.54-3Q99.19-4.15 99.19-5L99.19-5Q99.19-8.5 101.39-10.6 103.59-12.7 107.04-13.6L107.04-13.6Q111.59-14.5 111.79-15.25L111.79-15.25Q111.94-15.8 111.94-17.1L111.94-17.1Q111.94-19.75 109.24-19.75L109.24-19.75Q108.09-19.75 107.19-19.03 106.29-18.3 106.29-17.2L106.29-17.2 106.59-16Q106.49-15.15 104.79-15L104.79-15 104.24-14.95Q102.74-14.95 101.86-15.7 100.99-16.45 100.99-17.7L100.99-17.7Q100.99-18.5 101.51-19.48 102.04-20.45 102.84-21.05 103.64-21.65 105.31-22.13 106.99-22.6 108.54-22.6 110.09-22.6 110.94-22.5 111.79-22.4 113.26-22.03 114.74-21.65 115.71-20.6 116.69-19.55 116.76-18.38 116.84-17.2 116.84-15ZM130.68-16.2L130.68-16.2Q130.48-16 130.48-15.78 130.48-15.55 131.41-15.35 132.33-15.15 133.43-14.25 134.53-13.35 135.08-12.3L135.08-12.3Q136.13-10.25 136.23-8.7L136.23-8.7 136.28-8.05Q136.53-2.2 138.43-0.05L138.43-0.05Q138.68 0.3 138.68 0.45L138.68 0.45Q138.68 1 137.28 1L137.28 1Q133.08 1 131.93-0.75L131.93-0.75Q131.33-1.45 131.33-5.1L131.33-5.1 131.33-6.35Q131.33-11 130.18-12.8L130.18-12.8Q129.58-13.65 128.71-13.65 127.83-13.65 126.88-12.13 125.93-10.6 125.93-9.55L125.93-9.55Q125.93-5.35 126.13-3.7 126.33-2.05 126.33-2L126.33-2Q126.33-0.55 124.36 0.25 122.38 1.05 120.63 1.05L120.63 1.05Q119.98 1.05 119.98 0.25L119.98 0.25 119.98 0.05Q121.18-6.1 121.18-19.35L121.18-19.35Q121.18-23.7 120.98-26.7L120.98-26.7 120.88-27.7Q120.78-29.1 120.31-30.1 119.83-31.1 119.38-31.4L119.38-31.4 118.98-31.65Q118.63-31.85 118.63-32.1L118.63-32.1Q118.63-32.9 121.03-33.9 123.43-34.9 125.18-34.9L125.18-34.9Q125.98-34.85 126.03-34.3L126.03-34.3Q126.28-32.3 126.28-26.08 126.28-19.85 125.98-16.15L125.98-16.15Q125.98-15.55 126.18-15.55 126.38-15.55 126.81-16.13 127.23-16.7 128.31-17.95 129.38-19.2 131.21-20.85 133.03-22.5 134.16-22.5 135.28-22.5 136.38-21.95 137.48-21.4 137.48-20.9L137.48-20.9 136.93-20.55Q134.08-19.5 130.68-16.2ZM144.38-12.7L144.38-12.7 144.43-11.45Q144.43-11.15 144.83-11.15L144.83-11.15Q146.43-11.3 147.63-11.98 148.83-12.65 149.43-13.5L149.43-13.5Q150.63-15.35 150.73-16.7L150.73-16.7 150.78-17.3Q150.78-20 148.63-20L148.63-20Q147.03-20 146.03-18.6L146.03-18.6Q144.38-16.4 144.38-12.7ZM155.28-6.05L155.28-6.05Q155.28-4.15 154.51-2.73 153.73-1.3 152.76-0.63 151.78 0.05 150.48 0.45L150.48 0.45Q148.83 0.95 147.33 0.95L147.33 0.95Q143.13 0.95 141.13-2.2 139.13-5.35 139.13-10.23 139.13-15.1 141.61-18.9 144.08-22.7 149.03-22.7L149.03-22.7Q153.53-22.7 155.13-19.55L155.13-19.55Q155.78-18.35 155.78-17.28 155.78-16.2 155.68-15.58 155.58-14.95 154.98-13.7 154.38-12.45 153.38-11.45 152.38-10.45 150.23-9.55 148.08-8.65 145.18-8.35L145.18-8.35Q144.78-8.35 144.78-8L144.78-8Q144.78-7.55 145.11-6.68 145.43-5.8 145.83-5.2L145.83-5.2Q146.93-3.8 149.08-3.8L149.08-3.8Q151.23-3.8 152.73-5.2L152.73-5.2Q153.53-5.95 154.03-7.05L154.03-7.05Q154.23-7.45 154.56-7.45 154.88-7.45 155.08-6.9 155.28-6.35 155.28-6.05ZM162.43-18.85L162.43-18.85Q161.13-18.8 160.55-18.78 159.98-18.75 159.98-19.05 159.98-19.35 160.28-19.65L160.28-19.65Q163.48-22.6 171.08-22.6L171.08-22.6Q173.68-22.6 175.18-22.15L175.18-22.15 175.68-22Q176.28-21.75 176.28-21.45L176.28-21.45Q176.28-21.2 175.93-21.05L175.93-21.05Q174.58-20.65 173.33-19.78 172.08-18.9 172.08-18.55L172.08-18.55 172.38-18.2Q173.98-17.3 174.85-15.35 175.73-13.4 175.83-11.9L175.83-11.9 175.93-10.35Q175.93-5.4 173.18-2.2 170.43 1 165.68 1L165.68 1Q163.28 1 161.53 0.15 159.78-0.7 158.95-1.78 158.13-2.85 157.63-4.2L157.63-4.2Q157.03-6.05 157.03-8.03 157.03-10 157.7-12 158.38-14 159.25-14.95 160.13-15.9 161.23-16.5L161.23-16.5Q162.63-17.25 163.48-17.25 164.33-17.25 164.33-16.9L164.33-16.9 164.03-16.4Q162.93-15.1 162.45-13 161.98-10.9 161.98-9.28 161.98-7.65 162.38-6.05 162.78-4.45 163.28-3.68 163.78-2.9 164.43-2.5L164.43-2.5Q165.38-1.9 166.43-1.9 167.48-1.9 168.48-2.73 169.48-3.55 169.93-4.9L169.93-4.9Q170.83-7.4 170.83-10.05L170.83-10.05Q170.83-14.25 168.7-16.55 166.58-18.85 162.43-18.85ZM189.8-21.6Q191.93-22.65 194.03-22.65 196.13-22.65 196.13-18.3L196.13-18.3Q196.13-15.1 194.95-11.8 193.78-8.5 192.03-6L192.03-6Q188.43-0.75 185.53 1L185.53 1Q184.83 1.4 184.48 1.4 184.13 1.4 183.75 0.65 183.38-0.1 182.6-2.65 181.83-5.2 181.33-7.2L181.33-7.2 180.88-9.25Q179.88-13.65 178.93-16.28 177.98-18.9 177.53-19.3L177.53-19.3 177.03-19.75Q176.53-20 176.53-20.35L176.53-20.35 176.78-20.8Q177.43-21.4 178.95-22.03 180.48-22.65 182.33-22.65L182.33-22.65Q183.18-22.65 183.38-21.7L183.38-21.7Q184.13-19.4 184.68-16.3 185.23-13.2 186.15-9.3 187.08-5.4 187.68-5.35L187.68-5.35Q187.98-5.35 188.35-5.8 188.73-6.25 189.25-7 189.78-7.75 190.55-9.9 191.33-12.05 191.33-13.58 191.33-15.1 191.2-15.93 191.08-16.75 190.33-17.85 189.58-18.95 188.63-19.13 187.68-19.3 187.68-19.75L187.68-19.75Q187.68-20.55 189.8-21.6ZM202.62-12.7L202.62-12.7 202.67-11.45Q202.67-11.15 203.07-11.15L203.07-11.15Q204.67-11.3 205.87-11.98 207.07-12.65 207.67-13.5L207.67-13.5Q208.87-15.35 208.97-16.7L208.97-16.7 209.02-17.3Q209.02-20 206.87-20L206.87-20Q205.27-20 204.27-18.6L204.27-18.6Q202.62-16.4 202.62-12.7ZM213.52-6.05L213.52-6.05Q213.52-4.15 212.75-2.73 211.97-1.3 211-0.63 210.02 0.05 208.72 0.45L208.72 0.45Q207.07 0.95 205.57 0.95L205.57 0.95Q201.37 0.95 199.37-2.2 197.37-5.35 197.37-10.23 197.37-15.1 199.85-18.9 202.32-22.7 207.27-22.7L207.27-22.7Q211.77-22.7 213.37-19.55L213.37-19.55Q214.02-18.35 214.02-17.28 214.02-16.2 213.92-15.58 213.82-14.95 213.22-13.7 212.62-12.45 211.62-11.45 210.62-10.45 208.47-9.55 206.32-8.65 203.42-8.35L203.42-8.35Q203.02-8.35 203.02-8L203.02-8Q203.02-7.55 203.35-6.68 203.67-5.8 204.07-5.2L204.07-5.2Q205.17-3.8 207.32-3.8L207.32-3.8Q209.47-3.8 210.97-5.2L210.97-5.2Q211.77-5.95 212.27-7.05L212.27-7.05Q212.47-7.45 212.8-7.45 213.12-7.45 213.32-6.9 213.52-6.35 213.52-6.05ZM231.27-17.2L231.02-13.4 231.22-11.65Q231.22-10.7 229.42-10.7L229.42-10.7Q225.77-10.7 225.77-13.45L225.77-13.45Q225.77-14.1 226.12-15.25 226.47-16.4 226.47-17.25 226.47-18.1 225.97-18.73 225.47-19.35 224.52-19.35 223.57-19.35 222.9-18.68 222.22-18 222.07-17.3L222.07-17.3 221.87-16.6Q221.57-15.05 221.57-11.43 221.57-7.8 221.67-5.73 221.77-3.65 221.87-2.88 221.97-2.1 221.97-1.95L221.97-1.95Q221.97-0.7 220.42 0.08 218.87 0.85 217.32 0.85 215.77 0.85 215.77 0.2L215.77 0.2 216.02-1.35Q216.72-5.7 216.72-12.7 216.72-19.7 216.22-22.2L216.22-22.2Q216.22-22.8 217.27-22.8L217.27-22.8Q219.97-22.8 220.87-20.95L220.87-20.95Q220.92-20.75 221.05-20.75 221.17-20.75 221.72-21.2L221.72-21.2Q223.37-22.55 225.62-22.55L225.62-22.55Q227.02-22.55 228.42-22L228.42-22Q231.27-20.85 231.27-17.2L231.27-17.2ZM247.82-6.85L247.82-6.85Q247.82-4.7 246.99-3.1 246.17-1.5 245.12-0.75 244.07 0 242.62 0.45L242.62 0.45Q240.72 1.05 239.17 1.05L239.17 1.05Q235.92 1.05 233.77-0.23 231.62-1.5 231.62-4.3L231.62-4.3Q231.62-5.95 232.52-7L232.52-7Q233.92-8.55 235.87-8.55L235.87-8.55Q236.47-8.55 236.47-8L236.47-8Q236.47-7.95 236.24-7.23 236.02-6.5 236.02-5.4 236.02-4.3 236.89-3.45 237.77-2.6 239.02-2.6 240.27-2.6 241.02-3.03 241.77-3.45 242.07-4.1L242.07-4.1Q242.52-5 242.52-5.8L242.52-5.8Q242.52-7.25 241.07-8.3 239.62-9.35 237.87-9.95 236.12-10.55 234.67-11.95 233.22-13.35 233.22-15.45L233.22-15.45Q233.22-19.05 235.49-20.85 237.77-22.65 241.67-22.65L241.67-22.65Q243.37-22.65 245.24-22.18 247.12-21.7 247.12-20.58 247.12-19.45 246.74-18.5 246.37-17.55 245.82-17.55L245.82-17.55Q245.52-17.55 245.42-17.78 245.32-18 245.07-18.3 244.82-18.6 243.87-19.07 242.92-19.55 242.24-19.55 241.57-19.55 241.34-19.53 241.12-19.5 240.57-19.38 240.02-19.25 239.57-19L239.57-19Q238.42-18.35 238.42-17.1L238.42-17.1Q238.42-16.3 238.77-15.93 239.12-15.55 239.32-15.35 239.52-15.15 240.02-14.88 240.52-14.6 240.72-14.5 240.92-14.4 241.62-14.08 242.32-13.75 242.52-13.65L242.52-13.65Q247.82-11.15 247.82-6.85Z" opacity="1" transform="matrix(1,0,0,1,0,0)" fill="#000000" class="wordmark-text-0" data-fill-palette-color="primary" id="text-0"></path></svg></g></svg></g></svg></g></svg></g><g></g></svg></g><defs></defs></svg><rect width="395.52" height="130.0040512356131" fill="none" stroke="none" visibility="hidden"></rect></g></svg></g></svg>