<?xml version="1.0" standalone="no"?>
<!DOCTYPE svg PUBLIC "-//W3C//DTD SVG 20010904//EN"
 "http://www.w3.org/TR/2001/REC-SVG-20010904/DTD/svg10.dtd">
<svg version="1.0" xmlns="http://www.w3.org/2000/svg"
 width="300.000000pt" height="300.000000pt" viewBox="0 0 300.000000 300.000000"
 preserveAspectRatio="xMidYMid meet">

<g transform="translate(0.000000,300.000000) scale(0.100000,-0.100000)"
fill="#000000" stroke="none">
<path d="M1150 2200 c19 -5 45 -20 57 -35 22 -25 23 -33 23 -218 l0 -192 -19
31 c-18 30 -77 74 -99 74 -16 0 13 -72 38 -92 30 -24 36 -16 14 17 -17 26 -17
27 2 24 11 -2 29 -23 42 -49 21 -42 22 -55 22 -282 0 -256 2 -264 49 -214 40
43 117 68 216 72 l90 4 -70 -16 c-71 -16 -167 -57 -186 -81 -10 -11 15 -13
136 -13 88 0 164 5 189 12 61 19 144 109 194 210 22 45 39 85 37 87 -3 2 -20
-10 -40 -27 -46 -41 -110 -59 -280 -82 -77 -10 -153 -23 -170 -30 -35 -13 -86
-59 -126 -114 -45 -60 -34 -26 14 45 31 47 57 73 100 97 l57 34 0 347 c1 264
4 350 13 363 7 9 29 21 48 26 25 8 -21 10 -176 10 -131 0 -197 -3 -175 -8z"/>
<path d="M1470 2010 c0 -5 5 -10 10 -10 6 0 10 5 10 10 0 6 -4 10 -10 10 -5 0
-10 -4 -10 -10z"/>
<path d="M1120 1680 c0 -5 5 -10 10 -10 6 0 10 5 10 10 0 6 -4 10 -10 10 -5 0
-10 -4 -10 -10z"/>
<path d="M1530 914 c0 -114 2 -125 17 -122 11 2 20 15 23 33 l5 30 23 -33 c16
-22 32 -32 49 -32 l25 0 -36 40 -37 41 31 37 c25 30 28 38 14 40 -9 2 -29 -9
-45 -24 l-29 -28 0 72 c0 65 -2 72 -20 72 -19 0 -20 -7 -20 -126z"/>
<path d="M380 910 l0 -120 68 0 c73 0 84 4 75 26 -3 9 -21 14 -54 14 l-49 0 0
100 c0 93 -1 100 -20 100 -19 0 -20 -7 -20 -120z"/>
<path d="M731 1021 c-17 -11 -7 -41 13 -41 22 0 30 20 15 36 -9 8 -19 10 -28
5z"/>
<path d="M1086 1018 c-3 -7 -10 -53 -16 -103 -6 -49 -14 -98 -16 -107 -4 -13
0 -18 15 -18 21 0 21 2 39 109 l7 45 34 -52 c18 -29 35 -52 37 -52 2 0 19 23
38 51 l34 51 12 -76 c11 -65 16 -76 32 -76 17 0 19 5 15 33 -3 17 -11 71 -18
120 -7 48 -16 87 -20 87 -4 0 -27 -29 -50 -65 -23 -36 -43 -65 -45 -65 -1 0
-19 27 -39 60 -40 65 -53 78 -59 58z"/>
<path d="M565 925 c-65 -64 11 -163 99 -129 29 11 19 34 -13 28 -29 -6 -71 9
-71 26 0 6 25 10 55 10 54 0 55 0 55 29 0 59 -80 82 -125 36z m83 -27 c3 -15
-4 -18 -32 -18 -38 0 -44 8 -24 28 17 17 52 11 56 -10z"/>
<path d="M730 869 c0 -71 2 -80 17 -77 11 2 17 12 16 26 0 12 -1 47 -2 77 -1
42 -5 55 -16 55 -12 0 -15 -16 -15 -81z"/>
<path d="M828 943 c-10 -2 -18 -11 -18 -20 0 -11 6 -14 26 -9 29 8 64 -1 64
-15 0 -5 -9 -9 -20 -9 -12 0 -34 -7 -50 -15 -32 -16 -40 -51 -18 -73 16 -16
61 -15 76 0 10 10 15 10 21 -1 5 -8 14 -10 21 -6 16 10 9 117 -9 139 -13 15
-55 19 -93 9z m72 -91 c0 -14 -23 -32 -42 -32 -11 0 -18 7 -18 20 0 16 7 20
30 20 17 0 30 -4 30 -8z"/>
<path d="M1373 943 c-7 -2 -13 -11 -13 -18 0 -10 12 -13 41 -12 52 2 63 -18
13 -26 -19 -3 -42 -11 -50 -18 -17 -14 -18 -51 -2 -67 16 -16 61 -15 76 0 10
10 15 10 21 -1 5 -8 14 -10 21 -6 20 12 8 125 -15 141 -18 14 -68 17 -92 7z
m77 -91 c0 -14 -23 -32 -42 -32 -18 0 -25 20 -11 33 9 10 53 9 53 -1z"/>
<path d="M1697 921 c-28 -34 -26 -77 4 -110 23 -25 90 -29 108 -7 14 17 0 29
-23 20 -24 -9 -66 4 -66 21 0 12 13 15 56 15 l56 0 -7 28 c-17 67 -84 85 -128
33z m81 -13 c20 -20 14 -28 -23 -28 -22 0 -35 5 -35 13 0 28 36 37 58 15z"/>
<path d="M1879 931 c-18 -14 -24 -29 -24 -61 0 -32 6 -47 24 -61 54 -44 141
-6 141 61 0 67 -87 105 -141 61z m89 -23 c21 -21 15 -67 -12 -79 -34 -16 -66
3 -66 39 0 33 16 52 45 52 12 0 26 -5 33 -12z"/>
<path d="M2030 946 c0 -14 71 -156 79 -156 6 0 46 76 79 152 2 5 -6 8 -18 8
-15 0 -26 -12 -41 -47 l-20 -48 -21 48 c-14 32 -26 47 -39 47 -11 0 -19 -2
-19 -4z"/>
<path d="M2221 924 c-44 -56 -11 -134 57 -134 20 0 43 4 51 9 22 14 5 28 -29
23 -29 -4 -60 11 -60 29 0 5 25 9 55 9 51 0 55 2 55 23 0 67 -87 94 -129 41z
m87 -26 c3 -15 -4 -18 -32 -18 -38 0 -44 8 -24 28 17 17 52 11 56 -10z"/>
<path d="M2390 870 c0 -61 3 -80 14 -80 9 0 15 17 18 56 5 55 20 79 45 70 9
-4 23 14 23 30 0 9 -47 3 -57 -7 -8 -8 -13 -8 -17 0 -17 28 -26 5 -26 -69z"/>
<path d="M2526 937 c-27 -20 -15 -61 24 -77 43 -18 40 -44 -4 -37 -24 4 -36 1
-40 -8 -9 -24 80 -35 102 -13 24 24 14 57 -23 75 -43 20 -47 46 -7 41 19 -2
27 2 27 12 0 20 -54 25 -79 7z"/>
</g>
</svg>
