<?xml version="1.0" encoding="UTF-8"?>
<svg version="1.1" xmlns="http://www.w3.org/2000/svg" width="500" height="500">
<path d="M0 0 C165 0 330 0 500 0 C500 165 500 330 500 500 C335 500 170 500 0 500 C0 335 0 170 0 0 Z " fill="#FEFEFE" transform="translate(0,0)"/>
<path d="M0 0 C3.625 0.375 3.625 0.375 6.125 1.875 C8.04130867 5.06884779 7.74393141 6.88764312 7.1796875 10.47265625 C6.625 12.375 6.625 12.375 4.625 15.375 C5.285 15.045 5.945 14.715 6.625 14.375 C10.6867455 13.96725721 14.38843207 13.86227671 18.1875 15.4375 C20.4445184 18.47956828 20.14001365 20.70552778 19.625 24.375 C18.125 26.75 18.125 26.75 15.625 28.375 C12.92098916 28.98391847 10.40838105 29.18944126 7.625 29.375 C8.429375 29.99375 9.23375 30.6125 10.0625 31.25 C12.625 33.375 12.625 33.375 13.625 35.375 C14.07121514 41.51045817 14.07121514 41.51045817 12.625 44.3125 C9.36998259 46.041728 6.15486467 46.14415339 2.625 45.375 C-0.375 42.875 -0.375 42.875 -2.375 40.375 C-2.64054687 40.94089844 -2.90609375 41.50679687 -3.1796875 42.08984375 C-3.53289062 42.82332031 -3.88609375 43.55679688 -4.25 44.3125 C-4.77207031 45.40884766 -4.77207031 45.40884766 -5.3046875 46.52734375 C-6.375 48.375 -6.375 48.375 -8.375 49.375 C-11.25 49.75 -11.25 49.75 -14.375 49.375 C-16.8125 47.375 -16.8125 47.375 -18.375 44.375 C-18.40116698 41.54373257 -17.94516921 39.17833195 -17.375 36.375 C-18.365 36.87 -18.365 36.87 -19.375 37.375 C-23.10806042 37.78978449 -24.9485406 37.61604227 -28.25 35.75 C-30.375 33.375 -30.375 33.375 -31 30.4375 C-30.15389009 26.29156143 -28.74986243 24.88819543 -25.375 22.375 C-21.5625 21.5625 -21.5625 21.5625 -18.375 21.375 C-19.344375 20.59125 -20.31375 19.8075 -21.3125 19 C-23.21462346 17.46211295 -24.27129957 16.58240087 -25.375 14.375 C-25.6875 10.9375 -25.6875 10.9375 -25.375 7.375 C-23.20391626 4.78640016 -21.75447467 4.43959143 -18.4375 3.875 C-14.36396737 4.54006655 -12.97236229 6.25816525 -10.375 9.375 C-10.045 10.035 -9.715 10.695 -9.375 11.375 C-9.10945313 10.74851563 -8.84390625 10.12203125 -8.5703125 9.4765625 C-8.21710938 8.65929687 -7.86390625 7.84203125 -7.5 7 C-7.15195313 6.18789062 -6.80390625 5.37578125 -6.4453125 4.5390625 C-4.71821353 1.04704487 -3.94679841 0.43853316 0 0 Z " fill="#FDA1AB" transform="translate(141.375,200.625)"/>
<path d="M0 0 C3.56774937 2.88062727 6.11055612 5.86291837 7.58203125 10.27734375 C7.68364575 11.84546016 7.73666966 13.41701821 7.7578125 14.98828125 C7.79358398 16.36113281 7.79358398 16.36113281 7.83007812 17.76171875 C7.87286771 19.68076699 7.90421547 21.60010622 7.92382812 23.51953125 C8.09700532 29.30240299 8.09700532 29.30240299 10.625 34.44140625 C11.59373047 35.35019531 11.59373047 35.35019531 12.58203125 36.27734375 C10.86336908 37.31576485 9.13158527 38.3324901 7.39453125 39.33984375 C6.43160156 39.90832031 5.46867187 40.47679687 4.4765625 41.0625 C1.23465641 42.42313805 -0.1433588 42.43818431 -3.41796875 41.27734375 C-5.87982758 38.07692727 -5.96607599 34.19374767 -6.41796875 30.27734375 C-6.88847656 30.97601563 -7.35898437 31.6746875 -7.84375 32.39453125 C-8.46636719 33.30460937 -9.08898437 34.2146875 -9.73046875 35.15234375 C-10.34535156 36.05726563 -10.96023438 36.9621875 -11.59375 37.89453125 C-13.41796875 40.27734375 -13.41796875 40.27734375 -16.41796875 42.27734375 C-19.43487755 42.61796248 -21.5120469 42.84946482 -24.41796875 42.27734375 C-27.57457216 39.72519632 -30.1019562 37.49394609 -30.69140625 33.359375 C-30.92917485 28.04616139 -30.24580491 24.86173703 -26.84765625 20.71484375 C-23.09024062 16.93689579 -19.08309011 15.37829532 -13.83984375 15.1796875 C-12.958125 15.19128906 -12.07640625 15.20289063 -11.16796875 15.21484375 C-10.2759375 15.22386719 -9.38390625 15.23289063 -8.46484375 15.2421875 C-7.789375 15.25378906 -7.11390625 15.26539063 -6.41796875 15.27734375 C-7.38908484 12.84955353 -8.0764706 11.51153462 -10.2578125 10.015625 C-12.73745787 9.16815127 -14.38608148 9.16194574 -16.98046875 9.46484375 C-17.74488281 9.54089844 -18.50929688 9.61695313 -19.296875 9.6953125 C-21.78812289 10.37891459 -22.68825385 11.41727352 -24.41796875 13.27734375 C-25.07796875 13.27734375 -25.73796875 13.27734375 -26.41796875 13.27734375 C-28.06796875 9.97734375 -29.71796875 6.67734375 -31.41796875 3.27734375 C-23.16169573 -4.04071643 -9.88862902 -6.05382299 0 0 Z " fill="#5C7EFE" transform="translate(311.41796875,214.72265625)"/>
<path d="M0 0 C7.47605383 4.6497408 10.8691252 8.62885778 13.5625 17.09375 C14.2225 17.75375 14.8825 18.41375 15.5625 19.09375 C15.6875 21.71875 15.6875 21.71875 15.5625 24.09375 C14.9025 24.09375 14.2425 24.09375 13.5625 24.09375 C13.459375 25.145625 13.35625 26.1975 13.25 27.28125 C12.57278065 31.03673913 11.6637276 32.98393316 9.5625 36.09375 C9.2325 36.83625 8.9025 37.57875 8.5625 38.34375 C7.5625 40.09375 7.5625 40.09375 4.5625 41.09375 C4.2325 41.75375 3.9025 42.41375 3.5625 43.09375 C2.9025 43.09375 2.2425 43.09375 1.5625 43.09375 C1.5625 43.75375 1.5625 44.41375 1.5625 45.09375 C0.9025 45.09375 0.2425 45.09375 -0.4375 45.09375 C-0.4375 45.75375 -0.4375 46.41375 -0.4375 47.09375 C0.84125 47.34125 2.12 47.58875 3.4375 47.84375 C7.35423989 48.79871485 7.35423989 48.79871485 9.0625 51.21875 C9.31 52.146875 9.31 52.146875 9.5625 53.09375 C5.97089966 56.54826636 2.98611744 56.49765655 -1.875 56.46875 C-3.17308594 56.47648437 -4.47117187 56.48421875 -5.80859375 56.4921875 C-9.53373678 56.08318364 -11.44274252 55.27490284 -14.4375 53.09375 C-13.7265625 51.171875 -13.7265625 51.171875 -12.4375 49.09375 C-10.2734375 48.265625 -10.2734375 48.265625 -7.8125 47.84375 C-6.99523437 47.69421875 -6.17796875 47.5446875 -5.3359375 47.390625 C-4.39621094 47.24367188 -4.39621094 47.24367188 -3.4375 47.09375 C-4.0975 46.475 -4.7575 45.85625 -5.4375 45.21875 C-7.4375 43.09375 -7.4375 43.09375 -7.4375 41.09375 C-8.57251953 41.01060547 -8.57251953 41.01060547 -9.73046875 40.92578125 C-12.4375 40.09375 -12.4375 40.09375 -14.23828125 37.73046875 C-14.73714844 36.75722656 -15.23601562 35.78398437 -15.75 34.78125 C-16.26175781 33.81574219 -16.77351563 32.85023438 -17.30078125 31.85546875 C-18.4375 29.09375 -18.4375 29.09375 -18.4375 25.09375 C-19.0975 25.09375 -19.7575 25.09375 -20.4375 25.09375 C-20.625 22.28125 -20.625 22.28125 -20.4375 19.09375 C-19.44696522 18.08437353 -18.44628794 17.08488415 -17.4375 16.09375 C-17.045625 14.85625 -16.65375 13.61875 -16.25 12.34375 C-14.18860605 6.40079509 -9.4945947 3.22202921 -4.49609375 -0.2578125 C-2.4375 -0.90625 -2.4375 -0.90625 0 0 Z " fill="#D4DDDC" transform="translate(348.4375,200.90625)"/>
<path d="M0 0 C5.61 0 11.22 0 17 0 C16.67 15.84 16.34 31.68 16 48 C35.48867203 48.32241725 35.48867203 48.32241725 43 45 C43 49.95 43 54.9 43 60 C28.81 60 14.62 60 0 60 C0.33 58.35 0.66 56.7 1 55 C1.08760604 53.23716274 1.12784053 51.47155504 1.12939453 49.70654297 C1.13254669 48.6755246 1.13569885 47.64450623 1.13894653 46.58224487 C1.1369223 45.48002594 1.13489807 44.37780701 1.1328125 43.2421875 C1.13376923 42.10218292 1.13472595 40.96217834 1.13571167 39.78762817 C1.13639124 37.38201848 1.13455252 34.97640694 1.13037109 32.57080078 C1.12500987 28.88179429 1.13032874 25.19290901 1.13671875 21.50390625 C1.13605812 19.1666664 1.13477728 16.82942662 1.1328125 14.4921875 C1.13483673 13.3859201 1.13686096 12.27965271 1.13894653 11.13986206 C1.13579437 10.11514801 1.13264221 9.09043396 1.12939453 8.03466797 C1.12859894 7.13263641 1.12780334 6.23060486 1.12698364 5.30123901 C1.09243193 2.83816566 1.09243193 2.83816566 0 0 Z " fill="#5B7DFE" transform="translate(174,196)"/>
<path d="M0 0 C3.06994325 2.06593665 5.59616406 4.39757465 6.55078125 8.00390625 C7.00480375 12.99815378 6.74285341 16.06701726 3.55078125 20.00390625 C-0.66821797 24.22290547 -3.89374297 24.24792192 -9.82421875 24.25390625 C-12.0331961 24.18987792 -14.24199598 24.11275559 -16.44921875 24.00390625 C-14.44921875 22.00390625 -14.44921875 22.00390625 -11.44921875 20.56640625 C-8.22896332 19.19538861 -8.22896332 19.19538861 -6.44921875 16.00390625 C-6.76139515 13.35758338 -6.76139515 13.35758338 -7.44921875 11.00390625 C-10.53721862 10.66079515 -12.04906846 10.74825467 -14.69921875 12.44140625 C-17.21946344 16.13176455 -17.54845865 19.58391399 -17.44921875 24.00390625 C-16.64426705 27.43216309 -16.64426705 27.43216309 -15.44921875 30.00390625 C-7.43982994 30.54316779 -7.43982994 30.54316779 -0.44921875 27.00390625 C1.86078125 29.31390625 4.17078125 31.62390625 6.55078125 34.00390625 C5.9812245 36.85169001 5.06272274 38.57242937 2.8359375 40.44921875 C-3.34377806 44.36043113 -9.25478659 45.23723748 -16.44921875 44.00390625 C-19.51398236 42.73813396 -21.91027162 41.11867093 -24.44921875 39.00390625 C-25.21234375 38.42640625 -25.97546875 37.84890625 -26.76171875 37.25390625 C-31.02407843 31.57076001 -32.09601974 24.7590424 -31.8515625 17.77734375 C-30.87396724 11.03858031 -27.87949683 5.66123847 -22.57421875 1.37890625 C-16.01905183 -2.48160313 -7.03325635 -2.86041526 0 0 Z " fill="#5C7FFE" transform="translate(251.44921875,212.99609375)"/>
<path d="M0 0 C7.47605383 4.6497408 10.8691252 8.62885778 13.5625 17.09375 C14.2225 17.75375 14.8825 18.41375 15.5625 19.09375 C15.6875 21.71875 15.6875 21.71875 15.5625 24.09375 C14.9025 24.09375 14.2425 24.09375 13.5625 24.09375 C13.459375 25.145625 13.35625 26.1975 13.25 27.28125 C12.57278065 31.03673913 11.6637276 32.98393316 9.5625 36.09375 C9.2325 36.83625 8.9025 37.57875 8.5625 38.34375 C7.5625 40.09375 7.5625 40.09375 4.5625 41.09375 C4.2325 41.75375 3.9025 42.41375 3.5625 43.09375 C2.9025 43.09375 2.2425 43.09375 1.5625 43.09375 C1.5625 43.75375 1.5625 44.41375 1.5625 45.09375 C0.9025 45.09375 0.2425 45.09375 -0.4375 45.09375 C-0.4375 45.75375 -0.4375 46.41375 -0.4375 47.09375 C0.84125 47.34125 2.12 47.58875 3.4375 47.84375 C7.35423989 48.79871485 7.35423989 48.79871485 9.0625 51.21875 C9.31 52.146875 9.31 52.146875 9.5625 53.09375 C5.97089966 56.54826636 2.98611744 56.49765655 -1.875 56.46875 C-3.17308594 56.47648437 -4.47117187 56.48421875 -5.80859375 56.4921875 C-9.53373678 56.08318364 -11.44274252 55.27490284 -14.4375 53.09375 C-13.7265625 51.171875 -13.7265625 51.171875 -12.4375 49.09375 C-10.2734375 48.265625 -10.2734375 48.265625 -7.8125 47.84375 C-6.99523437 47.69421875 -6.17796875 47.5446875 -5.3359375 47.390625 C-4.39621094 47.24367188 -4.39621094 47.24367188 -3.4375 47.09375 C-4.0975 46.475 -4.7575 45.85625 -5.4375 45.21875 C-7.4375 43.09375 -7.4375 43.09375 -7.4375 41.09375 C-8.57251953 41.01060547 -8.57251953 41.01060547 -9.73046875 40.92578125 C-12.4375 40.09375 -12.4375 40.09375 -14.23828125 37.73046875 C-14.73714844 36.75722656 -15.23601562 35.78398437 -15.75 34.78125 C-16.26175781 33.81574219 -16.77351563 32.85023438 -17.30078125 31.85546875 C-18.4375 29.09375 -18.4375 29.09375 -18.4375 25.09375 C-19.0975 25.09375 -19.7575 25.09375 -20.4375 25.09375 C-20.625 22.28125 -20.625 22.28125 -20.4375 19.09375 C-19.44696522 18.08437353 -18.44628794 17.08488415 -17.4375 16.09375 C-17.045625 14.85625 -16.65375 13.61875 -16.25 12.34375 C-14.18860605 6.40079509 -9.4945947 3.22202921 -4.49609375 -0.2578125 C-2.4375 -0.90625 -2.4375 -0.90625 0 0 Z M-12.4375 10.09375 C-15.23778782 14.91537234 -15.94673051 20.01340466 -15.0390625 25.50390625 C-13.45499438 31.08541688 -11.47335844 34.14824789 -6.4375 37.09375 C-2.87086235 37.9551535 0.07122703 37.89851184 3.3359375 36.13671875 C6.72107398 33.53594316 8.30222997 31.08651458 9.5625 27.09375 C10.39428155 19.452966 10.36684464 13.27076454 5.5625 7.09375 C-1.15869219 2.6129552 -7.23592817 4.51157535 -12.4375 10.09375 Z " fill="#A27373" transform="translate(348.4375,200.90625)"/>
<path d="M0 0 C0.02505615 1.22630127 0.0501123 2.45260254 0.07592773 3.71606445 C0.17003054 8.2615827 0.27024433 12.80694917 0.37231445 17.35229492 C0.41565241 19.32035779 0.45732832 21.28845798 0.49731445 23.2565918 C0.55504445 26.0839361 0.61873116 28.91109271 0.68359375 31.73828125 C0.70030624 32.61962234 0.71701874 33.50096344 0.73423767 34.40901184 C0.75418289 35.22963608 0.77412811 36.05026031 0.79467773 36.89575195 C0.81799416 37.97830009 0.81799416 37.97830009 0.84178162 39.0827179 C0.94195257 41.22108144 0.94195257 41.22108144 2 44 C-3.61 44 -9.22 44 -15 44 C-14.67 43.01 -14.34 42.02 -14 41 C-13.79543134 36.70921543 -13.81419737 32.41615522 -13.81469727 28.12109375 C-13.81250788 26.00760855 -13.79433048 23.8946431 -13.77539062 21.78125 C-13.77245698 20.43750178 -13.77047199 19.09375109 -13.76953125 17.75 C-13.76542236 16.52796875 -13.76131348 15.3059375 -13.75708008 14.046875 C-13.76518122 10.82484192 -13.76518122 10.82484192 -16 8 C-16.99 7.34 -17.98 6.68 -19 6 C-17.41058594 5.47599609 -17.41058594 5.47599609 -15.7890625 4.94140625 C-14.40101541 4.48185012 -13.01299601 4.02221036 -11.625 3.5625 C-10.57699219 3.21735352 -10.57699219 3.21735352 -9.5078125 2.86523438 C-0.87058424 0 -0.87058424 0 0 0 Z " fill="#5C7EFE" transform="translate(276,212)"/>
<path d="M0 0 C2.44002729 7.32008188 2.14631315 15.35920215 2 23 C1.67 23 1.34 23 1 23 C0.67 20.69 0.34 18.38 0 16 C-0.70576172 17.04800781 -0.70576172 17.04800781 -1.42578125 18.1171875 C-2.04839844 19.02726562 -2.67101562 19.93734375 -3.3125 20.875 C-3.92738281 21.77992188 -4.54226563 22.68484375 -5.17578125 23.6171875 C-7 26 -7 26 -10 28 C-13.0169088 28.34061873 -15.09407815 28.57212107 -18 28 C-21.15660341 25.44785257 -23.68398745 23.21660234 -24.2734375 19.08203125 C-24.50948423 13.80729479 -23.78626432 10.71909025 -20.58203125 6.5078125 C-16.3679403 2.49141965 -12.38807355 1.50509305 -6.6875 0.8125 C-4.80611328 0.57466797 -4.80611328 0.57466797 -2.88671875 0.33203125 C-1.93410156 0.22246094 -0.98148437 0.11289063 0 0 Z " fill="#6081FE" transform="translate(305,229)"/>
<path d="M0 0 C1.67542976 0.28604898 3.34385343 0.61781233 5 1 C6.19876651 6.44893869 5.91360308 9.22169095 3 14 C3.66 13.67 4.32 13.34 5 13 C9.0617455 12.59225721 12.76343207 12.48727671 16.5625 14.0625 C18.8195184 17.10456828 18.51501365 19.33052778 18 23 C16.5 25.375 16.5 25.375 14 27 C11.29598916 27.60891847 8.78338105 27.81444126 6 28 C6.804375 28.61875 7.60875 29.2375 8.4375 29.875 C11 32 11 32 12 34 C12.44621514 40.13545817 12.44621514 40.13545817 11 42.9375 C7.74498259 44.666728 4.52986467 44.76915339 1 44 C-2 41.5 -2 41.5 -4 39 C-4.26554688 39.56589844 -4.53109375 40.13179687 -4.8046875 40.71484375 C-5.15789062 41.44832031 -5.51109375 42.18179688 -5.875 42.9375 C-6.22304687 43.66839844 -6.57109375 44.39929688 -6.9296875 45.15234375 C-8 47 -8 47 -10 48 C-12.875 48.375 -12.875 48.375 -16 48 C-18.4375 45.9375 -18.4375 45.9375 -20 43 C-19.85314612 38.7412375 -19.37178287 36.5576743 -17 33 C-16.34 35.97 -15.68 38.94 -15 42 C-12.57732914 42.05167527 -12.57732914 42.05167527 -10 41 C-8.13016255 37.52692672 -8.13016255 37.52692672 -7 34 C-5.54182203 33.83197949 -4.0834516 33.66562857 -2.625 33.5 C-1.81289062 33.4071875 -1.00078125 33.314375 -0.1640625 33.21875 C2 33 2 33 4 33 C3.608125 32.319375 3.21625 31.63875 2.8125 30.9375 C1.66394628 26.78503656 3.08599019 24.75966213 5 21 C5.391875 20.195625 5.78375 19.39125 6.1875 18.5625 C6.455625 18.046875 6.72375 17.53125 7 17 C5.35 17 3.7 17 2 17 C1.27726127 14.01870272 1.00830073 11.52685862 1.0625 8.4375 C1.00341197 5.18765809 0.71586792 3.68104363 -1 1 C-0.67 0.67 -0.34 0.34 0 0 Z " fill="#FDA0AA" transform="translate(143,202)"/>
<path d="M0 0 C4.75 -0.125 4.75 -0.125 7 1 C7 1.66 7 2.32 7 3 C9.97 3.66 12.94 4.32 16 5 C15 9 15 9 13.3125 12.4375 C11.65570728 15.86678121 11.65570728 15.86678121 12.8125 18.9375 C13.204375 19.618125 13.59625 20.29875 14 21 C10.63720569 22.12093144 7.5739782 22.3497915 4.05859375 22.62109375 C1.7830663 22.83865067 1.7830663 22.83865067 0 25 C0 24.01 0 23.02 0 22 C-2.31 21.34 -4.62 20.68 -7 20 C-7 19.34 -7 18.68 -7 18 C-8.65 18.33 -10.3 18.66 -12 19 C-11.690625 18.34 -11.38125 17.68 -11.0625 17 C-9.73609071 13.25484437 -9.32492442 9.96407788 -9 6 C-9.33 5.34 -9.66 4.68 -10 4 C-9.67 3.34 -9.34 2.68 -9 2 C-6.03 2.33 -3.06 2.66 0 3 C0 2.01 0 1.02 0 0 Z " fill="#F47E84" transform="translate(134,214)"/>
<path d="M0 0 C3.98066095 1.57724302 5.60667274 2.41000911 8 6 C8.68869056 11.17318721 8.84213522 15.59644131 6.125 20.125 C2.37353273 23.43511818 -0.64819791 23.39063802 -5.515625 23.35546875 C-8 23 -8 23 -11.0625 20.6875 C-13.79449717 16.89795554 -14.39378918 13.73343356 -14.359375 9.0703125 C-13.71820971 5.3766429 -11.64068388 3.57781045 -9 1 C-5.92805092 -0.53597454 -3.39755707 -0.2265038 0 0 Z " fill="#F5F5F5" transform="translate(256,272)"/>
<path d="M0 0 C11.84470327 -0.56905158 11.84470327 -0.56905158 17 3 C19 6 19 6 18.625 9.1875 C18.315625 10.5796875 18.315625 10.5796875 18 12 C17.01 12.33 16.02 12.66 15 13 C15.61996078 14.29409289 16.24616353 15.58519673 16.875 16.875 C17.22304688 17.59429687 17.57109375 18.31359375 17.9296875 19.0546875 C18.96557543 21.15135019 18.96557543 21.15135019 21 23 C18.36 23 15.72 23 13 23 C12.855625 22.21625 12.71125 21.4325 12.5625 20.625 C12.12201075 18.03578982 12.12201075 18.03578982 11 16 C8.47266765 15.34444881 8.47266765 15.34444881 6 15 C6 17.31 6 19.62 6 22 C6.99 22.33 7.98 22.66 9 23 C6.03 23 3.06 23 0 23 C0.33 22.34 0.66 21.68 1 21 C1.15067214 19.5534758 1.24861036 18.1012066 1.31640625 16.6484375 C1.35830078 15.79765625 1.40019531 14.946875 1.44335938 14.0703125 C1.48267578 13.18085938 1.52199219 12.29140625 1.5625 11.375 C1.60568359 10.4778125 1.64886719 9.580625 1.69335938 8.65625 C1.79956861 6.43765717 1.90161194 4.2189512 2 2 C1.34 2 0.68 2 0 2 C0 1.34 0 0.68 0 0 Z " fill="#393939" transform="translate(321,272)"/>
<path d="M0 0 C1.98 0 3.96 0 6 0 C6.81436868 1.76997474 7.6264294 3.54101152 8.4375 5.3125 C8.88996094 6.29863281 9.34242188 7.28476562 9.80859375 8.30078125 C11 11 11 11 12 14 C13.98 9.38 15.96 4.76 18 0 C19.98 0 21.96 0 24 0 C23.01 0.495 23.01 0.495 22 1 C22.30614857 4.12565662 22.62099716 7.25037623 22.9375 10.375 C23.02451172 11.26445312 23.11152344 12.15390625 23.20117188 13.0703125 C23.28818359 13.92109375 23.37519531 14.771875 23.46484375 15.6484375 C23.543396 16.43395996 23.62194824 17.21948242 23.70288086 18.02880859 C23.90696298 20.07134803 23.90696298 20.07134803 25 22 C22.36 22 19.72 22 17 22 C17.33 21.34 17.66 20.68 18 20 C18.09499503 18.50243129 18.12987198 17.00057068 18.125 15.5 C18.12757813 14.7059375 18.13015625 13.911875 18.1328125 13.09375 C18.13277996 10.94081466 18.13277996 10.94081466 17 9 C15.35 12.96 13.7 16.92 12 21 C11.34 21 10.68 21 10 21 C8.35 17.04 6.7 13.08 5 9 C4.67 9 4.34 9 4 9 C3.97303635 10.79158489 3.95362083 12.58328473 3.9375 14.375 C3.92589844 15.37273437 3.91429687 16.37046875 3.90234375 17.3984375 C3.81993398 19.98432453 3.81993398 19.98432453 5 22 C3.02 22 1.04 22 -1 22 C-0.67 21.34 -0.34 20.68 0 20 C0.21782467 18.55487563 0.38973668 17.10263322 0.53515625 15.6484375 C0.62216797 14.79765625 0.70917969 13.946875 0.79882812 13.0703125 C0.88583984 12.18085938 0.97285156 11.29140625 1.0625 10.375 C1.15337891 9.4778125 1.24425781 8.580625 1.33789062 7.65625 C1.56209292 5.43782728 1.78264566 3.2191024 2 1 C1.34 0.67 0.68 0.34 0 0 Z " fill="#1D1D1D" transform="translate(133,273)"/>
<path d="M0 0 C7.47605383 4.6497408 10.8691252 8.62885778 13.5625 17.09375 C14.2225 17.75375 14.8825 18.41375 15.5625 19.09375 C15.6875 21.71875 15.6875 21.71875 15.5625 24.09375 C14.5725 24.09375 13.5825 24.09375 12.5625 24.09375 C11.9025 25.74375 11.2425 27.39375 10.5625 29.09375 C9.9025 29.09375 9.2425 29.09375 8.5625 29.09375 C8.59730469 28.08054688 8.63210938 27.06734375 8.66796875 26.0234375 C8.69612595 24.6718917 8.72342403 23.32032781 8.75 21.96875 C8.77513672 21.30359375 8.80027344 20.6384375 8.82617188 19.953125 C8.8957236 15.22360758 8.10031286 12.08089654 5.5625 8.09375 C1.53547943 5.40906962 -1.7059363 5.41187263 -6.4375 6.09375 C-10.04651499 8.24380148 -11.89730996 10.23335952 -13.4375 14.09375 C-13.72443388 16.33508258 -13.92716591 18.5881819 -14.0625 20.84375 C-14.17464844 22.59945312 -14.17464844 22.59945312 -14.2890625 24.390625 C-14.36253906 25.72867188 -14.36253906 25.72867188 -14.4375 27.09375 C-15.0975 27.09375 -15.7575 27.09375 -16.4375 27.09375 C-16.4375 27.75375 -16.4375 28.41375 -16.4375 29.09375 C-17.0975 29.09375 -17.7575 29.09375 -18.4375 29.09375 C-18.4375 27.77375 -18.4375 26.45375 -18.4375 25.09375 C-19.0975 25.09375 -19.7575 25.09375 -20.4375 25.09375 C-20.625 22.28125 -20.625 22.28125 -20.4375 19.09375 C-19.44696522 18.08437353 -18.44628794 17.08488415 -17.4375 16.09375 C-17.045625 14.85625 -16.65375 13.61875 -16.25 12.34375 C-14.18860605 6.40079509 -9.4945947 3.22202921 -4.49609375 -0.2578125 C-2.4375 -0.90625 -2.4375 -0.90625 0 0 Z " fill="#B08888" transform="translate(348.4375,200.90625)"/>
<path d="M0 0 C0.66 0.66 1.32 1.32 2 2 C1.90172027 5.63634993 1.02762381 6.96801453 -1.375 9.75 C-4 12 -4 12 -7 13 C-5.083412 13.02712153 -3.1667127 13.04645097 -1.25 13.0625 C-0.18265625 13.07410156 0.8846875 13.08570313 1.984375 13.09765625 C4.53368501 13.01510087 6.57933591 12.74617558 9 12 C5.82758621 19.13793103 5.82758621 19.13793103 2 21 C-1.96606847 21.66237432 -4.93692765 21.6269401 -8.4375 19.5625 C-10.70832823 15.83834169 -11.20946043 12.33660665 -11 8 C-9.75 5.125 -9.75 5.125 -8 3 C-7.54625 2.401875 -7.0925 1.80375 -6.625 1.1875 C-4.33171195 -0.48836434 -2.76940515 -0.35505194 0 0 Z " fill="#E7EAF7" transform="translate(244,223)"/>
<path d="M0 0 C4.40093281 0.86446895 5.89836569 2.06097945 8.5 5.6875 C9.125 8.6875 9.125 8.6875 8.5 11.6875 C6.4375 14.5625 6.4375 14.5625 3.5 16.6875 C-0.49807408 17.31877485 -2.50735985 17.36667484 -5.875 15.0625 C-7.93188056 12.05628996 -8.5732472 10.3498602 -8.5 6.6875 C-6.06453566 2.57765392 -4.74513324 0.93207974 0 0 Z " fill="#5D7FFE" transform="translate(269.5,191.3125)"/>
<path d="M0 0 C2.64 0 5.28 0 8 0 C8.17015625 1.50626953 8.17015625 1.50626953 8.34375 3.04296875 C8.90935228 6.99720578 10.11438942 10.56248998 11.5 14.3125 C11.9434375 15.52550781 12.386875 16.73851562 12.84375 17.98828125 C13.89311674 20.86700838 13.89311674 20.86700838 15 23 C12.36 23 9.72 23 7 23 C7.66 22.67 8.32 22.34 9 22 C8.67 20.02 8.34 18.04 8 16 C5.03 16.33 2.06 16.66 -1 17 C-1.33 18.65 -1.66 20.3 -2 22 C-1.34 22.33 -0.68 22.66 0 23 C-2.31 23 -4.62 23 -7 23 C-6.74605469 22.45472656 -6.49210938 21.90945313 -6.23046875 21.34765625 C-1.24109709 11.09796789 -1.24109709 11.09796789 0 0 Z " fill="#1E1E1E" transform="translate(170,272)"/>
<path d="M0 0 C1.670625 0.061875 1.670625 0.061875 3.375 0.125 C2.715 1.445 2.055 2.765 1.375 4.125 C2.035 4.785 2.695 5.445 3.375 6.125 C3.68904687 10.36463281 3.70117985 13.49034398 1.375 17.125 C0.055 16.465 -1.265 15.805 -2.625 15.125 C-2.625 14.465 -2.625 13.805 -2.625 13.125 C-4.275 13.125 -5.925 13.125 -7.625 13.125 C-7.625 14.115 -7.625 15.105 -7.625 16.125 C-10.595 15.795 -13.565 15.465 -16.625 15.125 C-16.955 16.115 -17.285 17.105 -17.625 18.125 C-18.285 17.795 -18.945 17.465 -19.625 17.125 C-20.4375 14.25 -20.4375 14.25 -20.625 11.125 C-19.1875 9.25 -19.1875 9.25 -17.625 8.125 C-10.75 10 -10.75 10 -9.625 11.125 C-9.35945312 10.49851563 -9.09390625 9.87203125 -8.8203125 9.2265625 C-8.46710938 8.40929687 -8.11390625 7.59203125 -7.75 6.75 C-7.40195313 5.93789062 -7.05390625 5.12578125 -6.6953125 4.2890625 C-4.87494749 0.60847046 -4.21281083 0.14526934 0 0 Z " fill="#FC9EA8" transform="translate(141.625,200.875)"/>
<path d="M0 0 C2.64 0 5.28 0 8 0 C7.01 0.495 7.01 0.495 6 1 C6.33 3.97 6.66 6.94 7 10 C8.17561146 8.90536178 9.3402489 7.79892814 10.5 6.6875 C11.47453125 5.76517578 11.47453125 5.76517578 12.46875 4.82421875 C14.3214614 3.01398471 14.3214614 3.01398471 14 0 C15.98 0 17.96 0 20 0 C15.25 5.875 15.25 5.875 13 7 C14.0841347 10.07171498 15.30498007 12.4574701 17.125 15.1875 C19 18 19 18 19 20 C19.99 20.33 20.98 20.66 22 21 C22 21.33 22 21.66 22 22 C19.03 22 16.06 22 13 22 C13.66 21.67 14.32 21.34 15 21 C14.6390625 20.44570313 14.278125 19.89140625 13.90625 19.3203125 C13.4421875 18.59585937 12.978125 17.87140625 12.5 17.125 C12.0359375 16.40570313 11.571875 15.68640625 11.09375 14.9453125 C10 13 10 13 10 11 C6.87393036 12.60480784 6.87393036 12.60480784 6.48828125 14.9453125 C6.43027344 15.66460937 6.37226563 16.38390625 6.3125 17.125 C6.1578125 19.043125 6.1578125 19.043125 6 21 C6.66 21.33 7.32 21.66 8 22 C5.36 22 2.72 22 0 22 C0.33 21.34 0.66 20.68 1 20 C1.15067214 18.5534758 1.24861036 17.1012066 1.31640625 15.6484375 C1.35830078 14.79765625 1.40019531 13.946875 1.44335938 13.0703125 C1.48267578 12.18085938 1.52199219 11.29140625 1.5625 10.375 C1.60568359 9.4778125 1.64886719 8.580625 1.69335938 7.65625 C1.79956861 5.43765717 1.90161194 3.2189512 2 1 C1.34 0.67 0.68 0.34 0 0 Z " fill="#171717" transform="translate(191,273)"/>
<path d="M0 0 C2.875 2.5 2.875 2.5 5 5 C4.34 5.66 3.68 6.32 3 7 C1.35 6.34 -0.3 5.68 -2 5 C-2.66 5.66 -3.32 6.32 -4 7 C-3.91115 10.03344954 -3.91115 10.03344954 -3 13 C-2.01 13.66 -1.02 14.32 0 15 C0 16.32 0 17.64 0 19 C-4.455 20.485 -4.455 20.485 -9 22 C-9.33 24.31 -9.66 26.62 -10 29 C-11.65 29 -13.3 29 -15 29 C-15.46009282 25.04320172 -15.33274372 23.45374144 -12.9375 20.1875 C-9.52655584 17.6474352 -7.19769372 17.24692316 -3 17 C-3.969375 16.21625 -4.93875 15.4325 -5.9375 14.625 C-7.83962346 13.08711295 -8.89629957 12.20740087 -10 10 C-10.3125 6.5625 -10.3125 6.5625 -10 3 C-7.15979551 -0.38639766 -4.25049266 -0.69395799 0 0 Z " fill="#FEA7B1" transform="translate(126,205)"/>
<path d="M0 0 C2.76223278 2.76223278 2.57856291 5.20706617 3 9 C5.41585574 8.96906827 5.41585574 8.96906827 8 8 C9.85916824 5.03292954 9.85916824 5.03292954 11 2 C14.85815236 1.64110211 16.44179747 1.53948292 19.5 4.0625 C21.91196173 6.37882442 21.91196173 6.37882442 25.3125 5.75 C26.6428125 5.37875 26.6428125 5.37875 28 5 C28.042721 6.66611905 28.04063832 8.33382885 28 10 C27 11 27 11 23.25 11.375 C19.53212766 11.36162636 19.07568212 11.06306844 16 8.5 C15.34 7.675 14.68 6.85 14 6 C13.60167969 6.84884766 13.60167969 6.84884766 13.1953125 7.71484375 C12.66550781 8.81505859 12.66550781 8.81505859 12.125 9.9375 C11.77695313 10.66839844 11.42890625 11.39929688 11.0703125 12.15234375 C10 14 10 14 8 15 C5.125 15.375 5.125 15.375 2 15 C-0.4375 12.9375 -0.4375 12.9375 -2 10 C-1.81170224 6.3595767 -1.14922369 3.44767107 0 0 Z " fill="#FEA7B1" transform="translate(125,235)"/>
<path d="M0 0 C3.98066095 1.57724302 5.60667274 2.41000911 8 6 C8.68869056 11.17318721 8.84213522 15.59644131 6.125 20.125 C2.37353273 23.43511818 -0.64819791 23.39063802 -5.515625 23.35546875 C-8 23 -8 23 -11.0625 20.6875 C-13.79449717 16.89795554 -14.39378918 13.73343356 -14.359375 9.0703125 C-13.71820971 5.3766429 -11.64068388 3.57781045 -9 1 C-5.92805092 -0.53597454 -3.39755707 -0.2265038 0 0 Z M-8.9375 3.4375 C-10.54608598 7.31703089 -10.67233075 10.86588115 -10 15 C-8.75297583 17.70750292 -7.11980716 19.88019284 -5 22 C-0.91282467 22.45406803 -0.91282467 22.45406803 2.640625 20.75390625 C5.09963773 17.58121454 5.12685328 13.91242228 5 10 C3.69897535 6.59255449 2.56327022 4.56327022 0 2 C-4.77376477 1.42240301 -4.77376477 1.42240301 -8.9375 3.4375 Z " fill="#111111" transform="translate(256,272)"/>
<path d="M0 0 C5.28 0 10.56 0 16 0 C16.66 1.98 17.32 3.96 18 6 C17.34 6 16.68 6 16 6 C15.34 5.01 14.68 4.02 14 3 C10.43230448 2.26393501 10.43230448 2.26393501 7 2 C7 4.97 7 7.94 7 11 C8.65 11 10.3 11 12 11 C12 10.34 12 9.68 12 9 C12.99 9.33 13.98 9.66 15 10 C15 11.65 15 13.3 15 15 C12.36 14.34 9.72 13.68 7 13 C7 15.97 7 18.94 7 22 C12.15998377 21.62590749 12.15998377 21.62590749 16.4375 18.9375 C16.953125 18.298125 17.46875 17.65875 18 17 C17.67 18.98 17.34 20.96 17 23 C11.39 23 5.78 23 0 23 C0.66 22.34 1.32 21.68 2 21 C2.36894582 18.96939341 2.36894582 18.96939341 2.4140625 16.6484375 C2.45273438 15.79765625 2.49140625 14.946875 2.53125 14.0703125 C2.5621875 13.18085938 2.593125 12.29140625 2.625 11.375 C2.66367188 10.4778125 2.70234375 9.580625 2.7421875 8.65625 C2.83659357 6.4377073 2.92216748 4.21917597 3 2 C2.01 2 1.02 2 0 2 C0 1.34 0 0.68 0 0 Z " fill="#0E0E0E" transform="translate(218,272)"/>
<path d="M0 0 C5.28 0 10.56 0 16 0 C16.33 1.98 16.66 3.96 17 6 C16.01 5.34 15.02 4.68 14 4 C14 3.34 14 2.68 14 2 C11.36 2 8.72 2 6 2 C6 4.97 6 7.94 6 11 C7.98 11 9.96 11 12 11 C12 10.34 12 9.68 12 9 C12.66 9 13.32 9 14 9 C14 10.65 14 12.3 14 14 C11.36 13.67 8.72 13.34 6 13 C6.33 15.64 6.66 18.28 7 21 C9.87413125 21.33397787 9.87413125 21.33397787 13 21 C14.91256712 19.11922127 14.91256712 19.11922127 16 17 C16.66 17.33 17.32 17.66 18 18 C17.01 20.475 17.01 20.475 16 23 C10.72 23 5.44 23 0 23 C0.33 22.34 0.66 21.68 1 21 C1.15067214 19.5534758 1.24861036 18.1012066 1.31640625 16.6484375 C1.35830078 15.79765625 1.40019531 14.946875 1.44335938 14.0703125 C1.48267578 13.18085938 1.52199219 12.29140625 1.5625 11.375 C1.60568359 10.4778125 1.64886719 9.580625 1.69335938 8.65625 C1.79956861 6.43765717 1.90161194 4.2189512 2 2 C1.34 2 0.68 2 0 2 C0 1.34 0 0.68 0 0 Z " fill="#111111" transform="translate(297,272)"/>
<path d="M0 0 C0.33 0.66 0.66 1.32 1 2 C1 1.34 1 0.68 1 0 C8.63076923 1.47692308 8.63076923 1.47692308 10.5 4.125 C10.7475 5.053125 10.7475 5.053125 11 6 C7.40839966 9.45451636 4.42361744 9.40390655 -0.4375 9.375 C-1.73558594 9.38273437 -3.03367187 9.39046875 -4.37109375 9.3984375 C-8.09623678 8.98943364 -10.00524252 8.18115284 -13 6 C-12.375 4.125 -12.375 4.125 -11 2 C-7.24736275 0.33216122 -4.08773982 -0.24045528 0 0 Z " fill="#DF9A99" transform="translate(347,248)"/>
<path d="M0 0 C0.33 2.97 0.66 5.94 1 9 C0.34 9 -0.32 9 -1 9 C-1 9.66 -1 10.32 -1 11 C-4.94681926 11.82607845 -8.14785727 12.39105154 -12 11 C-13.98470091 8.5642307 -14 7.0869949 -14 3.9375 C-13 1 -13 1 -10.375 -1 C-6.20997998 -2.23408 -4.00179895 -1.5206836 0 0 Z " fill="#FEEFAC" transform="translate(142,220)"/>
<path d="M0 0 C0.66 2.31 1.32 4.62 2 7 C-1 6 -1 6 -3 3 C-6.56769552 2.26393501 -6.56769552 2.26393501 -10 2 C-10.41780879 4.37305578 -10.41780879 4.37305578 -10 7 C-7.83658587 8.68326167 -7.83658587 8.68326167 -5 10 C-1.6875 11.75 -1.6875 11.75 1 14 C1.5 17.625 1.5 17.625 1 21 C-1 23 -1 23 -3.8203125 23.1953125 C-4.91085937 23.17210937 -6.00140625 23.14890625 -7.125 23.125 C-8.22070312 23.10695313 -9.31640625 23.08890625 -10.4453125 23.0703125 C-11.28835938 23.04710937 -12.13140625 23.02390625 -13 23 C-13.33 21.02 -13.66 19.04 -14 17 C-11 18 -11 18 -9.625 19.5625 C-8.02441452 21.27233291 -8.02441452 21.27233291 -5.3125 21.1875 C-4.549375 21.125625 -3.78625 21.06375 -3 21 C-3 19.35 -3 17.7 -3 16 C-3.71027344 15.72027344 -4.42054688 15.44054687 -5.15234375 15.15234375 C-7.94657482 13.9335417 -10.47377229 12.70979879 -13 11 C-14.375 7.4375 -14.375 7.4375 -14 4 C-11.02815094 -1.51914826 -5.49295579 -0.37737864 0 0 Z " fill="#101010" transform="translate(361,272)"/>
<path d="M0 0 C2.64 0 5.28 0 8 0 C8 0.66 8 1.32 8 2 C7.34 2 6.68 2 6 2 C6.80906755 4.31375405 7.62206917 6.62598948 8.4375 8.9375 C8.66759766 9.59685547 8.89769531 10.25621094 9.13476562 10.93554688 C10.11964592 14.22328622 10.11964592 14.22328622 12 17 C13.65 12.05 15.3 7.1 17 2 C16.34 2 15.68 2 15 2 C15 1.34 15 0.68 15 0 C16.98 0 18.96 0 21 0 C21 0.66 21 1.32 21 2 C20.34 2 19.68 2 19 2 C18.81824219 2.76183594 18.63648438 3.52367187 18.44921875 4.30859375 C16.90326437 10.65889864 15.15906664 16.83123818 13 23 C11.35 23 9.7 23 8 23 C5.81394921 16.03859556 3.6716186 9.10437904 2 2 C1.34 2 0.68 2 0 2 C0 1.34 0 0.68 0 0 Z " fill="#1C1C1C" transform="translate(270,272)"/>
<path d="M0 0 C0.77350859 8.04448938 0.77350859 8.04448938 -2.125 11.625 C-5.60210817 13.28796478 -7.34257632 13.02067638 -11 12 C-11.75 9.3125 -11.75 9.3125 -12 6 C-8.48575113 0.5468552 -6.29557186 -0.13686026 0 0 Z " fill="#F1F2F9" transform="translate(306,232)"/>
<path d="M0 0 C3.26460973 1.80412643 4.88929795 2.83394693 7 6 C7.07905064 8.33199388 7.08798769 10.66832622 7 13 C6.01 13.495 6.01 13.495 5 14 C5 12.68 5 11.36 5 10 C4.01 10.66 3.02 11.32 2 12 C-0.58379806 11.74995503 -1.84188588 11.1264913 -3.875 9.5 C-6.53604574 7.62161477 -8.79984114 7.36365442 -12 7 C-8.91111478 4.94074319 -8.29064073 4.7609626 -4.8125 4.875 C-2.9253125 4.936875 -2.9253125 4.936875 -1 5 C-0.67 3.35 -0.34 1.7 0 0 Z " fill="#FEA7B0" transform="translate(148,230)"/>
<path d="M0 0 C1.98 0 3.96 0 6 0 C6.71148265 7.18050184 7.25818438 13.87028851 6 21 C6.99 21.33 7.98 21.66 9 22 C6.03 22 3.06 22 0 22 C0.33 21.34 0.66 20.68 1 20 C1.15067214 18.5534758 1.24861036 17.1012066 1.31640625 15.6484375 C1.35830078 14.79765625 1.40019531 13.946875 1.44335938 13.0703125 C1.48267578 12.18085938 1.52199219 11.29140625 1.5625 10.375 C1.60568359 9.4778125 1.64886719 8.580625 1.69335938 7.65625 C1.79956861 5.43765717 1.90161194 3.2189512 2 1 C1.34 0.67 0.68 0.34 0 0 Z " fill="#101010" transform="translate(321,273)"/>
<path d="M0 0 C1.98 0 3.96 0 6 0 C5.01 0.495 5.01 0.495 4 1 C4.30614857 4.12565662 4.62099716 7.25037623 4.9375 10.375 C5.02451172 11.26445312 5.11152344 12.15390625 5.20117188 13.0703125 C5.28818359 13.92109375 5.37519531 14.771875 5.46484375 15.6484375 C5.543396 16.43395996 5.62194824 17.21948242 5.70288086 18.02880859 C5.90696298 20.07134803 5.90696298 20.07134803 7 22 C4.36 22 1.72 22 -1 22 C-0.67 21.34 -0.34 20.68 0 20 C0.23172827 17.45384991 0.41894529 14.92603775 0.5625 12.375 C0.60568359 11.66859375 0.64886719 10.9621875 0.69335938 10.234375 C0.79944751 8.48981463 0.90022889 6.74493303 1 5 C0.34 5 -0.32 5 -1 5 C-0.67 3.35 -0.34 1.7 0 0 Z " fill="#141414" transform="translate(151,273)"/>
<path d="M0 0 C0.66 0.33 1.32 0.66 2 1 C-1.625 6.75 -1.625 6.75 -5 9 C-12.09859155 9.67605634 -12.09859155 9.67605634 -15.5 7.125 C-17 5 -17 5 -17 3 C-15.41058594 2.80083984 -15.41058594 2.80083984 -13.7890625 2.59765625 C-12.40101721 2.41946125 -11.01299769 2.2410654 -9.625 2.0625 C-8.92632812 1.97548828 -8.22765625 1.88847656 -7.5078125 1.79882812 C-3.63216425 1.33681872 -3.63216425 1.33681872 0 0 Z " fill="#F1F2F6" transform="translate(251,235)"/>
<path d="M0 0 C2.64 0 5.28 0 8 0 C7.34 0.66 6.68 1.32 6 2 C5.53837573 4.43252661 5.53837573 4.43252661 5.375 7.125 C5.30023438 8.03507812 5.22546875 8.94515625 5.1484375 9.8828125 C5.09945312 10.58148438 5.05046875 11.28015625 5 12 C5.66 12.33 6.32 12.66 7 13 C6.67 15.64 6.34 18.28 6 21 C6.66 21.33 7.32 21.66 8 22 C5.36 22 2.72 22 0 22 C0.33 21.34 0.66 20.68 1 20 C1.15067214 18.5534758 1.24861036 17.1012066 1.31640625 15.6484375 C1.35830078 14.79765625 1.40019531 13.946875 1.44335938 13.0703125 C1.48267578 12.18085938 1.52199219 11.29140625 1.5625 10.375 C1.60568359 9.4778125 1.64886719 8.580625 1.69335938 7.65625 C1.79956861 5.43765717 1.90161194 3.2189512 2 1 C1.34 0.67 0.68 0.34 0 0 Z " fill="#090909" transform="translate(191,273)"/>
<path d="M0 0 C2.3431213 0.25561323 4.67843403 0.59270772 7 1 C8.4783226 3.95664519 8.06032783 6.74229737 8 10 C5.29120665 11.35439668 2.99066732 11.06501451 0 11 C0 7.37 0 3.74 0 0 Z " fill="#F7F7F7" transform="translate(327,274)"/>
<path d="M0 0 C4.51785639 0.22972151 7.1397627 0.46235169 11 2.875 C13.93188289 7.45606702 13.92111182 11.70156919 13 17 C11 19.6875 11 19.6875 9 21 C7.7505728 18.50114561 8.15350348 17.46803874 8.625 14.75 C9.16370492 10.28234057 8.75203405 7.72856226 6 4 C2.94960779 2.09793151 2.94960779 2.09793151 0 1 C0 0.67 0 0.34 0 0 Z " fill="#0E0E0E" transform="translate(251,272)"/>
<path d="M0 0 C0.66 0 1.32 0 2 0 C2 1.65 2 3.3 2 5 C2.99 5 3.98 5 5 5 C5.33 4.01 5.66 3.02 6 2 C9 6.75 9 6.75 9 9 C10.79323253 8.71812064 12.58457126 8.4241719 14.375 8.125 C15.37273437 7.96257812 16.37046875 7.80015625 17.3984375 7.6328125 C20.1425115 7.2041198 20.1425115 7.2041198 22 5 C22.66 6.32 23.32 7.64 24 9 C20.63720569 10.12093144 17.5739782 10.3497915 14.05859375 10.62109375 C11.7830663 10.83865067 11.7830663 10.83865067 10 13 C10 12.01 10 11.02 10 10 C7.69 9.34 5.38 8.68 3 8 C3 7.34 3 6.68 3 6 C1.35 6.33 -0.3 6.66 -2 7 C-1.67 6.21625 -1.34 5.4325 -1 4.625 C0.11866511 2.15667503 0.11866511 2.15667503 0 0 Z " fill="#F78991" transform="translate(124,226)"/>
<path d="M0 0 C1.67542976 0.28604898 3.34385343 0.61781233 5 1 C5.99844215 5.99221073 6.17036684 9.3337113 4 14 C3.01 14.66 2.02 15.32 1 16 C1.03480469 14.87851563 1.03480469 14.87851563 1.0703125 13.734375 C1.09738281 12.25710937 1.09738281 12.25710937 1.125 10.75 C1.14820313 9.77546875 1.17140625 8.8009375 1.1953125 7.796875 C0.99862781 4.9803502 0.44568916 3.39050964 -1 1 C-0.67 0.67 -0.34 0.34 0 0 Z " fill="#FEBAC2" transform="translate(143,202)"/>
<path d="M0 0 C3.465 1.485 3.465 1.485 7 3 C6.6641593 6.10652645 6.40950721 7.60414303 4.125 9.8125 C2 11 2 11 -1 11 C-0.67 7.37 -0.34 3.74 0 0 Z " fill="#FC96A0" transform="translate(129,234)"/>
<path d="M0 0 C0.804375 0.495 0.804375 0.495 1.625 1 C5.59671095 2.67229935 8.97077453 2.34307516 13 1 C13.042721 2.66611905 13.04063832 4.33382885 13 6 C12 7 12 7 8.1875 7.375 C4.65141909 7.34960624 4.22315879 7.21200085 1.5 4.625 C0 2 0 2 0 0 Z " fill="#FFB8C0" transform="translate(140,239)"/>
<path d="M0 0 C2 2 2 2 2.4375 5.5 C2.623125 6.655 2.80875 7.81 3 9 C3.99 9.66 4.98 10.32 6 11 C5.67 11.99 5.34 12.98 5 14 C4.01 14.33 3.02 14.66 2 15 C-0.0625 12.9375 -0.0625 12.9375 -2 10 C-1.81170224 6.3595767 -1.14922369 3.44767107 0 0 Z " fill="#FFBAC2" transform="translate(125,235)"/>
<path d="M0 0 C1.3303125 0.4021875 1.3303125 0.4021875 2.6875 0.8125 C-0.3125 2.8125 -0.3125 2.8125 -2.3125 3.8125 C-2.71979228 6.13406597 -3.05688677 8.4693787 -3.3125 10.8125 C-4.9625 10.8125 -6.6125 10.8125 -8.3125 10.8125 C-8.78177699 6.77671785 -8.61108931 5.22525581 -6.1875 1.875 C-3.3125 -0.1875 -3.3125 -0.1875 0 0 Z " fill="#FEBDC4" transform="translate(119.3125,223.1875)"/>
<path d="M0 0 C0.66 0 1.32 0 2 0 C4.21747812 2.30276574 4.96760006 3.52480092 5.1875 6.75 C5.125625 7.4925 5.06375 8.235 5 9 C4.01 9 3.02 9 2 9 C1.34 10.65 0.68 12.3 0 14 C-0.66 14 -1.32 14 -2 14 C-1.85923685 12.0412957 -1.7122324 10.08303907 -1.5625 8.125 C-1.48128906 7.03445312 -1.40007812 5.94390625 -1.31640625 4.8203125 C-1 2 -1 2 0 0 Z " fill="#BD9291" transform="translate(359,216)"/>
<path d="M0 0 C2 2 2 2 2.3125 4.5 C2.1578125 5.7375 2.1578125 5.7375 2 7 C1.01 7.66 0.02 8.32 -1 9 C-1.70125 8.360625 -2.4025 7.72125 -3.125 7.0625 C-6.22841233 4.83613898 -8.24620139 4.34919057 -12 4 C-8.91111478 1.94074319 -8.29064073 1.7609626 -4.8125 1.875 C-2.9253125 1.936875 -2.9253125 1.936875 -1 2 C-0.67 1.34 -0.34 0.68 0 0 Z " fill="#FC98A2" transform="translate(148,233)"/>
<path d="M0 0 C0.66 0 1.32 0 2 0 C3.34331654 1.99330842 4.67594012 3.99384866 6 6 C9.52679099 8.35119399 11.02879485 8.21443452 15.1875 8.125 C16.27417969 8.10695312 17.36085938 8.08890625 18.48046875 8.0703125 C19.31191406 8.04710937 20.14335937 8.02390625 21 8 C17.4742813 10.91948652 14.78020373 11.9403697 10.25390625 12.328125 C7.38092775 11.9098751 6.46935077 11.03016303 4.5625 8.875 C2.5397616 6.07902642 1.00702378 3.32317848 0 0 Z " fill="#C59291" transform="translate(333,229)"/>
<path d="M0 0 C0.3125 3.25 0.3125 3.25 0 7 C-2.5 9.4375 -2.5 9.4375 -5 11 C-6.32 10.34 -7.64 9.68 -9 9 C-8.01 8.34 -7.02 7.68 -6 7 C-5.26656572 3.93443402 -5.26656572 3.93443402 -5 1 C-1.125 0 -1.125 0 0 0 Z " fill="#FFBEC5" transform="translate(161,218)"/>
<path d="M0 0 C0.66 0.66 1.32 1.32 2 2 C1.67 2.66 1.34 3.32 1 4 C2.32 4.33 3.64 4.66 5 5 C3.23050388 5.50471197 1.45934777 6.00360685 -0.3125 6.5 C-1.79169922 6.91765625 -1.79169922 6.91765625 -3.30078125 7.34375 C-6 8 -6 8 -9 8 C-7.82255415 4.46766245 -7.04394359 4.13691925 -3.9375 2.3125 C-3.20402344 1.87550781 -2.47054688 1.43851563 -1.71484375 0.98828125 C-1.14894531 0.66214844 -0.58304687 0.33601562 0 0 Z " fill="#BE9190" transform="translate(346,200)"/>
<path d="M0 0 C2.6875 -0.3125 2.6875 -0.3125 6 0 C8.875 2.5 8.875 2.5 11 5 C10.34 5.66 9.68 6.32 9 7 C8.01 6.34 7.02 5.68 6 5 C3.66800612 4.92094936 1.33167378 4.91201231 -1 5 C-0.67 3.35 -0.34 1.7 0 0 Z " fill="#FEBBC2" transform="translate(120,205)"/>
<path d="M0 0 C0.66 0 1.32 0 2 0 C2.99 3.3 3.98 6.6 5 10 C2.69 10 0.38 10 -2 10 C-1.34 6.7 -0.68 3.4 0 0 Z " fill="#E3E3E3" transform="translate(172,276)"/>
<path d="M0 0 C0.33 1.32 0.66 2.64 1 4 C1.66 4 2.32 4 3 4 C2.83757812 4.54398437 2.67515625 5.08796875 2.5078125 5.6484375 C1.92171751 8.36250815 1.86751919 10.84962013 1.875 13.625 C1.87242187 14.58664062 1.86984375 15.54828125 1.8671875 16.5390625 C1.83638917 19.00474769 1.83638917 19.00474769 3 21 C1.02 21 -0.96 21 -3 21 C-2.67 20.34 -2.34 19.68 -2 19 C-1.78217533 17.55487563 -1.61026332 16.10263322 -1.46484375 14.6484375 C-1.37783203 13.79765625 -1.29082031 12.946875 -1.20117188 12.0703125 C-1.11416016 11.18085938 -1.02714844 10.29140625 -0.9375 9.375 C-0.84662109 8.4778125 -0.75574219 7.580625 -0.66210938 6.65625 C-0.43790708 4.43782728 -0.21735434 2.2191024 0 0 Z " fill="#343434" transform="translate(135,274)"/>
<path d="M0 0 C1.98 0 3.96 0 6 0 C6 0.66 6 1.32 6 2 C5.34 2 4.68 2 4 2 C3.80664062 2.80824219 3.61328125 3.61648438 3.4140625 4.44921875 C3.02347656 6.05216797 3.02347656 6.05216797 2.625 7.6875 C2.36976563 8.74324219 2.11453125 9.79898437 1.8515625 10.88671875 C1.08094511 13.70406766 0.14501457 16.31668325 -1 19 C-1.99 18.67 -2.98 18.34 -4 18 C-3.73445313 17.34773438 -3.46890625 16.69546875 -3.1953125 16.0234375 C-1.32172003 11.38732183 0.49315006 6.77169146 2 2 C1.34 2 0.68 2 0 2 C0 1.34 0 0.68 0 0 Z " fill="#3E3E3E" transform="translate(285,272)"/>
<path d="M0 0 C2.72869407 0.03287583 5.2966618 0.56397771 8 1 C8 1.66 8 2.32 8 3 C7.34 3 6.68 3 6 3 C6 3.66 6 4.32 6 5 C5.34 5 4.68 5 4 5 C4.33 6.98 4.66 8.96 5 11 C3.125 10.875 3.125 10.875 1 10 C-0.1875 7.0625 -0.1875 7.0625 -1 4 C-1.33 3.34 -1.66 2.68 -2 2 C-1.34 1.34 -0.68 0.68 0 0 Z " fill="#996E6E" transform="translate(344,241)"/>
<path d="M0 0 C1.85776765 3.13498292 2.20140476 5.37471432 2 9 C1.34 9 0.68 9 0 9 C0 9.66 0 10.32 0 11 C-4.01804691 11.84098656 -7.01803543 12.05404945 -11 11 C-11 10.67 -11 10.34 -11 10 C-6.545 9.505 -6.545 9.505 -2 9 C-2 8.34 -2 7.68 -2 7 C-1.34 7 -0.68 7 0 7 C0 4.69 0 2.38 0 0 Z " fill="#FDD27C" transform="translate(141,220)"/>
<path d="M0 0 C0.33 0.99 0.66 1.98 1 3 C1.66 3 2.32 3 3 3 C4.03789581 4.64333504 5.03567924 6.31243867 6 8 C6.66 8.66 7.32 9.32 8 10 C5.36 10 2.72 10 0 10 C-0.19412181 8.52168779 -0.38012131 7.04230684 -0.5625 5.5625 C-0.66691406 4.73878906 -0.77132813 3.91507812 -0.87890625 3.06640625 C-0.91886719 2.38449219 -0.95882813 1.70257813 -1 1 C-0.67 0.67 -0.34 0.34 0 0 Z " fill="#0D0D0D" transform="translate(334,285)"/>
<path d="M0 0 C0.91007812 0.00902344 1.82015625 0.01804687 2.7578125 0.02734375 C3.45648438 0.03894531 4.15515625 0.05054688 4.875 0.0625 C5.535 2.3725 6.195 4.6825 6.875 7.0625 C3.875 6.0625 3.875 6.0625 1.875 3.0625 C-1.69269552 2.32643501 -1.69269552 2.32643501 -5.125 2.0625 C-5.455 2.7225 -5.785 3.3825 -6.125 4.0625 C-6.785 4.0625 -7.445 4.0625 -8.125 4.0625 C-7.795 3.0725 -7.465 2.0825 -7.125 1.0625 C-4.60024538 -0.19987731 -2.81299534 -0.03606404 0 0 Z " fill="#373737" transform="translate(356.125,271.9375)"/>
<path d="M0 0 C-0.33 0.99 -0.66 1.98 -1 3 C-4.63 3.33 -8.26 3.66 -12 4 C-12.33 3.01 -12.66 2.02 -13 1 C-11.58622218 0.63447197 -10.16879424 0.28304505 -8.75 -0.0625 C-7.96109375 -0.25972656 -7.1721875 -0.45695313 -6.359375 -0.66015625 C-3.89605178 -1.01497267 -2.34395868 -0.76877544 0 0 Z " fill="#F17279" transform="translate(145,231)"/>
<path d="M0 0 C2 1 2 1 2.875 3.3125 C4.13325038 6.31832036 5.60500319 7.82953414 8 10 C8.66 10.66 9.32 11.32 10 12 C8.68 12 7.36 12 6 12 C5.67 12.66 5.34 13.32 5 14 C3.964031 12.42652824 2.94668268 10.84078454 1.9375 9.25 C1.36902344 8.36828125 0.80054688 7.4865625 0.21484375 6.578125 C-1 4 -1 4 -0.68359375 1.671875 C-0.45800781 1.12015625 -0.23242188 0.5684375 0 0 Z " fill="#AD7B7A" transform="translate(332,228)"/>
<path d="M0 0 C5.28 0 10.56 0 16 0 C16.66 1.98 17.32 3.96 18 6 C17.34 6 16.68 6 16 6 C15.34 5.01 14.68 4.02 14 3 C10.65386488 2.41312216 10.65386488 2.41312216 6.875 2.3125 C5.59367188 2.24675781 4.31234375 2.18101562 2.9921875 2.11328125 C2.00476563 2.07589844 1.01734375 2.03851563 0 2 C0 1.34 0 0.68 0 0 Z " fill="#515151" transform="translate(218,272)"/>
<path d="M0 0 C5.28 0 10.56 0 16 0 C16.33 1.98 16.66 3.96 17 6 C16.01 5.34 15.02 4.68 14 4 C14 3.34 14 2.68 14 2 C12.80375 2.020625 11.6075 2.04125 10.375 2.0625 C6.81995131 2.06882571 3.49444376 1.69888875 0 1 C0 0.67 0 0.34 0 0 Z " fill="#4C4C4C" transform="translate(297,272)"/>
<path d="M0 0 C3.3 0.33 6.6 0.66 10 1 C10 1.33 10 1.66 10 2 C7.36 2.33 4.72 2.66 2 3 C1.67 4.65 1.34 6.3 1 8 C1.66 8.33 2.32 8.66 3 9 C0.69 9 -1.62 9 -4 9 C-2.68 6.03 -1.36 3.06 0 0 Z " fill="#494949" transform="translate(167,286)"/>
<path d="M0 0 C0.99 0.33 1.98 0.66 3 1 C3 2.65 3 4.3 3 6 C0.36 5.34 -2.28 4.68 -5 4 C-5 6.64 -5 9.28 -5 12 C-5.33 12 -5.66 12 -6 12 C-6.02689216 10.52093108 -6.04634621 9.04172517 -6.0625 7.5625 C-6.07410156 6.73878906 -6.08570313 5.91507812 -6.09765625 5.06640625 C-6 3 -6 3 -5 2 C-3.33382885 1.95936168 -1.66611905 1.957279 0 2 C0 1.34 0 0.68 0 0 Z " fill="#505050" transform="translate(230,281)"/>
<path d="M0 0 C2 1 2 1 3.625 2 C7.04100736 3.43831889 10.31558419 3.63155842 14 4 C14 4.33 14 4.66 14 5 C4.98468271 6.45295405 4.98468271 6.45295405 0.875 4.5625 C0.25625 4.046875 -0.3625 3.53125 -1 3 C-0.67 2.01 -0.34 1.02 0 0 Z " fill="#B27E7D" transform="translate(335,251)"/>
<path d="M0 0 C1.98 0 3.96 0 6 0 C2.92118304 3.87051275 -0.00073014 7.02911382 -4 10 C-4.66 9.67 -5.32 9.34 -6 9 C-5.566875 8.60167969 -5.13375 8.20335937 -4.6875 7.79296875 C-4.130625 7.26316406 -3.57375 6.73335938 -3 6.1875 C-2.443125 5.66542969 -1.88625 5.14335937 -1.3125 4.60546875 C0.316465 2.95851033 0.316465 2.95851033 0 0 Z " fill="#313131" transform="translate(205,273)"/>
<path d="M0 0 C2.64 0 5.28 0 8 0 C7.40716379 3.39192363 6.23256811 5.2107757 3.9375 7.75 C3.38964844 8.36359375 2.84179688 8.9771875 2.27734375 9.609375 C1.85582031 10.06828125 1.43429688 10.5271875 1 11 C0.34 10.67 -0.32 10.34 -1 10 C0.38081223 5.8575633 2.59825558 4.67796901 6 2 C4.02 2 2.04 2 0 2 C0 1.34 0 0.68 0 0 Z " fill="#CACACA" transform="translate(204,272)"/>
<path d="M0 0 C1.32 0.66 2.64 1.32 4 2 C3.67 3.32 3.34 4.64 3 6 C-0.75 7.125 -0.75 7.125 -3 6 C-3 4 -3 4 -1 2 C-0.67 1.34 -0.34 0.68 0 0 Z " fill="#A47473" transform="translate(353,235)"/>
<path d="M0 0 C1.11375 0.3403125 1.11375 0.3403125 2.25 0.6875 C2.25 1.0175 2.25 1.3475 2.25 1.6875 C1.30125 1.97625 0.3525 2.265 -0.625 2.5625 C-3.80211578 3.45575109 -3.80211578 3.45575109 -5.75 5.6875 C-6.74 6.0175 -7.73 6.3475 -8.75 6.6875 C-6.97710463 2.40300285 -4.94524284 -0.56195941 0 0 Z " fill="#383838" transform="translate(251.75,272.3125)"/>
<path d="M0 0 C0.99 0.33 1.98 0.66 3 1 C2.375 2.9375 2.375 2.9375 1 5 C-2.125 5.75 -2.125 5.75 -5 6 C-5 5.34 -5 4.68 -5 4 C-3.35 3.34 -1.7 2.68 0 2 C0 1.34 0 0.68 0 0 Z " fill="#B38080" transform="translate(355,251)"/>
<path d="M0 0 C0 1.65 0 3.3 0 5 C-1.65 5.66 -3.3 6.32 -5 7 C-5 5.02 -5 3.04 -5 1 C-1.125 0 -1.125 0 0 0 Z " fill="#FFB4BD" transform="translate(161,218)"/>
<path d="M0 0 C0.66 0 1.32 0 2 0 C2 1.65 2 3.3 2 5 C-0.64 4.67 -3.28 4.34 -6 4 C-6 3.34 -6 2.68 -6 2 C-4.02 2 -2.04 2 0 2 C0 1.34 0 0.68 0 0 Z " fill="#3A3A3A" transform="translate(309,281)"/>
<path d="M0 0 C3.05082939 1.01694313 3.90372675 1.72144212 6 4 C6.66 4.66 7.32 5.32 8 6 C5.69 6 3.38 6 1 6 C0.67 4.02 0.34 2.04 0 0 Z " fill="#2A2A2A" transform="translate(347,289)"/>
<path d="M0 0 C-0.33 1.32 -0.66 2.64 -1 4 C-1.66 4 -2.32 4 -3 4 C-2.67 5.32 -2.34 6.64 -2 8 C-2.99 8.33 -3.98 8.66 -5 9 C-5.36666667 3.5 -5.36666667 3.5 -3.625 1.125 C-2 0 -2 0 0 0 Z " fill="#C29797" transform="translate(333,217)"/>
<path d="M0 0 C0.33 0 0.66 0 1 0 C1 1.98 1 3.96 1 6 C-0.65 6 -2.3 6 -4 6 C-4 4.35 -4 2.7 -4 1 C-3.34 1.66 -2.68 2.32 -2 3 C-1.34 2.01 -0.68 1.02 0 0 Z " fill="#FFB2BB" transform="translate(115,228)"/>
<path d="M0 0 C2.97 0.495 2.97 0.495 6 1 C5.43628586 4.26954202 4.50037734 5.82575883 2 8 C2.33 6.02 2.66 4.04 3 2 C2.01 2 1.02 2 0 2 C0 1.34 0 0.68 0 0 Z " fill="#F98C97" transform="translate(144,218)"/>
<path d="M0 0 C0.33 0.66 0.66 1.32 1 2 C1.99 2.33 2.98 2.66 4 3 C3.67 4.98 3.34 6.96 3 9 C2.67 7.68 2.34 6.36 2 5 C1.34 5 0.68 5 0 5 C-0.5625 3.0625 -0.5625 3.0625 -1 1 C-0.67 0.67 -0.34 0.34 0 0 Z " fill="#F58A89" transform="translate(140,215)"/>
<path d="M0 0 C1.134375 0.020625 2.26875 0.04125 3.4375 0.0625 C3.4375 0.3925 3.4375 0.7225 3.4375 1.0625 C2.07625 1.4646875 2.07625 1.4646875 0.6875 1.875 C-2.27721963 2.95826294 -4.1794754 4.04609457 -6.5625 6.0625 C-4.25951087 0.07472826 -4.25951087 0.07472826 0 0 Z " fill="#E4E4E4" transform="translate(252.5625,273.9375)"/>
<path d="M0 0 C2.72869407 0.03287583 5.2966618 0.56397771 8 1 C8 1.66 8 2.32 8 3 C2.58461538 4.23076923 2.58461538 4.23076923 -0.375 3.0625 C-0.91125 2.711875 -1.4475 2.36125 -2 2 C-1.34 1.34 -0.68 0.68 0 0 Z " fill="#BC9393" transform="translate(344,241)"/>
</svg>
