<svg version="1.0" xmlns="http://www.w3.org/2000/svg"
     width="191.000000pt" height="36.000000pt" viewBox="0 0 191.000000 36.000000"
     preserveAspectRatio="xMidYMid meet">
  <g transform="translate(0.000000,36.000000) scale(0.100000,-0.100000)"
     fill="#000000" stroke="none">
    <path d="M322 1027 c-24 -53 -41 -100 -38 -105 3 -6 21 -5 45 1 43 12 48 27 6
              19 -32 -6 -31 2 5 84 17 37 29 74 28 82 -2 9 -23 -28 -46 -81z"/>
    <path d="M728 1078 c-19 -28 -58 -126 -58 -143 0 -5 4 -17 10 -25 7 -12 12
              -12 29 4 19 17 21 17 27 2 8 -20 34 -21 60 0 18 15 18 15 -3 5 -34 -17 -45
              -14 -37 12 8 27 25 49 32 42 3 -2 -1 -11 -8 -20 -11 -13 -10 -14 4 -9 18 7 23
              54 5 54 -6 0 -27 -18 -46 -40 -65 -72 -80 -37 -21 46 20 28 29 51 26 70 l-3
              28 -17 -26z m2 -48 c-6 -12 -14 -19 -17 -17 -2 3 1 15 7 27 6 12 14 19 17 17
              2 -3 -1 -15 -7 -27z"/>
    <path d="M1337 1032 c-48 -106 -57 -132 -48 -132 5 0 14 13 21 29 11 28 37 47
              48 36 3 -2 -1 -11 -8 -20 -16 -19 -6 -47 15 -39 14 6 13 8 -2 19 -17 13 -17
              14 0 20 20 8 23 45 4 45 -7 0 -18 -5 -25 -12 -20 -20 -14 7 13 53 27 47 30 59
              16 59 -4 0 -20 -26 -34 -58z"/>
    <path d="M1920 1000 c0 -13 -60 -80 -72 -80 -6 0 -8 10 -4 23 3 13 0 32 -8 42
              -12 17 -14 16 -31 -12 -19 -33 -69 -68 -84 -59 -12 8 -3 42 15 57 17 14 19 -2
              2 -20 -11 -11 -10 -13 2 -9 15 5 28 58 13 58 -15 -1 -50 -36 -56 -56 -10 -31
              7 -48 39 -39 16 5 32 9 35 9 3 1 18 15 32 31 l27 30 -3 -35 c-3 -50 29 -53 62
              -5 24 36 41 38 41 5 0 -13 -5 -17 -15 -14 -11 5 -13 2 -9 -10 8 -21 30 -21 38
              0 8 20 -4 94 -15 94 -5 0 -9 -4 -9 -10z"/>
    <path d="M1426 969 c-21 -24 -24 -34 -16 -50 12 -21 45 -26 56 -8 4 8 0 9 -15
              4 -29 -9 -26 5 6 31 17 14 24 26 20 37 -9 24 -22 21 -51 -14z m38 -3 c-6 -16
              -34 -30 -34 -18 0 5 5 13 12 20 16 16 29 15 22 -2z"/>
    <path d="M837 966 c-9 -13 -13 -33 -10 -45 6 -24 7 -25 35 -10 16 9 22 8 29
              -2 7 -11 12 -11 27 -2 11 6 37 10 58 9 30 -3 44 2 68 25 l31 29 3 -25 c4 -28
              14 -32 32 -10 9 10 9 15 1 15 -6 0 -11 9 -11 20 0 26 -9 25 -44 -5 -32 -28
              -45 -33 -26 -10 6 8 10 20 8 27 -3 8 -10 3 -18 -12 -23 -44 -50 -53 -50 -16 0
              40 -29 41 -70 1 -20 -19 -41 -35 -48 -35 -16 0 -15 5 3 40 18 36 4 40 -18 6z
              m113 -9 c0 -8 -9 -22 -19 -31 -23 -21 -37 -6 -21 24 12 23 40 27 40 7z"/>
    <path d="M1196 960 c-18 -17 -36 -30 -39 -30 -3 0 -7 12 -9 27 -2 21 -5 24
              -14 12 -8 -9 -9 -22 -3 -37 7 -18 12 -21 26 -13 12 6 20 5 28 -6 9 -12 16 -13
              33 -4 11 6 27 8 35 5 8 -3 18 0 23 7 4 8 3 10 -4 5 -8 -5 -12 3 -12 22 0 42
              -24 47 -64 12z m44 -3 c0 -8 -9 -22 -20 -32 -19 -18 -20 -17 -20 1 0 20 17 44
              32 44 4 0 8 -6 8 -13z"/>
    <path d="M1511 964 c-25 -32 -26 -38 -6 -54 20 -16 43 -6 57 25 16 35 38 32
              38 -5 0 -16 5 -30 11 -30 14 0 69 61 69 77 0 23 -15 13 -30 -19 -15 -31 -49
              -55 -38 -27 3 8 9 24 13 37 6 22 5 22 -14 10 -17 -10 -25 -10 -41 0 -28 17
              -36 15 -59 -14z m46 0 c8 -21 -23 -52 -38 -37 -8 8 -8 17 0 32 14 25 29 27 38
              5z"/>
  </g>
</svg>
