<?xml version="1.0" encoding="UTF-8"?>
<svg version="1.1" xmlns="http://www.w3.org/2000/svg" width="500" height="500">
<path d="M0 0 C165 0 330 0 500 0 C500 165 500 330 500 500 C335 500 170 500 0 500 C0 335 0 170 0 0 Z " fill="#000000" transform="translate(0,0)"/>
<path d="M0 0 C4.33101045 2.01693626 6.79437175 5.57321652 8.41870117 10.0168457 C10.86272516 18.35485781 11.2908467 26.47734359 11.4375 35.125 C11.73123951 46.36665589 12.4182289 57.25468669 16 68 C16.12025295 70.35192393 16.17532335 72.70753531 16.1875 75.0625 C16.20167969 76.31160156 16.21585937 77.56070313 16.23046875 78.84765625 C16 82 16 82 14 84 C10.58938647 83.85171246 8.57623961 83.43765033 5.83984375 81.359375 C3.41989999 78.25609256 3.50240143 76.27773949 3.4375 72.375 C3.17684017 66.14523015 2.13959078 60.84014087 0 55 C-6.04552914 54.62621728 -10.80014647 55.93903079 -16.5 57.875 C-18.13514619 58.41488239 -19.77055884 58.95395847 -21.40625 59.4921875 C-22.18718018 59.75870117 -22.96811035 60.02521484 -23.77270508 60.29980469 C-26 61 -26 61 -29.79296875 61.7578125 C-34.21061717 63.4689114 -35.55172526 65.98621811 -37.8125 70 C-41.91666667 76.91666667 -41.91666667 76.91666667 -44 79 C-47.88002054 79.43111339 -50.14921964 79.53173772 -53.5 77.4375 C-55.21601059 74.64898279 -55.11859848 73.2867266 -54.57525635 70.12585449 C-53.36267331 65.64476514 -51.17621078 61.56362105 -49.1171875 57.421875 C-48.62469513 56.41465393 -48.13220276 55.40743286 -47.62478638 54.36968994 C-46.58202489 52.24268778 -45.53446135 50.11803395 -44.48242188 47.99560547 C-42.89001261 44.78031252 -41.31496492 41.55696451 -39.7421875 38.33203125 C-38.72238333 36.25730631 -37.70158115 34.18307158 -36.6796875 32.109375 C-36.21585663 31.16004089 -35.75202576 30.21070679 -35.2741394 29.23260498 C-26.09996679 10.80172436 -26.09996679 10.80172436 -18.8125 5.4375 C-17.99394531 4.81746094 -17.17539062 4.19742188 -16.33203125 3.55859375 C-10.8937272 -0.07605167 -6.53194169 -0.99062623 0 0 Z " fill="#00BB61" transform="translate(381,203)"/>
<path d="M0 0 C4.28796319 0.19705713 6.79052089 1.89301603 10.1875 4.5 C14.07303142 5.79517714 17.78461515 5.67494803 21.8359375 5.7109375 C23.58073856 5.73900506 25.32553011 5.76766952 27.0703125 5.796875 C29.81770572 5.8381301 32.56492102 5.87502321 35.3125 5.90136719 C37.96651773 5.92901321 40.61973089 5.97488126 43.2734375 6.0234375 C44.5002272 6.0283168 44.5002272 6.0283168 45.75180054 6.03329468 C50.3984972 6.13317076 53.34797929 6.59454716 57.1875 9.5 C56.9375 11.375 56.9375 11.375 56.1875 13.5 C44.34931336 21.04340265 21.06213044 18.6625405 7.1875 19.5 C6.2256577 22.01954288 5.26795759 24.54053637 4.3125 27.0625 C4.04308594 27.76697266 3.77367187 28.47144531 3.49609375 29.19726562 C1.83692413 33.58799499 0.41404291 37.96893615 -0.8125 42.5 C5.93901624 42.16870732 11.86798045 41.46967531 18.22265625 39.1484375 C21.04626646 38.21658999 23.25476582 38.02257816 26.1875 38.5 C28.625 40.25 28.625 40.25 30.1875 42.5 C30.3125 44.4375 30.3125 44.4375 29.1875 46.5 C23.84901984 52.35126727 18.12445569 52.71058784 10.5 53.625 C8.24465509 53.90803367 5.99062657 54.20182347 3.73828125 54.5078125 C2.74481689 54.62785645 1.75135254 54.74790039 0.7277832 54.87158203 C-2.09306756 55.5694071 -3.15277972 56.13526884 -4.8125 58.5 C-5.35627879 64.0284177 -5.08491306 67.80954129 -1.8125 72.5 C2.4735596 75.11099479 5.51976645 75.84448977 10.50390625 75.65234375 C11.68017578 75.62462891 12.85644531 75.59691406 14.06835938 75.56835938 C16.52682933 75.48097609 18.98516794 75.38981768 21.44335938 75.29492188 C23.20583008 75.2552832 23.20583008 75.2552832 25.00390625 75.21484375 C26.07068604 75.17480225 27.13746582 75.13476074 28.23657227 75.09350586 C31.89785071 75.59785174 33.52907074 77.00678212 36.1875 79.5 C36.1875 81.8125 36.1875 81.8125 35.1875 84.5 C27.1725842 89.34234496 15.92714145 88.44745278 6.921875 86.9609375 C4.26131809 86.28465069 1.74930858 85.48301957 -0.8125 84.5 C-1.52664062 84.23316406 -2.24078125 83.96632813 -2.9765625 83.69140625 C-11.00479831 80.20423819 -16.91978007 73.8930936 -20.15234375 65.8046875 C-21.04281286 62.69594918 -21.23896826 59.65009731 -21.484375 56.4375 C-22.16791523 52.40135769 -25.41746645 50.79397846 -28.5 48.5 C-30.88933501 46.4335481 -31.48330236 45.57251127 -31.8125 42.5 C-28.66319107 41.45023036 -26.42435544 41.39868405 -23.125 41.4375 C-22.13113281 41.44652344 -21.13726562 41.45554688 -20.11328125 41.46484375 C-18.97439453 41.48224609 -18.97439453 41.48224609 -17.8125 41.5 C-17.70035156 40.66339844 -17.58820313 39.82679688 -17.47265625 38.96484375 C-16.62533465 34.51765876 -15.1125359 30.38398093 -13.54101562 26.15429688 C-12.00217697 21.78901987 -11.45876685 18.1153754 -11.8125 13.5 C-13.18247157 10.62853006 -13.18247157 10.62853006 -14.8125 8.5 C-12.8125 6.5 -12.8125 6.5 -9.875 5.625 C-6.71193043 4.8110709 -6.71193043 4.8110709 -5.4375 2.375 C-3.8125 0.5 -3.8125 0.5 0 0 Z " fill="#00BB60" transform="translate(187.8125,200.5)"/>
<path d="M0 0 C2.0428169 0.67611938 4.08729741 1.24067557 6.16918945 1.78173828 C9.1730957 2.71923828 9.1730957 2.71923828 10.6105957 4.84423828 C10.7962207 5.46298828 10.9818457 6.08173828 11.1730957 6.71923828 C9.1730957 8.71923828 9.1730957 8.71923828 6.1262207 8.94970703 C4.29317383 8.9284375 4.29317383 8.9284375 2.4230957 8.90673828 C1.21137695 8.90029297 -0.0003418 8.89384766 -1.2487793 8.88720703 C-4.52611421 8.73335834 -7.60839533 8.33628371 -10.8269043 7.71923828 C-10.89167969 8.77498047 -10.89167969 8.77498047 -10.95776367 9.85205078 C-11.53292937 17.93603111 -12.79254001 25.76684737 -14.3269043 33.71923828 C-14.55249023 34.91935547 -14.77807617 36.11947266 -15.01049805 37.35595703 C-16.79144718 46.7665344 -16.79144718 46.7665344 -17.8269043 50.71923828 C-16.94389648 50.57486328 -16.06088867 50.43048828 -15.15112305 50.28173828 C4.75603409 47.2026506 4.75603409 47.2026506 10.3605957 50.71923828 C10.9587207 51.37923828 11.5568457 52.03923828 12.1730957 52.71923828 C11.6574707 54.55908203 11.6574707 54.55908203 10.1730957 56.71923828 C7.54623156 57.77778057 5.14305354 58.57074267 2.4230957 59.28173828 C1.26910278 59.60295654 1.26910278 59.60295654 0.09179688 59.93066406 C-4.41423133 61.16030122 -8.93125307 62.18871871 -13.5144043 63.09423828 C-20.88486747 64.55805849 -27.91979715 66.91999365 -35.01318359 69.3828125 C-46.88189871 73.36789733 -46.88189871 73.36789733 -52.9206543 70.84423828 C-54.22273763 69.80257161 -55.52482096 68.76090495 -56.8269043 67.71923828 C-56.7019043 65.96923828 -56.7019043 65.96923828 -55.8269043 63.71923828 C-50.97611833 59.95785493 -45.98589032 58.34499678 -40.12963867 56.91650391 C-36.21526857 55.78516028 -34.98698013 55.00508798 -32.9675293 51.39892578 C-32.59112305 50.18462891 -32.2147168 48.97033203 -31.8269043 47.71923828 C-31.53686523 46.78982422 -31.24682617 45.86041016 -30.94799805 44.90283203 C-26.62260409 28.48170706 -26.62260409 28.48170706 -26.8269043 11.71923828 C-29.61819937 9.41867244 -29.61819937 9.41867244 -32.6394043 9.90673828 C-35.88023278 10.598751 -35.88023278 10.598751 -38.7644043 12.28173828 C-42.44928774 14.01137745 -44.79570152 14.15900586 -48.8269043 13.71923828 C-51.7644043 12.21923828 -51.7644043 12.21923828 -53.8269043 10.71923828 C-53.74927164 8.07972797 -53.29040582 6.27777955 -51.58862305 4.22705078 C-36.04336203 -10.09388181 -18.1502312 -6.2560289 0 0 Z " fill="#00BA60" transform="translate(304.826904296875,211.28076171875)"/>
<path d="M0 0 C3.84802024 0.14018289 6.40184516 0.43979344 9.1875 3.3125 C9.95469951 11.10192364 7.86422936 16.98559736 5.0625 24.1875 C4.23159791 26.40781688 3.40349661 28.62918381 2.578125 30.8515625 C2.17013672 31.9437207 1.76214844 33.03587891 1.34179688 34.16113281 C-6.69733838 54.74034637 -6.69733838 54.74034637 -8.8125 76.3125 C-8.4825 76.9725 -8.1525 77.6325 -7.8125 78.3125 C-0.85990658 78.64493275 5.42578286 77.09046353 12.15625 75.47070312 C13.01734375 75.28056641 13.8784375 75.09042969 14.765625 74.89453125 C15.54325195 74.71124268 16.32087891 74.5279541 17.12207031 74.33911133 C19.1875 74.3125 19.1875 74.3125 20.96386719 75.6237793 C22.1875 77.3125 22.1875 77.3125 22.1875 79.75 C20.77639955 83.3659449 19.57118404 84.32209762 16.1875 86.3125 C6.02785081 89.8189276 -3.4716448 91.06295126 -13.4765625 86.66015625 C-17.74712083 84.1963726 -21.58777642 80.76194717 -23.8125 76.3125 C-25.23597218 65.29075827 -21.76289376 54.79273306 -18.8125 44.3125 C-18.53954102 43.33571289 -18.26658203 42.35892578 -17.98535156 41.35253906 C-15.02383769 30.81931962 -11.90505872 20.33636033 -8.5 9.9375 C-8.25773682 9.18839355 -8.01547363 8.43928711 -7.76586914 7.66748047 C-5.34555914 0.43816059 -5.34555914 0.43816059 0 0 Z " fill="#00BA60" transform="translate(122.8125,199.6875)"/>
<path d="M0 0 C2.2054634 10.04273512 2.20430975 19.78451249 2 30 C-3.96654099 31.58831531 -9.89704892 32.70627618 -16 33.625 C-17.30517578 33.82609375 -17.30517578 33.82609375 -18.63671875 34.03125 C-20.75730331 34.35749378 -22.8785819 34.67922105 -25 35 C-22.87571943 27.84606543 -19.90440434 21.70737284 -16.1875 15.25 C-15.67896484 14.33089844 -15.17042969 13.41179687 -14.64648438 12.46484375 C-7.53015896 0 -7.53015896 0 0 0 Z " fill="#000402" transform="translate(378,217)"/>
<path d="M0 0 C0.66 0 1.32 0 2 0 C2 2.97 2 5.94 2 9 C1.34 9 0.68 9 0 9 C-0.33 8.01 -0.66 7.02 -1 6 C-1.66 6.66 -2.32 7.32 -3 8 C-3.66 6.68 -4.32 5.36 -5 4 C-6.32 5.32 -7.64 6.64 -9 8 C-8.75 5.625 -8.75 5.625 -8 3 C-5.9375 1.6875 -5.9375 1.6875 -4 1 C-3.34 1.66 -2.68 2.32 -2 3 C-1.34 2.01 -0.68 1.02 0 0 Z " fill="#D42828" transform="translate(184,310)"/>
<path d="M0 0 C0.99 0.33 1.98 0.66 3 1 C2.79375 1.94875 2.5875 2.8975 2.375 3.875 C2.25125 4.90625 2.1275 5.9375 2 7 C2.66 7.66 3.32 8.32 4 9 C1.03 8.505 1.03 8.505 -2 8 C-2 8.66 -2 9.32 -2 10 C-2.66 10 -3.32 10 -4 10 C-3.5205537 5.78087253 -2.83374881 3.20336822 0 0 Z " fill="#D02828" transform="translate(303,309)"/>
<path d="M0 0 C1.32 0.33 2.64 0.66 4 1 C4 3.64 4 6.28 4 9 C3.67 8.01 3.34 7.02 3 6 C0.69 6.66 -1.62 7.32 -4 8 C-2.68 5.36 -1.36 2.72 0 0 Z " fill="#B92323" transform="translate(202,310)"/>
<path d="M0 0 C0.66 0.66 1.32 1.32 2 2 C3.32 1.34 4.64 0.68 6 0 C6 0.66 6 1.32 6 2 C5.01 2.495 5.01 2.495 4 3 C4.33 4.65 4.66 6.3 5 8 C3.68 7.34 2.36 6.68 1 6 C0.34 6.99 -0.32 7.98 -1 9 C-1.09765625 2.84765625 -1.09765625 2.84765625 -1 1 C-0.67 0.67 -0.34 0.34 0 0 Z " fill="#D82929" transform="translate(220,310)"/>
<path d="M0 0 C2.64 0 5.28 0 8 0 C8 0.33 8 0.66 8 1 C6.02 1 4.04 1 2 1 C2 1.99 2 2.98 2 4 C2.99 4.33 3.98 4.66 5 5 C4.360625 5.12375 3.72125 5.2475 3.0625 5.375 C2.0415625 5.684375 2.0415625 5.684375 1 6 C0.67 6.66 0.34 7.32 0 8 C-0.66 6.68 -1.32 5.36 -2 4 C-1.34 4 -0.68 4 0 4 C0 2.68 0 1.36 0 0 Z " fill="#D82929" transform="translate(280,310)"/>
<path d="M0 0 C0.66 0.33 1.32 0.66 2 1 C0.35 3.64 -1.3 6.28 -3 9 C-3.99 8.67 -4.98 8.34 -6 8 C-6.33 6.02 -6.66 4.04 -7 2 C-6.01 2.495 -6.01 2.495 -5 3 C-4.67 3.99 -4.34 4.98 -4 6 C-2.68 4.02 -1.36 2.04 0 0 Z " fill="#CD2727" transform="translate(266,310)"/>
<path d="M0 0 C2.97 0.495 2.97 0.495 6 1 C5.67 2.32 5.34 3.64 5 5 C3.68 5.33 2.36 5.66 1 6 C0.67 4.02 0.34 2.04 0 0 Z " fill="#1B0505" transform="translate(239,311)"/>
<path d="M0 0 C0.66 0.33 1.32 0.66 2 1 C2 2.32 2 3.64 2 5 C2.66 5.66 3.32 6.32 4 7 C1.03 6.505 1.03 6.505 -2 6 C-1.125 1.125 -1.125 1.125 0 0 Z " fill="#861919" transform="translate(303,311)"/>
</svg>
